<?xml version="1.0" encoding="UTF-8" standalone="no"?>
<svg
   xmlns:dc="http://purl.org/dc/elements/1.1/"
   xmlns:cc="http://creativecommons.org/ns#"
   xmlns:rdf="http://www.w3.org/1999/02/22-rdf-syntax-ns#"
   xmlns:svg="http://www.w3.org/2000/svg"
   xmlns="http://www.w3.org/2000/svg"
   xmlns:sodipodi="http://sodipodi.sourceforge.net/DTD/sodipodi-0.dtd"
   xmlns:inkscape="http://www.inkscape.org/namespaces/inkscape"
   version="1.1"
   id="svg2"
   xml:space="preserve"
   width="666.66669"
   height="666.66669"
   viewBox="0 0 666.66669 666.66669"
   sodipodi:docname="414341-PDTRQR-7.ai"><metadata
     id="metadata8"><rdf:RDF><cc:Work
         rdf:about=""><dc:format>image/svg+xml</dc:format><dc:type
           rdf:resource="http://purl.org/dc/dcmitype/StillImage" /></cc:Work></rdf:RDF></metadata><defs
     id="defs6"><clipPath
       clipPathUnits="userSpaceOnUse"
       id="clipPath20"><path
         d="M 0,500 H 500 V 0 H 0 Z"
         id="path18" /></clipPath><clipPath
       clipPathUnits="userSpaceOnUse"
       id="clipPath28"><path
         d="M 90.7342,357.124 H 439.374 V 104.094 H 90.7342 Z"
         id="path26" /></clipPath><clipPath
       clipPathUnits="userSpaceOnUse"
       id="clipPath44"><path
         d="m 236.293,397.743 h 36.42 v -21.595 h -36.42 z"
         id="path42" /></clipPath><clipPath
       clipPathUnits="userSpaceOnUse"
       id="clipPath60"><path
         d="M 36.2005,280.395 H 72.6208 V 258.8 H 36.2005 Z"
         id="path58" /></clipPath><clipPath
       clipPathUnits="userSpaceOnUse"
       id="clipPath76"><path
         d="m 421.164,330.249 h 36.42 v -21.595 h -36.42 z"
         id="path74" /></clipPath><clipPath
       clipPathUnits="userSpaceOnUse"
       id="clipPath104"><path
         d="m 382.752,137.575 h 24.113 v -32.603 h -24.113 z"
         id="path102" /></clipPath><clipPath
       clipPathUnits="userSpaceOnUse"
       id="clipPath244"><path
         d="m 321.354,319.303 h 13.851 v -28.156 h -13.851 z"
         id="path242" /></clipPath><clipPath
       clipPathUnits="userSpaceOnUse"
       id="clipPath268"><path
         d="m 299.527,264.51 h 93.036 v -76.804 h -93.036 z"
         id="path266" /></clipPath><clipPath
       clipPathUnits="userSpaceOnUse"
       id="clipPath304"><path
         d="m 359.49,346.029 h 28.053 v -32.94 H 359.49 Z"
         id="path302" /></clipPath><clipPath
       clipPathUnits="userSpaceOnUse"
       id="clipPath380"><path
         d="m 320.653,284.978 h 14.495 v -19.559 h -14.495 z"
         id="path378" /></clipPath><clipPath
       clipPathUnits="userSpaceOnUse"
       id="clipPath444"><path
         d="m 386.263,141.674 h 39.34 v -16.321 h -39.34 z"
         id="path442" /></clipPath><clipPath
       clipPathUnits="userSpaceOnUse"
       id="clipPath468"><path
         d="m 54.2096,217.981 h 24.1859 v -24.93 H 54.2096 Z"
         id="path466" /></clipPath><clipPath
       clipPathUnits="userSpaceOnUse"
       id="clipPath492"><path
         d="m 148.332,170.555 h 19.371 v -54.574 h -19.371 z"
         id="path490" /></clipPath><clipPath
       clipPathUnits="userSpaceOnUse"
       id="clipPath768"><path
         d="m 169.053,337.155 h 16.077 v -16.51 h -16.077 z"
         id="path766" /></clipPath><clipPath
       clipPathUnits="userSpaceOnUse"
       id="clipPath840"><path
         d="m 177.639,379.012 h 19.184 v -35.401 h -19.184 z"
         id="path838" /></clipPath><clipPath
       clipPathUnits="userSpaceOnUse"
       id="clipPath872"><path
         d="m 116.592,330.15 h 83.431 v -82.235 h -83.431 z"
         id="path870" /></clipPath><clipPath
       clipPathUnits="userSpaceOnUse"
       id="clipPath888"><path
         d="M 0,500 H 500 V 0 H 0 Z"
         id="path886" /></clipPath></defs><sodipodi:namedview
     pagecolor="#ffffff"
     bordercolor="#666666"
     borderopacity="1"
     objecttolerance="10"
     gridtolerance="10"
     guidetolerance="10"
     inkscape:pageopacity="0"
     inkscape:pageshadow="2"
     inkscape:window-width="640"
     inkscape:window-height="480"
     id="namedview4" /><g
     id="g10"
     inkscape:groupmode="layer"
     inkscape:label="414341-PDTRQR-7"
     transform="matrix(1.3333333,0,0,-1.3333333,0,666.66667)"><path
       d="M 0,0 H 500 V 500 H 0 Z"
       style="fill:#f9f9f9;fill-opacity:1;fill-rule:nonzero;stroke:none"
       id="path12" /><g
       id="g14"><g
         id="g16"
         clip-path="url(#clipPath20)"><g
           id="g22"><g
             id="g24" /><g
             id="g36"><g
               clip-path="url(#clipPath28)"
               opacity="0.100006"
               id="g34"><g
                 transform="translate(411.2451,319.2061)"
                 id="g32"><path
                   d="m 0,0 c -8.958,34.793 -41.655,32.63 -72.635,26.174 -16.665,-3.473 -40.001,-8.279 -64.353,-1.182 -52.415,15.274 -112.683,19.089 -142.384,0 -29.7,-19.09 -47.554,-42.09 -38.99,-74.224 8.564,-32.134 30.32,-61.026 11.818,-78.223 -18.502,-17.198 -18.192,-82.333 57.893,-87.404 76.085,-5.073 68.539,67.943 118.787,64.552 50.247,-3.389 153.393,-52.817 157.75,-16.982 4.356,35.835 -51.606,61.395 -31.544,120.901 C 0.323,-34.579 4.094,-15.902 0,0"
                   style="fill:#2c2a40;fill-opacity:1;fill-rule:nonzero;stroke:none"
                   id="path30" /></g></g></g></g><g
           id="g38"><g
             id="g40" /><g
             id="g52"><g
               clip-path="url(#clipPath44)"
               opacity="0.100006"
               id="g50"><g
                 transform="translate(236.293,376.1484)"
                 id="g48"><path
                   d="m 0,0 c 0,0 1.943,12.478 7.414,11.992 1.514,-0.135 2.544,-1.67 3.219,-3.317 0.416,-1.016 1.869,-0.945 2.171,0.111 1.447,5.07 4.408,12.809 8.996,12.809 4.745,0 4.902,-8.855 4.557,-14.247 -0.051,-0.812 1.001,-1.173 1.459,-0.5 1.252,1.842 3.079,3.611 5.3,3.098 C 37.442,8.948 36.277,0 36.277,0 Z"
                   style="fill:#2c2a40;fill-opacity:1;fill-rule:nonzero;stroke:none"
                   id="path46" /></g></g></g></g><g
           id="g54"><g
             id="g56" /><g
             id="g68"><g
               clip-path="url(#clipPath60)"
               opacity="0.100006"
               id="g66"><g
                 transform="translate(36.2007,258.7998)"
                 id="g64"><path
                   d="m 0,0 c 0,0 1.943,12.478 7.414,11.992 1.514,-0.135 2.544,-1.67 3.219,-3.317 0.416,-1.015 1.869,-0.944 2.171,0.111 1.447,5.07 4.408,12.809 8.996,12.809 4.745,0 4.902,-8.854 4.557,-14.247 -0.051,-0.812 1.001,-1.173 1.459,-0.499 1.251,1.842 3.078,3.61 5.3,3.097 C 37.442,8.948 36.277,0 36.277,0 Z"
                   style="fill:#2c2a40;fill-opacity:1;fill-rule:nonzero;stroke:none"
                   id="path62" /></g></g></g></g><g
           id="g70"><g
             id="g72" /><g
             id="g84"><g
               clip-path="url(#clipPath76)"
               opacity="0.100006"
               id="g82"><g
                 transform="translate(421.1641,308.6538)"
                 id="g80"><path
                   d="m 0,0 c 0,0 1.942,12.478 7.414,11.992 1.514,-0.135 2.544,-1.67 3.219,-3.317 0.416,-1.015 1.869,-0.944 2.171,0.111 1.447,5.07 4.408,12.809 8.996,12.809 4.745,0 4.902,-8.854 4.557,-14.247 -0.051,-0.812 1.001,-1.173 1.459,-0.499 1.251,1.842 3.079,3.61 5.299,3.097 C 37.442,8.948 36.277,0 36.277,0 Z"
                   style="fill:#2c2a40;fill-opacity:1;fill-rule:nonzero;stroke:none"
                   id="path78" /></g></g></g></g><g
           id="g86"
           transform="translate(406.8291,104.9717)"><path
             d="M 0,0 C 0,0 6.108,1.078 5.749,9.163 5.39,17.248 2.695,28.387 -2.694,31.62 c -5.391,3.234 -9.325,-1.436 -9.325,-1.436 z"
             style="fill:#7b7b9a;fill-opacity:1;fill-rule:nonzero;stroke:none"
             id="path88" /></g><g
           id="g90"
           transform="translate(382.7539,136.5908)"><path
             d="m 0,0 c 0.181,-2.694 2.695,-6.646 8.085,-9.521 5.39,-2.875 8.265,-13.116 10.687,-17.606 1.114,-2.063 2.324,-3.18 3.307,-3.786 1.156,-0.706 1.997,-0.706 1.997,-0.706 0,0 0.03,0.709 0.035,1.935 0.017,2.915 -0.113,8.756 -1.15,14.955 -1.475,8.8 -6.691,11.857 -6.691,11.857 -0.953,1.622 -3.003,2.778 -5.339,3.509 C 7.109,1.83 2.527,1.884 0.752,0.984 0.251,0.733 -0.027,0.402 0,0"
             style="fill:#b0b1ca;fill-opacity:1;fill-rule:nonzero;stroke:none"
             id="path92" /></g><g
           id="g94"
           transform="translate(403.6367,123.2969)"><path
             d="m 0,0 c 1.274,-5.392 1.852,-14.291 1.196,-17.619 1.157,-0.706 1.997,-0.706 1.997,-0.706 0,0 0.359,8.085 -1.115,16.889 C 0.604,7.365 -4.613,10.422 -4.613,10.422 -5.565,12.044 -7.616,13.2 -9.952,13.931 -6.864,10.837 -1.081,4.565 0,0"
             style="fill:#2c2a40;fill-opacity:1;fill-rule:nonzero;stroke:none"
             id="path96" /></g><g
           id="g98"><g
             id="g100" /><g
             id="g112"><g
               clip-path="url(#clipPath104)"
               opacity="0.199997"
               id="g110"><g
                 transform="translate(382.7539,136.5908)"
                 id="g108"><path
                   d="m 0,0 c 0.181,-2.694 2.695,-6.646 8.085,-9.521 5.39,-2.875 8.265,-13.116 10.687,-17.606 1.114,-2.063 2.324,-3.18 3.307,-3.786 1.156,-0.706 1.997,-0.706 1.997,-0.706 0,0 0.03,0.709 0.035,1.935 -0.121,0.111 -0.253,0.186 -0.396,0.221 -1.795,0.45 -4.22,1.143 -5.659,7.816 -1.437,6.671 -3.862,11.499 -7.993,13.563 C 6.293,-6.2 1.558,-0.08 0.752,0.984 0.251,0.733 -0.027,0.402 0,0"
                   style="fill:#2c2a40;fill-opacity:1;fill-rule:nonzero;stroke:none"
                   id="path106" /></g></g></g></g><g
           id="g114"
           transform="translate(339.3447,305.4355)"><path
             d="M 0,0 C 0,0 41.605,6.249 52.9,-11.418 64.194,-29.085 49.022,-88.138 36.779,-97.079 24.536,-106.021 4.193,-101.386 -3.419,-95.766 -11.032,-90.145 -14.563,-8.531 0,0"
             style="fill:#2c2a40;fill-opacity:1;fill-rule:nonzero;stroke:none"
             id="path116" /></g><g
           id="g118"
           transform="translate(387.543,231.9023)"><path
             d="M 0,0 C 0,0 5.272,1.258 7.159,7.456 L 0.871,10.24 C 0.871,10.24 -1.591,3.862 0,0"
             style="fill:#00497b;fill-opacity:1;fill-rule:nonzero;stroke:none"
             id="path120" /></g><g
           id="g122"
           transform="translate(387.543,242.7705)"><path
             d="m 0,0 c 8.623,-13.116 28.089,-16.527 28.089,-16.527 4.029,1.177 9.399,6.783 14.712,13.62 h 0.002 c 10.09,12.994 19.962,30.441 19.962,30.441 l -8.085,2.695 c 0,0 -14.195,-15.676 -20.301,-19.088 C 28.27,7.727 26.472,4.492 26.472,4.492 25.836,5.186 25.101,5.861 24.308,6.514 19.967,10.095 13.983,12.896 13.983,12.896 7.065,14.83 0,0 0,0"
             style="fill:#f9b587;fill-opacity:1;fill-rule:nonzero;stroke:none"
             id="path124" /></g><g
           id="g126"
           transform="translate(387.543,242.7705)"><path
             d="m 0,0 c 8.623,-13.116 28.089,-16.527 28.089,-16.527 4.029,1.177 9.399,6.783 14.712,13.62 0,0 -9.487,-10.079 -15.521,-10.926 C 21.249,-14.679 9.822,-6.468 8.669,-3.322 7.519,-0.178 9.219,7.824 13.983,12.896 7.065,14.83 0,0 0,0"
             style="fill:#f39568;fill-opacity:1;fill-rule:nonzero;stroke:none"
             id="path128" /></g><g
           id="g130"
           transform="translate(304.7988,208.3564)"><path
             d="M 0,0 C 0,0 -0.454,-26.514 3.268,-43.255 6.99,-59.996 22.89,-15.846 22.89,-15.846 22.89,-15.846 8.641,-3.334 0,0"
             style="fill:#2c2a40;fill-opacity:1;fill-rule:nonzero;stroke:none"
             id="path132" /></g><g
           id="g134"
           transform="translate(360.373,192.8262)"><path
             d="m 0,0 c 0,0 -0.346,-15.631 -10.586,-26.68 -10.24,-11.049 -14.639,-23.985 -14.639,-23.985 0,0 15.329,7.007 25.225,5.121 0,0 5.18,-0.269 7.065,1.886 1.887,2.156 2.426,4.717 5.39,3.908 2.965,-0.809 7.142,0.135 8.22,0.27 1.078,0.134 7.95,-10.781 6.602,-17.921 0,0 -5.389,-1.483 -6.063,-2.426 -0.674,-0.944 -4.581,-4.986 -7.007,-4.851 -2.425,0.135 -8.894,-3.638 -8.894,-3.638 0,0 -33.33,-12.682 -36.38,-14.822 -5.139,-3.605 -29.374,-7.546 -31.531,6.064 -2.156,13.608 18.999,78.287 21.964,85.293 C -37.67,15.226 -3.563,8.488 0,0"
             style="fill:#2c2a40;fill-opacity:1;fill-rule:nonzero;stroke:none"
             id="path136" /></g><g
           id="g138"
           transform="translate(330.0664,147.9707)"><path
             d="M 0,0 0.939,-0.344 C 1.281,0.59 1.699,1.585 2.182,2.611 L 1.277,3.037 C 0.781,1.983 0.352,0.962 0,0"
             style="fill:#5b5b6c;fill-opacity:1;fill-rule:nonzero;stroke:none"
             id="path140" /></g><g
           id="g142"
           transform="translate(379.3428,149.3271)"><path
             d="m 0,0 0.214,-0.977 c 0.99,0.217 2.057,0.426 3.175,0.621 L 3.218,0.629 C 2.086,0.432 1.004,0.221 0,0"
             style="fill:#5b5b6c;fill-opacity:1;fill-rule:nonzero;stroke:none"
             id="path144" /></g><g
           id="g146"
           transform="translate(329.8027,140.2725)"><path
             d="m 0,0 -0.993,-0.11 0.014,-0.112 c 0.169,-1.38 0.585,-2.41 1.27,-3.15 l 0.733,0.68 c -0.529,0.572 -0.87,1.444 -1.012,2.596 z"
             style="fill:#5b5b6c;fill-opacity:1;fill-rule:nonzero;stroke:none"
             id="path148" /></g><g
           id="g150"
           transform="translate(337.6982,137.333)"><path
             d="m 0,0 0.27,-0.963 c 1.027,0.286 2.108,0.633 3.126,0.964 L 3.088,0.952 C 2.079,0.625 1.009,0.281 0,0"
             style="fill:#5b5b6c;fill-opacity:1;fill-rule:nonzero;stroke:none"
             id="path152" /></g><g
           id="g154"
           transform="translate(336.9102,160.5771)"><path
             d="m 0,0 c -0.633,-0.949 -1.229,-1.872 -1.774,-2.742 l 0.848,-0.531 c 0.539,0.862 1.131,1.777 1.758,2.718 z"
             style="fill:#5b5b6c;fill-opacity:1;fill-rule:nonzero;stroke:none"
             id="path156" /></g><g
           id="g158"
           transform="translate(334.8193,155.3916)"><path
             d="m 0,0 -0.86,0.509 c -0.583,-0.988 -1.121,-1.948 -1.6,-2.859 l 0.885,-0.465 C -1.104,-1.92 -0.574,-0.973 0,0"
             style="fill:#5b5b6c;fill-opacity:1;fill-rule:nonzero;stroke:none"
             id="path160" /></g><g
           id="g162"
           transform="translate(355.5469,193.8906)"><path
             d="M 0,0 -0.985,0.171 C -1.169,-0.884 -1.383,-1.947 -1.624,-2.99 l 0.975,-0.225 C -0.404,-2.154 -0.187,-1.072 0,0"
             style="fill:#5b5b6c;fill-opacity:1;fill-rule:nonzero;stroke:none"
             id="path164" /></g><g
           id="g166"
           transform="translate(340.8633,164.5391)"><path
             d="m 0,0 -0.815,0.579 c -0.681,-0.956 -1.293,-1.83 -1.872,-2.671 l 0.824,-0.567 C -1.287,-1.822 -0.678,-0.953 0,0"
             style="fill:#5b5b6c;fill-opacity:1;fill-rule:nonzero;stroke:none"
             id="path168" /></g><g
           id="g170"
           transform="translate(343.2764,169.5801)"><path
             d="m 0,0 c -0.634,-0.867 -1.274,-1.744 -1.914,-2.631 l 0.81,-0.585 c 0.639,0.884 1.278,1.76 1.911,2.626 z"
             style="fill:#5b5b6c;fill-opacity:1;fill-rule:nonzero;stroke:none"
             id="path172" /></g><g
           id="g174"
           transform="translate(330.335,145.5264)"><path
             d="M 0,0 -0.966,0.261 C -1.277,-0.895 -1.476,-2 -1.556,-3.023 l 0.997,-0.079 C -0.483,-2.139 -0.296,-1.096 0,0"
             style="fill:#5b5b6c;fill-opacity:1;fill-rule:nonzero;stroke:none"
             id="path176" /></g><g
           id="g178"
           transform="translate(332.5088,136.7012)"><path
             d="m 0,0 -0.188,-0.982 c 0.376,-0.073 0.793,-0.11 1.237,-0.11 0.645,0 1.357,0.075 2.178,0.228 L 3.043,0.119 C 1.789,-0.115 0.798,-0.152 0,0"
             style="fill:#5b5b6c;fill-opacity:1;fill-rule:nonzero;stroke:none"
             id="path180" /></g><g
           id="g182"
           transform="translate(359.2812,141.04)"><path
             d="m 0,0 0.167,-0.985 c 1.088,0.183 2.172,0.42 3.221,0.701 L 3.129,0.682 C 2.11,0.408 1.058,0.18 0,0"
             style="fill:#5b5b6c;fill-opacity:1;fill-rule:nonzero;stroke:none"
             id="path184" /></g><g
           id="g186"
           transform="translate(364.5273,142.3711)"><path
             d="m 0,0 0.328,-0.945 c 1.101,0.382 2.129,0.811 3.058,1.277 L 2.938,1.226 C 2.048,0.78 1.06,0.367 0,0"
             style="fill:#5b5b6c;fill-opacity:1;fill-rule:nonzero;stroke:none"
             id="path188" /></g><g
           id="g190"
           transform="translate(342.9316,138.9785)"><path
             d="m 0,0 0.302,-0.954 c 1.249,0.395 2.203,0.673 3.094,0.9 L 3.149,0.915 C 2.239,0.684 1.268,0.401 0,0"
             style="fill:#5b5b6c;fill-opacity:1;fill-rule:nonzero;stroke:none"
             id="path192" /></g><g
           id="g194"
           transform="translate(353.8857,140.5576)"><path
             d="m 0,0 0.009,-1 c 1.085,0.01 2.192,0.073 3.292,0.188 L 3.197,0.182 C 2.129,0.07 1.054,0.01 0,0"
             style="fill:#5b5b6c;fill-opacity:1;fill-rule:nonzero;stroke:none"
             id="path196" /></g><g
           id="g198"
           transform="translate(373.9746,147.7939)"><path
             d="m 0,0 0.362,-0.933 c 0.855,0.332 1.88,0.658 3.049,0.967 L 3.156,1.001 C 1.95,0.682 0.89,0.345 0,0"
             style="fill:#5b5b6c;fill-opacity:1;fill-rule:nonzero;stroke:none"
             id="path200" /></g><g
           id="g202"
           transform="translate(370.8467,145.9492)"><path
             d="m 0,0 c -0.383,-0.417 -0.886,-0.84 -1.495,-1.256 l 0.564,-0.826 c 0.672,0.46 1.234,0.934 1.668,1.407 0.198,0.215 0.471,0.434 0.814,0.652 L 1.017,0.821 C 0.599,0.557 0.257,0.281 0,0"
             style="fill:#5b5b6c;fill-opacity:1;fill-rule:nonzero;stroke:none"
             id="path204" /></g><g
           id="g206"
           transform="translate(353.3809,188.7354)"><path
             d="m 0,0 c -0.285,-1.047 -0.6,-2.084 -0.937,-3.083 l 0.948,-0.319 c 0.343,1.017 0.664,2.074 0.953,3.139 z"
             style="fill:#5b5b6c;fill-opacity:1;fill-rule:nonzero;stroke:none"
             id="path208" /></g><g
           id="g210"
           transform="translate(344.6064,171.3975)"><path
             d="M 0,0 0.807,-0.591 C 1.46,0.302 2.102,1.181 2.723,2.04 L 1.912,2.626 C 1.292,1.768 0.651,0.892 0,0"
             style="fill:#5b5b6c;fill-opacity:1;fill-rule:nonzero;stroke:none"
             id="path212" /></g><g
           id="g214"
           transform="translate(350.3047,178.1387)"><path
             d="m 0,0 -0.881,0.473 c -0.515,-0.957 -1.064,-1.886 -1.634,-2.759 l 0.837,-0.547 C -1.093,-1.936 -0.528,-0.982 0,0"
             style="fill:#5b5b6c;fill-opacity:1;fill-rule:nonzero;stroke:none"
             id="path216" /></g><g
           id="g218"
           transform="translate(350.4229,180.5986)"><path
             d="M 0,0 0.904,-0.425 C 1.36,0.544 1.795,1.561 2.196,2.596 L 1.263,2.957 C 0.871,1.942 0.445,0.948 0,0"
             style="fill:#5b5b6c;fill-opacity:1;fill-rule:nonzero;stroke:none"
             id="path220" /></g><g
           id="g222"
           transform="translate(348.3213,140.377)"><path
             d="m 0,0 0.168,-0.986 c 1.173,0.2 2.177,0.274 3.126,0.226 L 3.345,0.238 C 2.321,0.291 1.247,0.212 0,0"
             style="fill:#5b5b6c;fill-opacity:1;fill-rule:nonzero;stroke:none"
             id="path224" /></g><g
           id="g226"
           transform="translate(303.5693,385.7817)"><path
             d="m 0,0 4.063,-17.32 0.025,-0.108 c 0,0 0.266,-3.207 1.142,-7.444 0.976,-4.718 2.709,-10.717 5.671,-14.981 0.453,-0.654 0.935,-1.269 1.45,-1.83 0,0 2.574,-9.887 5.346,-18.427 H 17.7 c 1.633,-5.032 3.334,-9.597 4.622,-11.394 0,0 16.423,3.086 12.489,12.906 0,0 -5.587,12.803 -9.988,22.241 -0.003,0.005 -0.003,0.008 -0.003,0.008 -0.851,1.827 -1.66,3.527 -2.374,4.985 L 17.412,-19.875 15,-14.37 7.681,2.336 Z"
             style="fill:#f9b587;fill-opacity:1;fill-rule:nonzero;stroke:none"
             id="path228" /></g><g
           id="g230"
           transform="translate(321.2695,325.6714)"><path
             d="m 0,0 c 1.633,-5.031 3.334,-9.597 4.622,-11.394 0,0 16.423,3.086 12.488,12.906 0,0 -5.587,12.803 -9.987,22.241 C 7.228,23.387 11.073,9.896 9.923,6.104 8.756,2.258 5.344,-1.363 0,0"
             style="fill:#f39568;fill-opacity:1;fill-rule:nonzero;stroke:none"
             id="path232" /></g><g
           id="g234"
           transform="translate(321.3691,313.6387)"><path
             d="m 0,0 c 0.242,-7.139 3.183,-15.644 6.589,-20.713 2.054,-2.164 4.622,-2.156 7.247,-1.027 6.675,2.865 13.735,12.96 13.735,12.96 l -9.618,20.333 -0.942,1.992 C 11.577,12.063 6.074,8.195 2.881,5.665 1.153,4.296 0.103,3.317 0.103,3.317 -0.008,2.261 -0.038,1.148 0,0"
             style="fill:#e03641;fill-opacity:1;fill-rule:nonzero;stroke:none"
             id="path236" /></g><g
           id="g238"><g
             id="g240" /><g
             id="g252"><g
               clip-path="url(#clipPath244)"
               opacity="0.199997"
               id="g250"><g
                 transform="translate(321.3691,313.6387)"
                 id="g248"><path
                   d="m 0,0 c 0.242,-7.139 3.183,-15.644 6.589,-20.713 2.054,-2.164 4.622,-2.156 7.247,-1.027 C 8.071,-16.016 4.129,0.005 2.881,5.665 1.153,4.296 0.103,3.317 0.103,3.317 -0.008,2.261 -0.038,1.148 0,0"
                   style="fill:#2c2a40;fill-opacity:1;fill-rule:nonzero;stroke:none"
                   id="path246" /></g></g></g></g><g
           id="g254"
           transform="translate(321.3691,313.6387)"><path
             d="m 0,0 c 4.498,4.465 14.79,9.928 17.953,11.553 l -0.942,1.992 C 8.64,11.259 0.103,3.317 0.103,3.317 -0.008,2.261 -0.038,1.148 0,0"
             style="fill:#2c2a40;fill-opacity:1;fill-rule:nonzero;stroke:none"
             id="path256" /></g><g
           id="g258"
           transform="translate(299.5273,204.9531)"><path
             d="m 0,0 c 12.515,-16.205 64.782,-17.247 64.782,-17.247 0,0 -1.851,21.448 0,32.069 2.038,11.677 3.803,28.835 3.803,28.835 4.781,-3.495 12.084,-10.001 16.242,-13.779 1.936,-1.76 3.189,-2.929 3.189,-2.929 1.312,6.021 3.129,10.58 5.02,14.011 4.29,7.783 8.963,9.753 8.963,9.753 l -2.187,2.859 -15.866,20.719 -17.048,14.124 -2.935,2.43 -13.415,8.594 -5.492,3.52 c 0,0 -14.2,-5.942 -18.243,-12.114 C 22.771,84.677 13.485,56.078 10.645,42.04 6.961,23.834 2.538,8.422 0.778,2.547 L 0.773,2.536 C 0.282,0.895 0,0 0,0"
             style="fill:#e03641;fill-opacity:1;fill-rule:nonzero;stroke:none"
             id="path260" /></g><g
           id="g262"><g
             id="g264" /><g
             id="g276"><g
               clip-path="url(#clipPath268)"
               opacity="0.199997"
               id="g274"><g
                 transform="translate(299.5273,204.9531)"
                 id="g272"><path
                   d="m 0,0 c 12.515,-16.205 64.782,-17.247 64.782,-17.247 0,0 -1.851,21.448 0,32.069 2.038,11.677 3.803,28.835 3.803,28.835 4.781,-3.495 12.084,-10.001 16.242,-13.779 1.936,-1.76 3.189,-2.929 3.189,-2.929 1.312,6.021 3.129,10.58 5.02,14.011 0,0 -18.321,9.927 -26.15,18.598 0,0 -9.762,-26.999 -13.123,-40.604 C 49.413,1.348 34.661,-5.84 21.125,-4.939 7.591,-4.042 0.778,2.547 0.778,2.547 L 0.773,2.536 C 0.282,0.895 0,0 0,0"
                   style="fill:#2c2a40;fill-opacity:1;fill-rule:nonzero;stroke:none"
                   id="path270" /></g></g></g></g><g
           id="g278"
           transform="translate(358.082,290.2104)"><path
             d="M 0,0 C 3.099,0.609 4.674,2.334 7.027,4.248 L 5.408,5.588 -8.901,16.947 C -10.799,15.743 -13.169,14.56 -13.498,9.738 -13.996,2.462 -6.323,-1.244 0,0"
             style="fill:#2c2a40;fill-opacity:1;fill-rule:nonzero;stroke:none"
             id="path280" /></g><g
           id="g282"
           transform="translate(384.3545,234.8311)"><path
             d="m 0,0 c 1.936,-1.76 3.188,-2.929 3.188,-2.929 4.285,19.673 13.984,23.764 13.984,23.764 l -2.188,2.859 C 10.987,20.835 2.668,13.44 0,0"
             style="fill:#2c2a40;fill-opacity:1;fill-rule:nonzero;stroke:none"
             id="path284" /></g><g
           id="g286"
           transform="translate(374.2422,312.4419)"><path
             d="m 0,0 c 0,0 0.279,-7.808 -8.719,-9.409 0,0 2.251,10.218 8.719,9.409"
             style="fill:#2c2a40;fill-opacity:1;fill-rule:nonzero;stroke:none"
             id="path288" /></g><g
           id="g290"
           transform="translate(359.4902,329.1777)"><path
             d="m 0,0 c 5.436,-8.737 14.221,-16.089 14.221,-16.089 0,0 18.751,9.055 12.588,23.931 -1.655,3.994 -3.684,6.91 -5.886,9.009 v 0.003 H 20.92 C 11.542,25.809 -0.957,20.023 -0.957,20.023 -6.414,14.369 -4.215,6.77 0,0"
             style="fill:#e03641;fill-opacity:1;fill-rule:nonzero;stroke:none"
             id="path292" /></g><g
           id="g294"
           transform="translate(380.4102,346.0317)"><path
             d="M 0,0 0.003,-0.003 V 0 Z"
             style="fill:#3e86aa;fill-opacity:1;fill-rule:nonzero;stroke:none"
             id="path296" /></g><g
           id="g298"><g
             id="g300" /><g
             id="g312"><g
               clip-path="url(#clipPath304)"
               opacity="0.199997"
               id="g310"><g
                 transform="translate(359.4902,329.1777)"
                 id="g308"><path
                   d="m 0,0 c 5.436,-8.737 14.221,-16.089 14.221,-16.089 0,0 18.751,9.055 12.588,23.931 -1.655,3.994 -3.684,6.91 -5.886,9.009 C 21.031,16.679 26.202,8.397 20.92,2.886 15.582,-2.684 6.336,-4.681 0,0"
                   style="fill:#2c2a40;fill-opacity:1;fill-rule:nonzero;stroke:none"
                   id="path306" /></g></g></g></g><g
           id="g314"
           transform="translate(373.6084,333.147)"><path
             d="M 0,0 C 0,0 -4.901,25.354 -20.586,24.203 -35.273,23.125 -23.83,3.688 -23.83,3.688 -23.83,3.688 -2.628,-2.366 0,0"
             style="fill:#2c2a40;fill-opacity:1;fill-rule:nonzero;stroke:none"
             id="path316" /></g><g
           id="g318"
           transform="translate(354.2217,342.1162)"><path
             d="m 0,0 c 0,0 -6.729,-1.34 -6.1,-7.538 0,0 5.7,3.378 6.1,7.538"
             style="fill:#2c2a40;fill-opacity:1;fill-rule:nonzero;stroke:none"
             id="path320" /></g><g
           id="g322"
           transform="translate(365.9561,304.5747)"><path
             d="m 0,0 -2.466,-8.775 c -0.255,-1.195 -1.181,-2.141 -2.375,-2.403 -10.297,-2.265 -15.202,5.286 -14.166,7.933 1.331,0.473 24.254,7.807 28.424,16.616 C 9.417,13.371 7.956,5.499 0,0"
             style="fill:#f9b587;fill-opacity:1;fill-rule:nonzero;stroke:none"
             id="path324" /></g><g
           id="g326"
           transform="translate(348.126,304.9556)"><path
             d="m 0,0 c 3.296,-1.269 7.938,-2.42 12.773,-1.563 9.12,1.62 13.869,12.413 13.869,12.413 0,0 1.522,7.333 -0.526,14.108 -0.553,1.837 -1.372,3.638 -2.554,5.236 -4.291,5.8 -11.421,6.834 -15.345,7.209 -1.951,0.186 -3.838,-0.749 -4.863,-2.42 L 1.636,32.169 0.487,30.293 C 0.239,29.89 0.019,29.477 -0.181,29.054 -0.852,27.628 -1.259,26.092 -1.378,24.513 l -0.134,-1.838 c -0.886,-1.137 -1.571,-2.406 -2.029,-3.754 -0.402,-1.164 -0.637,-2.388 -0.69,-3.632 L -4.587,7.01 C -4.719,3.932 -2.876,1.108 0,0"
             style="fill:#f9b587;fill-opacity:1;fill-rule:nonzero;stroke:none"
             id="path328" /></g><g
           id="g330"
           transform="translate(357.5586,332.4902)"><path
             d="m 0,0 c 0,0 7.297,2.758 8.854,-3.28 l -1.14,-0.872 c 0,0 -2.205,4.654 -8.01,2.578 z"
             style="fill:#2c2a40;fill-opacity:1;fill-rule:nonzero;stroke:none"
             id="path332" /></g><g
           id="g334"
           transform="translate(346.6143,327.6299)"><path
             d="m 0,0 c -0.886,-1.137 -1.571,-2.405 -2.03,-3.753 1.436,0.299 3.928,-0.016 8.11,-2.559 0,0 -1.54,2.978 -3.9,4.06 -0.634,0.29 -0.807,1.11 -0.343,1.631 l 3.106,3.49 c 0,0 -0.123,1.021 -1.002,1.769 C 3.405,5.094 2.281,5.853 1.331,6.378 0.66,4.955 0.254,3.417 0.136,1.837 Z"
             style="fill:#f39568;fill-opacity:1;fill-rule:nonzero;stroke:none"
             id="path336" /></g><g
           id="g338"
           transform="translate(348.7041,335.1362)"><path
             d="M 0,0 C 1.677,-0.867 2.848,-1.965 2.848,-1.965 L 2.427,-3.361 c -1.048,0.953 -2.072,1.567 -3.032,1.947 -0.475,0.188 -0.707,0.707 -0.5,1.113 10e-4,0.005 0.004,0.01 0.006,0.015 C -0.91,0.087 -0.417,0.216 0,0"
             style="fill:#2c2a40;fill-opacity:1;fill-rule:nonzero;stroke:none"
             id="path340" /></g><g
           id="g342"
           transform="translate(345.8779,320.4004)"><path
             d="m 0,0 12.655,-4.158 c 0,0 -4.259,-5.95 -10.65,-2.96 C -3.006,-4.772 0,0 0,0"
             style="fill:#ffffff;fill-opacity:1;fill-rule:nonzero;stroke:none"
             id="path344" /></g><g
           id="g346"
           transform="translate(348.9414,304.8579)"><path
             d="m 0,0 c 0,0 7.945,-2.353 16.581,6.37 0,0 0.188,-4.687 -4.445,-9.284 -3.371,-3.345 -9.74,-2.792 -12.956,-2.242 -0.969,0.165 -1.476,1.244 -0.979,2.092 z"
             style="fill:#f39568;fill-opacity:1;fill-rule:nonzero;stroke:none"
             id="path348" /></g><g
           id="g350"
           transform="translate(372.417,318.9497)"><path
             d="M 0,0 C 0,0 4.195,3.365 6.68,-0.057 9.164,-3.478 2.95,-12.626 -1.083,-8.641 -5.115,-4.656 0,0 0,0"
             style="fill:#f9b587;fill-opacity:1;fill-rule:nonzero;stroke:none"
             id="path352" /></g><g
           id="g354"
           transform="translate(357.3857,327.9829)"><path
             d="M 0,0 C 0,0 1.658,1.857 3.604,1.019 6.441,-0.203 5.94,-2.836 5.94,-2.836 5.94,-2.836 4.843,2.147 0,0"
             style="fill:#2c2a40;fill-opacity:1;fill-rule:nonzero;stroke:none"
             id="path356" /></g><g
           id="g358"
           transform="translate(350.3516,329.2539)"><path
             d="m 0,0 c 0,0 -0.937,3.174 -3.325,0.862 0,0 2.094,1.231 3.325,-0.862"
             style="fill:#2c2a40;fill-opacity:1;fill-rule:nonzero;stroke:none"
             id="path360" /></g><g
           id="g362"
           transform="translate(349.6689,337.1719)"><path
             d="m 0,0 c 0.005,-0.094 -0.217,-0.446 -0.212,-0.543 0,0 4.096,3.428 11.308,0.644 7.209,-2.784 10.745,-9.61 10.745,-9.61 l 2.732,2.25 c -0.552,1.838 -1.372,3.638 -2.554,5.237 C 17.728,3.777 10.598,4.812 6.674,5.187 4.723,5.373 2.836,4.437 1.812,2.767 Z"
             style="fill:#f39568;fill-opacity:1;fill-rule:nonzero;stroke:none"
             id="path364" /></g><g
           id="g366"
           transform="translate(370.2207,318.4087)"><path
             d="m 0,0 2.369,-1.078 3.455,3.099 c 0.544,2.978 -1.87,10.928 -2.436,12.717 -0.305,0.291 -0.804,0.577 -1.158,0.863 0,0 -2.377,-8.225 0.196,-11.27 z"
             style="fill:#2c2a40;fill-opacity:1;fill-rule:nonzero;stroke:none"
             id="path368" /></g><g
           id="g370"
           transform="translate(307.6328,368.4614)"><path
             d="m 0,0 0.024,-0.108 c 0,0 0.267,-3.207 1.143,-7.443 l 12.182,4.996 -2.412,5.506 z"
             style="fill:#f39568;fill-opacity:1;fill-rule:nonzero;stroke:none"
             id="path372" /></g><g
           id="g374"><g
             id="g376" /><g
             id="g388"><g
               clip-path="url(#clipPath380)"
               opacity="0.199997"
               id="g386"><g
                 transform="translate(325.5059,284.9775)"
                 id="g384"><path
                   d="m 0,0 9.643,-8.609 c 0,0 -3.45,-13.529 -10.829,-10.511 C -10.079,-15.481 0,0 0,0"
                   style="fill:#2c2a40;fill-opacity:1;fill-rule:nonzero;stroke:none"
                   id="path382" /></g></g></g></g><g
           id="g390"
           transform="translate(294.7334,359.3638)"><path
             d="M 0,0 42.918,16.023 32.308,44.441 -10.609,28.418 Z"
             style="fill:#2c2a40;fill-opacity:1;fill-rule:nonzero;stroke:none"
             id="path392" /></g><g
           id="g394"
           transform="translate(284.124,387.7822)"><path
             d="m 0,0 10.609,-28.418 42.917,16.022 -1.615,0.459 L 1.219,2.459 0.397,0.803 0.398,0.801 Z"
             style="fill:#2c2a40;fill-opacity:1;fill-rule:nonzero;stroke:none"
             id="path396" /></g><g
           id="g398"
           transform="translate(284.5215,388.5854)"><path
             d="m 0,0 10.132,-27.248 c 0.589,0.22 0.329,0.123 1.3,0.485 L 26.837,-4.94 0.821,1.656 Z"
             style="fill:#ffffff;fill-opacity:1;fill-rule:nonzero;stroke:none"
             id="path400" /></g><g
           id="g402"
           transform="translate(295.9531,361.8228)"><path
             d="M 0,0 41.042,15.323 30.432,43.741 -10.61,28.418 Z"
             style="fill:#2c2a40;fill-opacity:1;fill-rule:nonzero;stroke:none"
             id="path404" /></g><g
           id="g406"
           transform="translate(299.2217,397.7764)"><path
             d="M 0,0 C 0.004,0.004 0.007,0.006 0.007,0.006 0.501,0.588 1.402,0.985 1.96,0.95 2.083,1.515 2.743,1.931 3.484,2.083 3.917,2.171 4.363,2.089 4.756,1.89 c 0.338,0.651 1.188,1.038 1.652,0.779 0,0 0.113,-0.047 0.305,-0.136 0.158,0.485 0.522,0.736 0.522,0.736 L 7.238,3.268 c 0.478,0.674 1.842,1.03 2.364,0.741 0,0 4.543,-1.834 4.975,-5.336 0.434,-3.503 1.075,-7.58 -0.548,-6.999 -0.465,0.167 -0.923,0.747 -1.327,1.534 0.175,-2.103 0.073,-3.674 -0.976,-3.298 -0.584,0.209 -1.158,1.07 -1.627,2.177 0.101,-1.784 -0.077,-3.022 -1.021,-2.684 -0.852,0.305 -1.682,2 -2.202,3.818 0.158,-2.028 0.037,-3.518 -0.989,-3.15 -1.256,0.45 -1.615,3.27 -2.492,5.55 -1.032,2.672 -1.269,1.274 -2.782,2.252 L -0.745,-2.634 C -1.028,-1.075 -0.085,-0.087 0,0"
             style="fill:#f9b587;fill-opacity:1;fill-rule:nonzero;stroke:none"
             id="path408" /></g><g
           id="g410"
           transform="translate(439.8916,268.4697)"><path
             d="m 0,0 c -1.909,1.187 -3.293,3.051 -3.891,5.218 -0.171,0.624 -0.374,1.284 -0.605,1.933 -0.899,2.516 -0.18,7.905 0,10.061 0.18,2.156 1.707,6.288 2.156,6.738 0.448,0.448 3.144,-1.466 2.066,-4.237 -1.079,-2.77 -0.304,-5.849 0.253,-6.735 0.555,-0.886 3.071,0.731 3.7,2.348 0.628,1.617 6.108,13.834 7.185,14.193 1.078,0.359 1.977,0.09 1.258,-3.054 -0.719,-3.144 -4.132,-8.624 -3.683,-10.151 0.45,-1.527 1.258,-0.27 1.528,0.539 0.269,0.808 4.671,12.372 5.389,12.789 0.719,0.416 2.785,1.137 1.706,-3.76 -1.077,-4.897 -4.423,-10.871 -4.221,-11.948 0.202,-1.079 4.783,10.846 6.063,11.52 1.281,0.674 2.224,-0.539 1.213,-3.503 -1.011,-2.965 -3.71,-8.713 -3.935,-9.362 -0.192,-0.547 -0.084,-1.007 0.387,-0.738 0.472,0.27 3.322,7.27 3.974,7.674 0.652,0.405 2.269,-0.337 0.518,-5.12 C 19.309,9.622 18.141,5.383 13.38,0.981 10.441,-1.735 9.001,-3.381 6.238,-2.977 4.584,-2.735 2.066,-1.284 0,0"
             style="fill:#f9b587;fill-opacity:1;fill-rule:nonzero;stroke:none"
             id="path412" /></g><g
           id="g414"
           transform="translate(380.4131,281.9209)"><path
             d="m 0,0 c 0,0 1.174,12.952 -8.996,15.647 -7.293,1.933 -19.65,-11.502 -22.778,-26.589 -5.532,-26.68 7.29,-49.947 15.672,-53 0,0 7.652,5.928 1.819,13.923 0,0 -15.779,15.908 -8.744,38.807 5.859,19.073 15.217,23.984 18.738,14.623 z"
             style="fill:#2c2a40;fill-opacity:1;fill-rule:nonzero;stroke:none"
             id="path416" /></g><g
           id="g418"
           transform="translate(315.4023,266.7554)"><path
             d="m 0,0 4.359,13.408 c 0,0 -0.606,23.424 24.105,29.328 -0.251,0.784 -0.366,1.619 -0.329,2.474 l 0.154,3.571 C 25.197,48.579 -6.303,39.472 0,0"
             style="fill:#2c2a40;fill-opacity:1;fill-rule:nonzero;stroke:none"
             id="path420" /></g><g
           id="g422"
           transform="translate(414.0146,239.4482)"><path
             d="M 0,0 C -0.473,4.212 0,7.814 0,7.814 -0.636,8.508 -1.371,9.184 -2.164,9.836 -3.232,1.571 0,0 0,0"
             style="fill:#f39568;fill-opacity:1;fill-rule:nonzero;stroke:none"
             id="path424" /></g><g
           id="g426"
           transform="translate(314.4707,345.9292)"><path
             d="m 0,0 c 0.452,-0.655 0.935,-1.27 1.449,-1.83 0,0 4.158,2.426 5.358,3.056 C 6.807,1.226 2.97,1.159 0,0"
             style="fill:#f39568;fill-opacity:1;fill-rule:nonzero;stroke:none"
             id="path428" /></g><g
           id="g430"
           transform="translate(381.0479,152.7207)"><path
             d="m 0,0 c 2.231,-2.107 4.037,-7.037 5.209,-11.03 0.003,-0.006 0.003,-0.011 0.006,-0.017 0.951,-3.239 1.482,-5.861 1.482,-5.861 1.984,-2.156 6.508,-1.536 13.782,-2.326 6.545,-0.711 11.132,-5.263 16.013,-7.222 h 0.005 c 0.542,-0.222 1.086,-0.404 1.636,-0.55 2.902,-0.763 4.948,-0.286 6.061,1.118 1.008,1.27 1.253,3.302 0.676,5.865 -1.213,5.4 -14.821,17.257 -18.729,18.836 C 22.233,0.396 19.808,1.317 15.164,5.139 10.523,8.96 5.794,9.222 4.851,7.791 4.692,7.551 4.452,7.171 4.158,6.707 2.709,4.403 0,0 0,0"
             style="fill:#b0b1ca;fill-opacity:1;fill-rule:nonzero;stroke:none"
             id="path432" /></g><g
           id="g434"
           transform="translate(385.2061,159.4277)"><path
             d="m 0,0 c 1.539,0.17 4.143,0.248 5.993,-0.827 2.784,-1.617 6.737,-5.39 10.958,-7.365 4.223,-1.978 12.308,-7.546 16.53,-11.499 4.221,-3.954 6.706,-10.174 5.48,-12.216 -1.227,-2.046 -3.461,-1.973 -6.622,-1.256 0.542,-0.222 1.086,-0.404 1.636,-0.55 5.524,-1.45 7.95,1.582 6.737,6.983 -1.213,5.4 -14.821,17.257 -18.73,18.836 -3.907,1.582 -6.333,2.504 -10.976,6.326 C 6.365,2.253 1.636,2.515 0.692,1.084 0.534,0.844 0.294,0.464 0,0"
             style="fill:#2c2a40;fill-opacity:1;fill-rule:nonzero;stroke:none"
             id="path436" /></g><g
           id="g438"><g
             id="g440" /><g
             id="g452"><g
               clip-path="url(#clipPath444)"
               opacity="0.199997"
               id="g450"><g
                 transform="translate(386.2627,141.6738)"
                 id="g448"><path
                   d="m 0,0 c 0.951,-3.239 1.482,-5.861 1.482,-5.861 1.984,-2.157 6.508,-1.536 13.782,-2.327 6.546,-0.71 11.132,-5.262 16.013,-7.221 h 0.005 c 0.542,-0.222 1.086,-0.404 1.636,-0.55 2.902,-0.763 4.948,-0.286 6.061,1.118 l 0.361,2.124 c 0,0 -4.851,-2.426 -10.418,0.808 -4.264,2.474 -6.187,4.887 -9.609,5.84 0.636,2.59 -0.812,5.39 -0.812,5.39 -0.27,-2.876 -1.063,-4.945 -1.063,-4.945 -0.675,0.097 -1.392,0.132 -2.171,0.094 C 9.707,-5.8 1.029,-3.123 0,0"
                   style="fill:#2c2a40;fill-opacity:1;fill-rule:nonzero;stroke:none"
                   id="path446" /></g></g></g></g><g
           id="g454"
           transform="translate(61.2622,193.0596)"><path
             d="m 0,0 c 1.697,0.097 3.099,0.962 4.302,2.222 0.037,0.038 0.076,0.079 0.114,0.119 0.002,0 0.002,0.003 0.004,0.003 2.096,2.255 3.603,5.688 5.09,8.273 0.433,0.76 0.87,1.447 1.317,2.01 1.402,1.767 3.853,6.425 5.985,10.716 0.108,0.216 0.214,0.434 0.321,0.648 2.074,4.196 3.769,7.87 3.769,7.87 0,0 -0.786,2.302 -2.044,4.666 -0.386,0.726 -0.817,1.457 -1.284,2.132 -0.935,1.353 -2.015,2.467 -3.168,2.821 C 10.813,42.587 7.483,40.203 4.718,36.985 2.011,33.834 -5.438,20.543 -6.652,15.025 -6.678,14.908 -6.702,14.794 -6.721,14.682 -7.983,7.744 -5.617,-0.322 0,0"
             style="fill:#b0b1ca;fill-opacity:1;fill-rule:nonzero;stroke:none"
             id="path456" /></g><g
           id="g458"
           transform="translate(61.2622,193.0596)"><path
             d="m 0,0 c 1.752,0.101 3.187,1.017 4.416,2.341 -3.91,-1.873 -6.292,-0.74 -7.664,0.81 -1.713,1.939 -2.358,7.26 -1.911,9.508 1.089,5.473 5.14,14.054 7.201,17.469 2.06,3.416 6.145,9.053 10.115,9.604 2.273,0.316 4.192,-0.401 5.417,-1.073 -0.935,1.353 -2.015,2.467 -3.168,2.821 C 10.813,42.587 7.483,40.203 4.718,36.985 1.954,33.767 -5.758,19.97 -6.721,14.682 -7.983,7.744 -5.617,-0.322 0,0"
             style="fill:#2c2a40;fill-opacity:1;fill-rule:nonzero;stroke:none"
             id="path460" /></g><g
           id="g462"><g
             id="g464" /><g
             id="g476"><g
               clip-path="url(#clipPath468)"
               opacity="0.199997"
               id="g474"><g
                 transform="translate(61.2622,193.0596)"
                 id="g472"><path
                   d="m 0,0 c 1.697,0.097 3.099,0.962 4.302,2.222 0.037,0.038 0.076,0.079 0.114,0.119 0.002,0 0.002,0.003 0.004,0.003 2.096,2.255 3.603,5.688 5.09,8.273 0.433,0.76 0.87,1.447 1.317,2.01 1.402,1.767 3.853,6.425 5.985,10.716 0.108,0.216 0.214,0.434 0.321,0.648 -0.671,0.789 -1.557,1.133 -2.716,0.81 0,0 -2.788,-2.571 -5.422,-7.858 C 6.1,11.134 4.579,5.617 -0.841,5.57 -6.26,5.521 -5.284,9.079 -6.008,14.204 -6.11,14.919 -6.336,15.152 -6.652,15.025 -6.678,14.908 -6.702,14.794 -6.721,14.682 -7.983,7.744 -5.617,-0.322 0,0"
                   style="fill:#2c2a40;fill-opacity:1;fill-rule:nonzero;stroke:none"
                   id="path470" /></g></g></g></g><g
           id="g478"
           transform="translate(150.9541,144.4355)"><path
             d="m 0,0 c 0.06,-3.004 2.421,-22.883 8.901,-26.904 3.273,-2.031 5.152,-1.951 6.093,-0.434 0.541,0.866 0.776,2.2 0.789,3.876 0.012,1.199 -0.09,2.576 -0.274,4.079 -0.888,7.288 -0.996,24.161 5.413,27.823 0,0 -1.174,8.706 -4.173,14.07 -0.899,1.617 -1.969,2.929 -3.222,3.61 0,0 -4.473,-0.026 -7.287,-0.407 C 5.023,25.548 3.385,25.602 1.85,25.185 -0.167,24.633 -2.007,23.272 -2.483,19.536 -3.324,12.953 -0.062,3.004 0,0"
             style="fill:#b0b1ca;fill-opacity:1;fill-rule:nonzero;stroke:none"
             id="path480" /></g><g
           id="g482"
           transform="translate(150.9541,144.4355)"><path
             d="m 0,0 c 0.06,-3.004 2.421,-22.883 8.901,-26.904 3.273,-2.031 5.152,-1.951 6.093,-0.434 -1.655,-0.069 -3.94,0.48 -5.989,2.239 C 6.189,-22.68 2.647,-9.033 2.855,-4.63 3.066,-0.227 1.248,7.784 -0.346,13.932 -1.554,18.583 0.69,23.211 1.85,25.185 -0.167,24.633 -2.007,23.272 -2.483,19.536 -3.324,12.953 -0.062,3.004 0,0"
             style="fill:#2c2a40;fill-opacity:1;fill-rule:nonzero;stroke:none"
             id="path484" /></g><g
           id="g486"><g
             id="g488" /><g
             id="g500"><g
               clip-path="url(#clipPath492)"
               opacity="0.199997"
               id="g498"><g
                 transform="translate(150.9541,144.4355)"
                 id="g496"><path
                   d="m 0,0 c 0.06,-3.004 2.421,-22.883 8.901,-26.904 3.273,-2.031 5.152,-1.951 6.093,-0.434 0.541,0.866 0.776,2.2 0.789,3.876 -1.238,-0.276 -3.095,0.191 -5.254,1.404 -3.797,2.135 -4.554,13.779 -4.008,21.467 0.545,7.688 -4.05,13.733 -1.408,18.571 2.642,4.839 11.375,3.746 11.375,3.746 0.105,0.268 0.193,0.528 0.261,0.784 -0.899,1.617 -1.969,2.929 -3.222,3.61 0,0 -4.473,-0.026 -7.287,-0.407 C 5.023,25.548 3.385,25.602 1.85,25.185 -0.167,24.633 -2.007,23.272 -2.483,19.536 -3.324,12.953 -0.062,3.004 0,0"
                   style="fill:#2c2a40;fill-opacity:1;fill-rule:nonzero;stroke:none"
                   id="path494" /></g></g></g></g><g
           id="g502"
           transform="translate(151.5156,355.0952)"><path
             d="m 0,0 c 0,0 -39.014,-1.058 -46.458,-19.029 -7.443,-17.971 16.015,-69.438 28.651,-75.615 12.636,-6.176 30.461,1.365 36.5,7.736 C 24.732,-80.537 14.689,-5.423 0,0"
             style="fill:#2c2a40;fill-opacity:1;fill-rule:nonzero;stroke:none"
             id="path504" /></g><g
           id="g506"
           transform="translate(127.1592,307.2095)"><path
             d="m 0,0 c 0,0 -0.059,-7.256 -3.03,-15.151 0,0 -0.874,-5.266 -2.234,-11.793 0,0 -10e-4,-0.002 0.001,-0.003 -1.601,-7.688 -3.158,-13.341 -5.463,-18.015 -1.942,-3.934 -3.348,-7.707 -4.306,-10.652 -0.117,-0.357 -0.226,-0.703 -0.328,-1.032 l -0.001,-0.002 c -0.914,-2.945 -1.32,-4.831 -1.32,-4.831 l -8.558,2.853 c 0,0 -0.533,9.016 -0.377,13.926 0.191,6.086 -0.445,17.982 3.446,27.835 l -10e-4,0.002 c 0.311,0.785 0.647,1.505 1.011,2.146 0,0 1.096,9.714 2.679,16.13 0.526,2.126 1.103,3.889 1.714,4.816 0,0 12.672,1.327 16.767,-6.229"
             style="fill:#f9b587;fill-opacity:1;fill-rule:nonzero;stroke:none"
             id="path508" /></g><g
           id="g510"
           transform="translate(111.5298,291.6084)"><path
             d="m 0,0 c 0,0 -4.981,-0.052 -6.541,-1.264 l -10e-4,0.002 c 0.312,0.785 0.647,1.505 1.011,2.146 0,0 3.827,0.225 5.531,-0.884"
             style="fill:#f39568;fill-opacity:1;fill-rule:nonzero;stroke:none"
             id="path512" /></g><g
           id="g514"
           transform="translate(127.1592,307.2095)"><path
             d="m 0,0 c 0,0 -0.059,-7.256 -3.03,-15.151 0,0 -0.874,-5.266 -2.234,-11.793 0.526,4.914 0.158,13.73 0.259,20.163 0.069,4.391 -3.884,5.421 -7.339,6.662 -1.438,0.516 -4.26,1.051 -5.927,1.6 -0.071,0.023 -0.141,-0.047 -0.21,-0.068 0.526,2.126 1.103,3.889 1.714,4.816 0,0 12.672,1.327 16.767,-6.229"
             style="fill:#f39568;fill-opacity:1;fill-rule:nonzero;stroke:none"
             id="path516" /></g><g
           id="g518"
           transform="translate(109.2134,252.3955)"><path
             d="m 0,0 8.199,-5.814 c 0.868,-0.616 1.392,-1.608 1.41,-2.671 l 0.134,-7.899 c 0.016,-0.941 -0.735,-1.717 -1.676,-1.73 -0.788,-0.013 -1.481,0.518 -1.675,1.282 l -1.89,7.444 -1.935,0.707 1.214,-4.443 1.494,-4.03 3.738,-4.676 c 0.544,-0.68 0.408,-1.677 -0.297,-2.187 -0.615,-0.446 -1.465,-0.37 -1.992,0.178 l -4.925,5.117 -3.295,4.044 2.595,-5.078 5.002,-7.469 c 0.331,-0.495 0.329,-1.14 -0.005,-1.632 -0.513,-0.759 -1.59,-0.863 -2.24,-0.217 l -5.42,5.388 -3.082,4.805 2.708,-8.473 2.399,-5.422 c 0.265,-0.599 0.049,-1.301 -0.507,-1.648 -0.618,-0.385 -1.43,-0.194 -1.813,0.425 l -3.482,5.631 -2.514,6.532 1.62,-5.625 0.891,-1.918 c 0.186,-0.4 0.012,-0.875 -0.387,-1.06 -0.347,-0.162 -0.76,-0.054 -0.983,0.255 l -1.329,1.836 -1.975,4.658 2.763,19.96 c 0,0 1.15,2.736 7.255,3.73"
             style="fill:#f9b587;fill-opacity:1;fill-rule:nonzero;stroke:none"
             id="path520" /></g><g
           id="g522"
           transform="translate(111.7979,250.561)"><path
             d="m 0,0 c 0,0 -2.525,1.507 -5.5,1.128 0,0 3.198,1.207 5.83,-0.093 z"
             style="fill:#f39568;fill-opacity:1;fill-rule:nonzero;stroke:none"
             id="path524" /></g><g
           id="g526"
           transform="translate(189.9277,370.2764)"><path
             d="M 0,0 C 8.726,17.208 5.176,39.809 4.557,45.523 4.502,46.024 4.282,46.721 3.921,47.574 L 3.92,47.577 c -3.308,7.861 -18.289,29.055 -21.7,33.842 -0.231,0.325 -0.41,0.573 -0.529,0.737 -0.107,0.153 -0.164,0.232 -0.164,0.232 l -10.51,-4.895 c 0,0 7.066,-7.388 9.843,-16.663 2.777,-9.275 9.425,-21.431 9.425,-21.431 C -12.642,28.642 -12.862,14.567 -12.862,14.567 -7.779,2.638 0,0 0,0"
             style="fill:#f9b587;fill-opacity:1;fill-rule:nonzero;stroke:none"
             id="path528" /></g><g
           id="g530"
           transform="translate(189.9277,370.2764)"><path
             d="M 0,0 C 8.726,17.208 5.176,39.809 4.557,45.523 4.502,46.024 4.282,46.721 3.921,47.574 3.915,47.29 3.663,29.092 2.478,23.213 1.283,17.288 -0.622,11.067 -4.077,10.235 -7.535,9.402 -10.99,11.365 -12.862,14.567 -7.779,2.638 0,0 0,0"
             style="fill:#f39568;fill-opacity:1;fill-rule:nonzero;stroke:none"
             id="path532" /></g><g
           id="g534"
           transform="translate(171.4248,451.8198)"><path
             d="m 0,0 c -1.406,-1.491 -7.513,-5.631 -8.403,-6.028 -0.311,-0.139 -0.731,0.059 -1.142,0.375 -0.409,-0.011 -3.095,-0.053 -4.551,0.65 -0.8,0.387 -0.76,1.531 -0.52,2.738 -1.932,0.518 -5.647,3.581 -5.524,6.404 0.134,3.076 3.445,3.221 3.445,3.221 0.145,3.532 3.493,2.878 3.493,2.878 0.21,1.534 3.019,2.149 3.019,2.149 0.318,1.303 2.147,1.486 3.217,0.946 C -5.896,12.792 0.357,5.167 0.608,3.792 0.859,2.417 0,0 0,0"
             style="fill:#f9b587;fill-opacity:1;fill-rule:nonzero;stroke:none"
             id="path536" /></g><g
           id="g538"
           transform="translate(161.8389,451.1333)"><path
             d="m 0,0 c 0.423,-1.778 -1.068,-1.969 -1.068,-1.969 0.306,0.222 0.302,0.978 0.234,1.629 0,0 0,0.443 -0.151,0.976 -0.002,0.002 -0.002,0.002 -0.002,0.005 -0.166,0.581 -0.516,1.269 -1.248,1.62 -1.319,0.629 -1.933,0.238 -1.933,0.238 l -2.56,3.656 C -5.38,5.296 -3.606,3.283 -3.606,3.283 -1.249,3.32 -0.412,1.563 -0.13,0.605 0.333,0.63 0.851,0.818 1.052,1.456 1.453,2.73 0.631,3.989 0.631,3.989 l -3.554,4.98 c 0,0 4.898,-4.799 4.966,-6.625 C 2.133,-0.081 0,0 0,0"
             style="fill:#f39568;fill-opacity:1;fill-rule:nonzero;stroke:none"
             id="path540" /></g><g
           id="g542"
           transform="translate(162.6299,461.5488)"><path
             d="M 0,0 C 0,0 3.182,-3.998 3.59,-5.08 4.035,-6.26 3.265,-7.409 2.404,-7.616 1.543,-7.822 1.067,-7.374 1.067,-7.374 L 1.039,-8.608 c 0,0 3.302,-0.596 3.348,2.551 C 4.409,-4.483 0,0 0,0"
             style="fill:#f39568;fill-opacity:1;fill-rule:nonzero;stroke:none"
             id="path544" /></g><g
           id="g546"
           transform="translate(166.8252,456.2236)"><path
             d="m 0,0 c 0,0 0.784,-0.787 1.76,-0.498 0.977,0.29 1.193,0.94 0.98,1.544 0,0 0.574,-0.593 0.05,-1.427 C 2.107,-1.466 0.483,-1.227 -0.027,-1.08 Z"
             style="fill:#f39568;fill-opacity:1;fill-rule:nonzero;stroke:none"
             id="path548" /></g><g
           id="g550"
           transform="translate(170.1646,450.3901)"><path
             d="M 0,0 C 0,0 1.199,0.217 1.983,1.306 1.752,1.63 1.573,1.878 1.455,2.042 1.455,2.042 0.978,0.999 0,0"
             style="fill:#f39568;fill-opacity:1;fill-rule:nonzero;stroke:none"
             id="path552" /></g><g
           id="g554"
           transform="translate(162.6807,445.7573)"><path
             d="m 0,0 c 0,0 1.537,0.13 2.409,0.679 0,0 -0.811,-1.06 -1.904,-1.314 z"
             style="fill:#f39568;fill-opacity:1;fill-rule:nonzero;stroke:none"
             id="path556" /></g><g
           id="g558"
           transform="translate(180.2124,409.6758)"><path
             d="m 0,0 c 0,0 4.6,0.699 6.166,2.005 0,0 -1.677,-3.955 -6.693,-4.102 z"
             style="fill:#f39568;fill-opacity:1;fill-rule:nonzero;stroke:none"
             id="path560" /></g><g
           id="g562"
           transform="translate(74.8081,210.8037)"><path
             d="M 0,0 C 1.854,-1.379 1.001,-1.694 2.831,-2.684 4.604,-3.643 9.257,-7.454 9.546,-7.69 9.554,-7.697 9.56,-7.702 9.56,-7.702 21.726,-20.62 42.233,-40.723 53.346,-42.25 63.822,-43.689 79.434,-14.306 89.407,7.265 l 0.002,0.003 c 0.106,0.158 4.172,6.152 10.245,4.386 6.153,-1.79 28.826,-23.072 39.263,-28.457 0,0 -13.986,-0.716 -18.556,-6.578 -4.57,-5.862 -17.308,-11.466 -19.619,-12.393 -2.312,-0.927 -3.519,0.109 -5.668,-1.307 -2.149,-1.417 -5.401,-3.167 -5.401,-3.167 -0.087,-6.529 2.348,-12.182 7.115,-17.852 0,0 1.987,1.074 3.892,1.637 2.648,0.782 8.228,2.253 9.218,4.083 0.989,1.83 35.457,9.081 35.457,9.081 0,0 26.479,5.248 28.536,17.815 2.056,12.566 -51.708,69.037 -51.708,69.037 l -4.161,18.11 -19.407,-3.211 -10e-4,0.007 -35.423,-2.684 c 0,0 -6.058,-16.284 -7.765,-30.969 -1.143,-9.829 -7.646,-33.183 -7.646,-33.183 0,0 -5.993,6.161 -17.653,11.149 -2.98,1.276 -6.052,2.667 -8.973,4.031 l 0.002,0.003 c 0,0 -4.42,2.219 -5.961,4.359 -1.541,2.14 -2.482,1.316 -4.149,1.816 C 9.378,13.482 7.971,15.507 6.859,15.297 5.747,15.087 5.417,14.541 5.417,14.541 2.58,11.867 1.297,10.111 -0.589,3.575 -0.589,3.575 -1.854,1.379 0,0"
             style="fill:#2c2a40;fill-opacity:1;fill-rule:nonzero;stroke:none"
             id="path564" /></g><g
           id="g566"
           transform="translate(106.4946,207.1211)"><path
             d="M 0,0 -0.404,-0.632 C 0.422,-1.16 1.311,-1.781 2.238,-2.478 l 0.451,0.6 C 1.746,-1.171 0.842,-0.538 0,0"
             style="fill:#5b5b6c;fill-opacity:1;fill-rule:nonzero;stroke:none"
             id="path568" /></g><g
           id="g570"
           transform="translate(101.6294,209.7549)"><path
             d="m 0,0 -0.351,-0.663 c 0.8,-0.424 1.571,-0.816 2.292,-1.169 0.201,-0.098 0.403,-0.2 0.605,-0.308 l 0.352,0.662 C 2.688,-1.366 2.478,-1.259 2.271,-1.157 1.557,-0.81 0.792,-0.42 0,0"
             style="fill:#5b5b6c;fill-opacity:1;fill-rule:nonzero;stroke:none"
             id="path572" /></g><g
           id="g574"
           transform="translate(96.4614,211.7891)"><path
             d="m 0,0 c 0.962,-0.565 1.915,-1.11 2.831,-1.62 l 0.364,0.656 C 2.284,-0.458 1.337,0.084 0.38,0.646 Z"
             style="fill:#5b5b6c;fill-opacity:1;fill-rule:nonzero;stroke:none"
             id="path576" /></g><g
           id="g578"
           transform="translate(110.4985,203.2666)"><path
             d="m 0,0 c 0.78,-0.63 1.593,-1.311 2.484,-2.08 l 0.491,0.566 C 2.077,-0.737 1.258,-0.052 0.471,0.584 Z"
             style="fill:#5b5b6c;fill-opacity:1;fill-rule:nonzero;stroke:none"
             id="path580" /></g><g
           id="g582"
           transform="translate(119.2646,196.5859)"><path
             d="M 0,0 -0.495,-0.563 C 0.58,-1.507 1.289,-2.077 1.804,-2.41 1.921,-2.486 2.042,-2.553 2.161,-2.609 L 2.479,-1.93 C 2.39,-1.888 2.3,-1.838 2.211,-1.78 1.728,-1.468 1.046,-0.919 0,0"
             style="fill:#5b5b6c;fill-opacity:1;fill-rule:nonzero;stroke:none"
             id="path584" /></g><g
           id="g586"
           transform="translate(123.5522,194.7861)"><path
             d="m 0,0 0.365,-0.655 c 0.791,0.439 1.594,1.25 2.387,2.409 L 2.133,2.178 C 1.406,1.115 0.688,0.383 0,0"
             style="fill:#5b5b6c;fill-opacity:1;fill-rule:nonzero;stroke:none"
             id="path588" /></g><g
           id="g590"
           transform="translate(115.1689,200.2627)"><path
             d="M 0,0 -0.499,-0.56 C 0.21,-1.191 0.889,-1.805 1.527,-2.382 l 0.39,-0.352 0.503,0.556 -0.39,0.353 C 1.39,-1.247 0.71,-0.632 0,0"
             style="fill:#5b5b6c;fill-opacity:1;fill-rule:nonzero;stroke:none"
             id="path592" /></g><g
           id="g594"
           transform="translate(91.7573,214.6738)"><path
             d="m 0,0 c 0.892,-0.57 1.822,-1.151 2.767,-1.726 l 0.39,0.641 C 2.217,-0.513 1.291,0.064 0.404,0.632 Z"
             style="fill:#5b5b6c;fill-opacity:1;fill-rule:nonzero;stroke:none"
             id="path596" /></g><g
           id="g598"
           transform="translate(78.772,222.4785)"><path
             d="m 0,0 c -0.19,-0.223 -0.377,-0.447 -0.56,-0.677 0.586,-0.081 1.446,-0.219 2.382,-0.439 l 0.171,0.73 C 1.246,-0.211 0.554,-0.086 0,0"
             style="fill:#5b5b6c;fill-opacity:1;fill-rule:nonzero;stroke:none"
             id="path600" /></g><g
           id="g602"
           transform="translate(82.9688,221.4443)"><path
             d="M 0,0 -0.259,-0.704 C 0.842,-1.109 1.684,-1.58 2.242,-2.102 2.295,-2.151 2.351,-2.203 2.411,-2.256 l 0.499,0.56 C 2.855,-1.646 2.803,-1.6 2.754,-1.554 2.123,-0.963 1.196,-0.44 0,0"
             style="fill:#5b5b6c;fill-opacity:1;fill-rule:nonzero;stroke:none"
             id="path604" /></g><g
           id="g606"
           transform="translate(87.6211,218.3779)"><path
             d="M 0,0 -0.442,-0.605 C 0.319,-1.161 1.223,-1.789 2.244,-2.47 L 2.66,-1.846 C 1.648,-1.171 0.753,-0.55 0,0"
             style="fill:#5b5b6c;fill-opacity:1;fill-rule:nonzero;stroke:none"
             id="path608" /></g><g
           id="g610"
           transform="translate(136.856,241.5215)"><path
             d="M 0,0 0.725,-0.191 C 1.001,0.856 1.282,1.906 1.567,2.951 L 0.843,3.148 C 0.558,2.101 0.276,1.05 0,0"
             style="fill:#5b5b6c;fill-opacity:1;fill-rule:nonzero;stroke:none"
             id="path612" /></g><g
           id="g614"
           transform="translate(138.2993,246.8447)"><path
             d="m 0,0 0.722,-0.202 c 0.294,1.054 0.59,2.098 0.887,3.13 L 0.888,3.135 C 0.591,2.103 0.294,1.056 0,0"
             style="fill:#5b5b6c;fill-opacity:1;fill-rule:nonzero;stroke:none"
             id="path616" /></g><g
           id="g618"
           transform="translate(134.2378,230.8076)"><path
             d="M 0,0 0.732,-0.163 C 0.959,0.86 1.204,1.926 1.46,3.005 L 0.73,3.178 C 0.474,2.096 0.228,1.026 0,0"
             style="fill:#5b5b6c;fill-opacity:1;fill-rule:nonzero;stroke:none"
             id="path620" /></g><g
           id="g622"
           transform="translate(135.4966,236.1797)"><path
             d="M 0,0 0.729,-0.179 C 0.979,0.844 1.246,1.905 1.52,2.975 L 0.793,3.161 C 0.519,2.089 0.252,1.025 0,0"
             style="fill:#5b5b6c;fill-opacity:1;fill-rule:nonzero;stroke:none"
             id="path624" /></g><g
           id="g626"
           transform="translate(139.8184,252.1455)"><path
             d="M 0,0 0.719,-0.212 C 1.032,0.85 1.344,1.891 1.652,2.904 L 0.935,3.123 C 0.625,2.107 0.313,1.064 0,0"
             style="fill:#5b5b6c;fill-opacity:1;fill-rule:nonzero;stroke:none"
             id="path628" /></g><g
           id="g630"
           transform="translate(126.8091,198.8604)"><path
             d="M 0,0 0.665,-0.347 C 1.128,0.542 1.585,1.55 2.022,2.649 L 1.326,2.927 C 0.897,1.851 0.451,0.866 0,0"
             style="fill:#5b5b6c;fill-opacity:1;fill-rule:nonzero;stroke:none"
             id="path632" /></g><g
           id="g634"
           transform="translate(143.1196,262.6758)"><path
             d="M 0,0 0.71,-0.24 C 1.089,0.879 1.45,1.91 1.783,2.825 L 1.079,3.082 C 0.743,2.162 0.38,1.125 0,0"
             style="fill:#5b5b6c;fill-opacity:1;fill-rule:nonzero;stroke:none"
             id="path636" /></g><g
           id="g638"
           transform="translate(141.418,257.4248)"><path
             d="M 0,0 0.716,-0.224 C 1.05,0.847 1.383,1.889 1.704,2.875 L 0.991,3.106 C 0.668,2.119 0.335,1.073 0,0"
             style="fill:#5b5b6c;fill-opacity:1;fill-rule:nonzero;stroke:none"
             id="path640" /></g><g
           id="g642"
           transform="translate(128.9077,203.8818)"><path
             d="M 0,0 0.709,-0.243 C 1.049,0.748 1.375,1.8 1.679,2.883 L 0.957,3.086 C 0.657,2.017 0.335,0.979 0,0"
             style="fill:#5b5b6c;fill-opacity:1;fill-rule:nonzero;stroke:none"
             id="path644" /></g><g
           id="g646"
           transform="translate(133.1201,225.3994)"><path
             d="M 0,0 0.737,-0.139 C 0.924,0.857 1.139,1.929 1.374,3.047 L 0.64,3.201 C 0.403,2.078 0.188,1.001 0,0"
             style="fill:#5b5b6c;fill-opacity:1;fill-rule:nonzero;stroke:none"
             id="path648" /></g><g
           id="g650"
           transform="translate(130.4326,209.1328)"><path
             d="M 0,0 0.729,-0.179 C 0.984,0.863 1.221,1.937 1.434,3.013 L 0.699,3.158 C 0.488,2.094 0.252,1.031 0,0"
             style="fill:#5b5b6c;fill-opacity:1;fill-rule:nonzero;stroke:none"
             id="path652" /></g><g
           id="g654"
           transform="translate(131.5342,214.4951)"><path
             d="M 0,0 0.739,-0.124 C 0.92,0.951 1.078,2.039 1.21,3.11 L 0.465,3.202 C 0.335,2.142 0.178,1.064 0,0"
             style="fill:#5b5b6c;fill-opacity:1;fill-rule:nonzero;stroke:none"
             id="path656" /></g><g
           id="g658"
           transform="translate(132.2515,219.9336)"><path
             d="M 0,0 0.745,-0.089 C 0.859,0.868 1.017,1.946 1.212,3.115 L 0.472,3.239 C 0.275,2.059 0.116,0.969 0,0"
             style="fill:#5b5b6c;fill-opacity:1;fill-rule:nonzero;stroke:none"
             id="path660" /></g><g
           id="g662"
           transform="translate(178.0518,226.1533)"><path
             d="m 0,0 c -1.115,0.028 -2.237,-0.129 -3.324,-0.465 l 0.221,-0.716 c 1.009,0.312 2.05,0.457 3.084,0.431 z"
             style="fill:#5b5b6c;fill-opacity:1;fill-rule:nonzero;stroke:none"
             id="path664" /></g><g
           id="g666"
           transform="translate(183.0854,223.9287)"><path
             d="M 0,0 0.371,0.652 C 0.072,0.821 -0.212,0.97 -0.475,1.094 -1.219,1.445 -1.978,1.719 -2.728,1.906 L -2.91,1.179 C -2.207,1.003 -1.495,0.746 -0.794,0.416 -0.549,0.3 -0.282,0.16 0,0"
             style="fill:#5b5b6c;fill-opacity:1;fill-rule:nonzero;stroke:none"
             id="path668" /></g><g
           id="g670"
           transform="translate(185.0312,175.9727)"><path
             d="M 0,0 0.334,-0.672 C 1.312,-0.186 2.29,0.313 3.241,0.812 L 2.893,1.477 C 1.946,0.98 0.973,0.483 0,0"
             style="fill:#5b5b6c;fill-opacity:1;fill-rule:nonzero;stroke:none"
             id="path672" /></g><g
           id="g674"
           transform="translate(189.9058,178.5098)"><path
             d="m 0,0 0.359,-0.658 c 1.012,0.552 1.969,1.092 2.845,1.605 L 2.824,1.595 C 1.955,1.084 1.004,0.548 0,0"
             style="fill:#5b5b6c;fill-opacity:1;fill-rule:nonzero;stroke:none"
             id="path676" /></g><g
           id="g678"
           transform="translate(194.645,181.2676)"><path
             d="M 0,0 0.401,-0.634 C 1.525,0.077 2.435,0.711 3.106,1.251 L 2.635,1.835 C 1.987,1.313 1.1,0.695 0,0"
             style="fill:#5b5b6c;fill-opacity:1;fill-rule:nonzero;stroke:none"
             id="path680" /></g><g
           id="g682"
           transform="translate(166.2725,166.502)"><path
             d="M 0,0 C 0.675,0.468 1.333,0.901 1.964,1.293 L 1.569,1.93 C 1.012,1.585 0.435,1.205 -0.156,0.802 -0.106,0.534 -0.053,0.267 0,0"
             style="fill:#5b5b6c;fill-opacity:1;fill-rule:nonzero;stroke:none"
             id="path684" /></g><g
           id="g686"
           transform="translate(169.8149,169.5693)"><path
             d="M 0,0 0.351,-0.662 C 1.435,-0.089 2.417,0.332 3.27,0.589 L 3.054,1.307 C 2.154,1.036 1.126,0.597 0,0"
             style="fill:#5b5b6c;fill-opacity:1;fill-rule:nonzero;stroke:none"
             id="path688" /></g><g
           id="g690"
           transform="translate(189.2759,219.3691)"><path
             d="m 0,0 c 0.758,-0.632 1.59,-1.341 2.471,-2.106 l 0.492,0.565 c -0.885,0.77 -1.72,1.482 -2.483,2.117 z"
             style="fill:#5b5b6c;fill-opacity:1;fill-rule:nonzero;stroke:none"
             id="path692" /></g><g
           id="g694"
           transform="translate(175.0059,171.5264)"><path
             d="M 0,0 0.251,-0.706 C 1.115,-0.399 2.141,0.007 3.3,0.498 L 3.007,1.188 C 1.861,0.703 0.85,0.303 0,0"
             style="fill:#5b5b6c;fill-opacity:1;fill-rule:nonzero;stroke:none"
             id="path696" /></g><g
           id="g698"
           transform="translate(180.0688,173.6162)"><path
             d="m 0,0 0.308,-0.684 c 0.951,0.428 1.947,0.892 2.959,1.377 L 2.943,1.37 C 1.936,0.887 0.946,0.426 0,0"
             style="fill:#5b5b6c;fill-opacity:1;fill-rule:nonzero;stroke:none"
             id="path700" /></g><g
           id="g702"
           transform="translate(172.144,223.6309)"><path
             d="M 0,0 C 0.246,0.163 0.515,0.328 0.808,0.489 L 0.447,1.146 C -0.082,0.855 -0.539,0.554 -0.919,0.273 -0.614,0.18 -0.308,0.088 0,0"
             style="fill:#5b5b6c;fill-opacity:1;fill-rule:nonzero;stroke:none"
             id="path704" /></g><g
           id="g706"
           transform="translate(185.3823,223.3457)"><path
             d="M 0,0 -0.43,-0.614 C 0.335,-1.15 1.204,-1.804 2.153,-2.558 L 2.62,-1.971 C 1.659,-1.207 0.777,-0.544 0,0"
             style="fill:#5b5b6c;fill-opacity:1;fill-rule:nonzero;stroke:none"
             id="path708" /></g><g
           id="g710"
           transform="translate(217.7202,190.0488)"><path
             d="m 0,0 c -0.359,-0.268 -1.215,-0.583 -2.615,-0.964 l 0.197,-0.723 c 1.534,0.416 2.418,0.751 2.866,1.085 0.092,0.069 0.182,0.141 0.269,0.218 L 0.223,0.18 C 0.15,0.116 0.076,0.057 0,0"
             style="fill:#5b5b6c;fill-opacity:1;fill-rule:nonzero;stroke:none"
             id="path712" /></g><g
           id="g714"
           transform="translate(210.4067,201.7363)"><path
             d="m 0,0 -0.469,-0.585 c 1.003,-0.806 1.861,-1.451 2.622,-1.976 l 0.426,0.619 C 1.833,-1.429 0.989,-0.794 0,0"
             style="fill:#5b5b6c;fill-opacity:1;fill-rule:nonzero;stroke:none"
             id="path716" /></g><g
           id="g718"
           transform="translate(214.8892,198.6562)"><path
             d="M 0,0 -0.024,0.012 -0.346,-0.666 -0.32,-0.679 C 0.735,-1.174 1.628,-1.725 2.332,-2.315 L 2.814,-1.74 C 2.06,-1.108 1.113,-0.522 0,0"
             style="fill:#5b5b6c;fill-opacity:1;fill-rule:nonzero;stroke:none"
             id="path720" /></g><g
           id="g722"
           transform="translate(219.2583,195.1328)"><path
             d="m 0,0 -0.647,-0.38 c 0.251,-0.427 0.417,-0.866 0.495,-1.307 0.091,-0.513 0.065,-1.026 -0.08,-1.523 l 0.72,-0.21 c 0.177,0.609 0.21,1.236 0.099,1.864 C 0.493,-1.027 0.295,-0.504 0,0"
             style="fill:#5b5b6c;fill-opacity:1;fill-rule:nonzero;stroke:none"
             id="path724" /></g><g
           id="g726"
           transform="translate(211.3232,188.1504)"><path
             d="m 0,0 c -0.507,-0.12 -1.029,-0.244 -1.559,-0.372 l 0.176,-0.729 c 0.529,0.127 1.05,0.251 1.556,0.371 0.556,0.132 1.095,0.26 1.61,0.384 L 1.607,0.384 C 1.093,0.259 0.555,0.131 0,0"
             style="fill:#5b5b6c;fill-opacity:1;fill-rule:nonzero;stroke:none"
             id="path728" /></g><g
           id="g730"
           transform="translate(204.4204,186.3701)"><path
             d="m 0,0 0.215,-0.719 c 0.928,0.279 1.95,0.56 3.123,0.86 L 3.153,0.867 C 1.969,0.564 0.937,0.281 0,0"
             style="fill:#5b5b6c;fill-opacity:1;fill-rule:nonzero;stroke:none"
             id="path732" /></g><g
           id="g734"
           transform="translate(199.2192,184.377)"><path
             d="m 0,0 0.347,-0.665 c 0.804,0.421 1.795,0.841 2.945,1.249 L 3.042,1.291 C 1.841,0.864 0.847,0.442 0,0"
             style="fill:#5b5b6c;fill-opacity:1;fill-rule:nonzero;stroke:none"
             id="path736" /></g><g
           id="g738"
           transform="translate(199.7471,211.1016)"><path
             d="M 0,0 C -0.57,0.519 -1.142,1.038 -1.713,1.556 L -2.217,1 c 0.571,-0.518 1.143,-1.037 1.713,-1.555 l 0.697,-0.633 0.504,0.555 z"
             style="fill:#5b5b6c;fill-opacity:1;fill-rule:nonzero;stroke:none"
             id="path740" /></g><g
           id="g742"
           transform="translate(201.6099,208.3984)"><path
             d="m 0,0 c 0.819,-0.741 1.628,-1.471 2.421,-2.179 l 0.5,0.56 c -0.792,0.707 -1.6,1.435 -2.418,2.176 z"
             style="fill:#5b5b6c;fill-opacity:1;fill-rule:nonzero;stroke:none"
             id="path744" /></g><g
           id="g746"
           transform="translate(208.6743,203.165)"><path
             d="M 0,0 C -0.752,0.634 -1.557,1.328 -2.459,2.121 L -2.954,1.558 c 0.906,-0.796 1.714,-1.494 2.471,-2.132 z"
             style="fill:#5b5b6c;fill-opacity:1;fill-rule:nonzero;stroke:none"
             id="path748" /></g><g
           id="g750"
           transform="translate(196.3633,214.168)"><path
             d="M 0,0 C -0.817,0.735 -1.628,1.463 -2.428,2.171 L -2.925,1.609 c 0.798,-0.707 1.608,-1.432 2.423,-2.167 z"
             style="fill:#5b5b6c;fill-opacity:1;fill-rule:nonzero;stroke:none"
             id="path752" /></g><g
           id="g754"
           transform="translate(200.02,255.6299)"><path
             d="m 0,0 c 0,0 -35.5,-11.56 -54.67,-6.38 -1.43,0.39 -13.09,2.75 -13.09,2.75 0,0 6.58,24.98 4.74,41.57 -0.48,4.4 -1.52,13.08 -4.63,20.96 -1.11,2.82 -2.25,5.69 -3.37,8.48 -3.33,8.26 -6.43,15.79 -7.8,19.09 2.85,1.97 5.18,2.48 5.72,2.58 0.08,0.01 0.11,0.01 0.11,0.01 3.15,0.53 7.17,1.36 11.46,2.65 h 0.01 c 5.52,1.68 11.49,4.12 16.66,7.68 l 4.8,2.67 5.04,2.81 c 0,0 6.2,-2.24 12.64,-11.44 -1.66,-1.97 -3.44,-3.79 -5.35,-5.36 2.84,-1.78 5.21,-2.62 5.21,-2.62 1.23,0.69 2.39,1.54 3.49,2.53 4.08,-7.56 7.82,-18.34 9.65,-33.59 1.65,-13.85 4.56,-30.01 6.71,-41.1 C -1.14,5.34 0,0 0,0"
             style="fill:#84519e;fill-opacity:1;fill-rule:nonzero;stroke:none"
             id="path756" /></g><g
           id="g758"
           transform="translate(148,341.5)"><path
             d="m 0,0 c -6.58,0.56 -8.09,3.7 -9.5,5.84 5.52,1.68 11.49,4.12 16.66,7.68 l 3.148,1.768 c 0.9,0 3.123,-1.657 3.123,-4.984 C 13.431,5.833 8.75,-0.75 0,0"
             style="fill:#2c2a40;fill-opacity:1;fill-rule:nonzero;stroke:none"
             id="path760" /></g><g
           id="g762"><g
             id="g764" /><g
             id="g776"><g
               clip-path="url(#clipPath768)"
               opacity="0.199997"
               id="g774"><g
                 transform="translate(169.0527,331.9849)"
                 id="g772"><path
                   d="m 0,0 11.547,5.17 c 0,0 8.976,-13.487 1.659,-16.126 C 5.341,-13.792 0,0 0,0"
                   style="fill:#2c2a40;fill-opacity:1;fill-rule:nonzero;stroke:none"
                   id="path770" /></g></g></g></g><g
           id="g778"
           transform="translate(156.7178,387.7734)"><path
             d="m 0,0 c 0,0 4.849,3.671 2.862,11.042 0,0 -1.628,-2.797 -3.106,-3.077 0,0 3.748,10.146 -7.712,15.796 0,0 1.342,-5.581 -0.021,-7.439 0,0 -3.025,6.456 -7.511,7.788 0,0 0.675,-11.315 -6.34,-13.602 -5.003,-1.631 -11.47,-7.442 -13.253,-16.994 0,0 -2.905,0.84 -3.989,-0.302 0,0 3.725,-0.628 4.239,-3.004 0,0 -1.564,0.792 -2.742,-0.207 0,0 2.632,-0.544 3.039,-2.603 0.407,-2.058 10.37,-17.795 16.38,-20.418 C -12.146,-35.642 0,0 0,0"
             style="fill:#2c2a40;fill-opacity:1;fill-rule:nonzero;stroke:none"
             id="path780" /></g><g
           id="g782"
           transform="translate(141.1719,352.3657)"><path
             d="m 0,0 0.801,-4.616 c 0.204,-1.173 1.071,-2.128 2.223,-2.428 9.941,-2.59 14.323,3.586 14.817,5.979 -1.279,0.511 -24.051,9.723 -27.781,18.456 0,0 2.4,-11.74 9.94,-17.391"
             style="fill:#f9b587;fill-opacity:1;fill-rule:nonzero;stroke:none"
             id="path784" /></g><g
           id="g786"
           transform="translate(159.5952,378.1113)"><path
             d="m 0,0 c 0.82,-1.14 1.439,-2.4 1.836,-3.73 0.347,-1.148 0.53,-2.349 0.535,-3.563 l 0.037,-8.073 c 0.013,-3.003 -1.887,-5.682 -4.728,-6.655 -3.257,-1.113 -7.819,-2.06 -12.494,-1.043 -8.821,1.918 -13.041,12.604 -13.041,12.604 0,0 -3.675,11.079 3.723,18.718 5.125,5.293 12.002,6.332 15.744,6.471 1.604,0.059 3.108,-0.777 3.893,-2.178 l 2.833,-5.059 c 0.225,-0.401 0.427,-0.811 0.604,-1.232 0.6,-1.411 0.938,-2.924 0.995,-4.466 z"
             style="fill:#f9b587;fill-opacity:1;fill-rule:nonzero;stroke:none"
             id="path788" /></g><g
           id="g790"
           transform="translate(149.1211,383.2529)"><path
             d="m 0,0 c 0,0 -7.002,2.958 -8.745,-2.862 l 1.078,-0.892 c 0,0 2.322,4.448 7.896,2.21 z"
             style="fill:#2c2a40;fill-opacity:1;fill-rule:nonzero;stroke:none"
             id="path792" /></g><g
           id="g794"
           transform="translate(159.5952,378.1113)"><path
             d="m 0,0 c 0.82,-1.14 1.439,-2.4 1.836,-3.73 -1.388,0.345 -3.826,0.132 -7.992,-2.189 0,0 1.61,2.842 3.949,3.807 0.628,0.259 0.827,1.051 0.395,1.576 l -2.895,3.514 c 0,0 0.159,0.99 1.042,1.685 0.54,0.424 1.663,1.121 2.607,1.597 0.6,-1.411 0.938,-2.924 0.995,-4.466 z"
             style="fill:#f39568;fill-opacity:1;fill-rule:nonzero;stroke:none"
             id="path796" /></g><g
           id="g798"
           transform="translate(157.8403,385.498)"><path
             d="m 0,0 c -1.664,-0.782 -2.846,-1.807 -2.846,-1.807 l 0.358,-1.375 c 1.056,0.889 2.076,1.449 3.025,1.783 0.469,0.165 0.714,0.662 0.529,1.065 -0.003,0.005 -0.004,0.01 -0.007,0.015 C 0.89,0.051 0.415,0.195 0,0"
             style="fill:#2c2a40;fill-opacity:1;fill-rule:nonzero;stroke:none"
             id="path800" /></g><g
           id="g802"
           transform="translate(160.0415,371.0444)"><path
             d="m 0,0 -12.477,-3.575 c 0,0 3.925,-5.953 10.259,-3.28 C 2.749,-4.759 0,0 0,0"
             style="fill:#ffffff;fill-opacity:1;fill-rule:nonzero;stroke:none"
             id="path804" /></g><g
           id="g806"
           transform="translate(156.4775,356.0259)"><path
             d="m 0,0 c 0,0 -7.824,-1.994 -15.906,6.822 0,0 -0.358,-4.557 3.981,-9.205 4.338,-4.649 14.46,-2.342 14.46,-2.342 z"
             style="fill:#f39568;fill-opacity:1;fill-rule:nonzero;stroke:none"
             id="path808" /></g><g
           id="g810"
           transform="translate(134.1475,370.6245)"><path
             d="M 0,0 C 0,0 -3.959,3.433 -6.506,0.194 -9.053,-3.044 -3.344,-12.183 0.731,-8.454 4.807,-4.725 0,0 0,0"
             style="fill:#f9b587;fill-opacity:1;fill-rule:nonzero;stroke:none"
             id="path812" /></g><g
           id="g814"
           transform="translate(149.1201,378.8579)"><path
             d="M 0,0 C 0,0 -1.545,1.87 -3.471,1.126 -6.279,0.042 -5.889,-2.54 -5.889,-2.54 c 0,0 1.254,4.811 5.889,2.54"
             style="fill:#2c2a40;fill-opacity:1;fill-rule:nonzero;stroke:none"
             id="path816" /></g><g
           id="g818"
           transform="translate(156.0171,379.832)"><path
             d="M 0,0 C 0,0 1.03,3.056 3.27,0.715 3.27,0.715 1.277,1.993 0,0"
             style="fill:#2c2a40;fill-opacity:1;fill-rule:nonzero;stroke:none"
             id="path820" /></g><g
           id="g822"
           transform="translate(132.6172,383.061)"><path
             d="m 0,0 c 0,0 3.036,-3.671 0.569,-7.504 l 2.555,-5.876 -2.644,-0.679 -2.196,3.26 -1.698,8.424 c 0,0 2.049,3.854 3.414,2.375"
             style="fill:#2c2a40;fill-opacity:1;fill-rule:nonzero;stroke:none"
             id="path824" /></g><g
           id="g826"
           transform="translate(196.8198,377.25)"><path
             d="m 0,0 c 0,0 -0.32,-1.6 -0.98,-4.14 -2.15,-8.2 -7.92,-26.19 -18.34,-32.03 0,0 -2.37,0.84 -5.21,2.62 -4.39,2.75 -9.89,7.72 -9.39,15.24 0,0 8.94,14.85 12.73,25.3 0.35,0.95 0.65,1.87 0.9,2.74 L -3.67,1.76 Z"
             style="fill:#84519e;fill-opacity:1;fill-rule:nonzero;stroke:none"
             id="path828" /></g><g
           id="g830"
           transform="translate(196.8198,377.25)"><path
             d="m 0,0 c 0,0 -0.32,-1.6 -0.98,-4.14 -3.9,3.02 -16.29,9.2 -20.21,11.13 0.35,0.95 0.65,1.87 0.9,2.74 L -3.67,1.76 Z"
             style="fill:#2c2a40;fill-opacity:1;fill-rule:nonzero;stroke:none"
             id="path832" /></g><g
           id="g834"><g
             id="g836" /><g
             id="g848"><g
               clip-path="url(#clipPath840)"
               opacity="0.199997"
               id="g846"><g
                 transform="translate(196.8228,377.2505)"
                 id="g844"><path
                   d="m 0,0 c 0,0 -4.698,-23.631 -15.834,-33.639 -1.102,2.043 -2.228,3.852 -3.35,5.45 8.472,10.096 13.662,24.298 15.507,29.95 z"
                   style="fill:#2c2a40;fill-opacity:1;fill-rule:nonzero;stroke:none"
                   id="path842" /></g></g></g></g><g
           id="g850"
           transform="translate(134.0498,329.0898)"><path
             d="M 0,0 C -0.31,-1.96 -0.69,-3.3 -0.69,-3.3 L -1.68,-14.56 -2.8,-25.4 -3.12,-28.54 c -1.89,-2.65 -8.29,-2.89 -14.34,-2.45 v 0.01 c -6.35,0.46 -12.32,1.68 -12.32,1.68 0,0 0.16,1.22 0.52,3.31 0.86,5.04 2.89,15.16 6.71,25.54 2.68,7.26 6.51,11.27 9.7,13.46 2.85,1.97 5.18,2.48 5.72,2.58 0.08,0.01 0.11,0.01 0.11,0.01 C 1.2,14.83 0.82,5.21 0,0"
             style="fill:#84519e;fill-opacity:1;fill-rule:nonzero;stroke:none"
             id="path852" /></g><g
           id="g854"
           transform="translate(131.25,303.6899)"><path
             d="m 0,0 -0.32,-3.14 c -1.89,-2.65 -8.29,-2.89 -14.34,-2.45 v 0.01 c -6.35,0.46 -12.32,1.68 -12.32,1.68 0,0 0.16,1.22 0.52,3.31 2.65,-0.7 8.96,-1.609 14.574,-1.683 C -5.583,-2.356 -1.92,-0.86 0,0"
             style="fill:#2c2a40;fill-opacity:1;fill-rule:nonzero;stroke:none"
             id="path856" /></g><g
           id="g858"
           transform="translate(156.5708,355.8096)"><path
             d="m 0,0 c 0,0 12.98,1.984 21.223,-5.354 8.246,-7.335 16.432,-22.726 11.448,-31.961 l 2.019,-13.376 c 0,0 13.575,21.324 -0.99,41.983 C 23.899,5.191 11.373,5.53 5.042,4.597 4.353,2.616 2.799,1.125 0.74,0.412 Z"
             style="fill:#2c2a40;fill-opacity:1;fill-rule:nonzero;stroke:none"
             id="path860" /></g><g
           id="g862"
           transform="translate(125.2666,344.2139)"><path
             d="m 0,0 c 0,0 3.718,8.491 10.645,7.512 6.927,-0.979 27.667,-29.159 23.278,-49.884 -4.388,-20.724 -22.316,-22.927 -22.316,-22.927 0,0 -3.472,5.261 0.43,10.154 0,0 11.781,2.89 14.961,16.381 C 30.178,-25.272 14.147,2.095 8.258,2.934 6.139,3.236 4.543,0.982 4.543,0.982 4.543,0.982 2.051,0.304 0,0"
             style="fill:#2c2a40;fill-opacity:1;fill-rule:nonzero;stroke:none"
             id="path864" /></g><g
           id="g866"><g
             id="g868" /><g
             id="g880"><g
               clip-path="url(#clipPath872)"
               opacity="0.199997"
               id="g878"><g
                 transform="translate(200.0229,255.6294)"
                 id="g876"><path
                   d="m 0,0 c 0,0 -35.507,-11.563 -54.673,-6.376 -1.43,0.386 -13.095,2.744 -13.095,2.744 0,0 6.588,24.987 4.75,41.577 -0.487,4.395 -1.527,13.077 -4.631,20.96 l -1.443,-13.988 c -1.892,-2.642 -8.287,-2.887 -14.339,-2.443 v 0.002 c 0,0 9.657,5.141 10.698,16.689 0.302,3.359 0.948,6.064 1.712,8.211 1.856,5.23 4.413,7.145 4.413,7.145 0,0 0.238,-0.379 0.632,-1.058 1.882,-3.215 7.336,-13.145 7.975,-21.139 0.774,-9.678 3.838,-30.294 18.779,-42.502 8.312,-6.792 36.082,-5.726 36.525,3.197 0.004,0.094 0.01,0.185 0.021,0.27 C -1.142,5.337 0,0 0,0"
                   style="fill:#2c2a40;fill-opacity:1;fill-rule:nonzero;stroke:none"
                   id="path874" /></g></g></g></g></g></g></g></svg>
