<?xml version="1.0" encoding="UTF-8" standalone="no"?>
<svg
   xmlns:dc="http://purl.org/dc/elements/1.1/"
   xmlns:cc="http://creativecommons.org/ns#"
   xmlns:rdf="http://www.w3.org/1999/02/22-rdf-syntax-ns#"
   xmlns:svg="http://www.w3.org/2000/svg"
   xmlns="http://www.w3.org/2000/svg"
   xmlns:sodipodi="http://sodipodi.sourceforge.net/DTD/sodipodi-0.dtd"
   xmlns:inkscape="http://www.inkscape.org/namespaces/inkscape"
   version="1.1"
   id="svg2"
   xml:space="preserve"
   width="666.66669"
   height="666.66669"
   viewBox="0 0 666.66669 666.66669"
   sodipodi:docname="51-Messages.ai"><metadata
     id="metadata8"><rdf:RDF><cc:Work
         rdf:about=""><dc:format>image/svg+xml</dc:format><dc:type
           rdf:resource="http://purl.org/dc/dcmitype/StillImage" /></cc:Work></rdf:RDF></metadata><defs
     id="defs6"><clipPath
       clipPathUnits="userSpaceOnUse"
       id="clipPath32"><path
         d="M 0,500 H 500 V 0 H 0 Z"
         id="path30" /></clipPath><clipPath
       clipPathUnits="userSpaceOnUse"
       id="clipPath150"><path
         d="M 0,500 H 500 V 0 H 0 Z"
         id="path148" /></clipPath><clipPath
       clipPathUnits="userSpaceOnUse"
       id="clipPath162"><path
         d="M 86.1196,419.943 H 415.029 V 146.766 H 86.1196 Z"
         id="path160" /></clipPath><clipPath
       clipPathUnits="userSpaceOnUse"
       id="clipPath178"><path
         d="M 0,500 H 500 V 0 H 0 Z"
         id="path176" /></clipPath><clipPath
       clipPathUnits="userSpaceOnUse"
       id="clipPath190"><path
         d="M 0,500 H 500 V 0 H 0 Z"
         id="path188" /></clipPath><clipPath
       clipPathUnits="userSpaceOnUse"
       id="clipPath214"><path
         d="m 338.563,314.973 h 21.891 v -18.965 h -21.891 z"
         id="path212" /></clipPath><clipPath
       clipPathUnits="userSpaceOnUse"
       id="clipPath258"><path
         d="m 299.724,112.331 h 11.858 v -11.093 h -11.858 z"
         id="path256" /></clipPath><clipPath
       clipPathUnits="userSpaceOnUse"
       id="clipPath274"><path
         d="m 249.666,136.792 h 13.295 v -13.598 h -13.295 z"
         id="path272" /></clipPath><clipPath
       clipPathUnits="userSpaceOnUse"
       id="clipPath294"><path
         d="m 299.769,326.759 h 52.276 v -61.728 h -52.276 z"
         id="path292" /></clipPath><clipPath
       clipPathUnits="userSpaceOnUse"
       id="clipPath314"><path
         d="m 324.979,341.593 h 11.173 v -14.872 h -11.173 z"
         id="path312" /></clipPath><clipPath
       clipPathUnits="userSpaceOnUse"
       id="clipPath346"><path
         d="m 312.746,258 h 10.725 v -54.063 h -10.725 z"
         id="path344" /></clipPath><clipPath
       clipPathUnits="userSpaceOnUse"
       id="clipPath378"><path
         d="m 297.374,276.692 h 37.911 v -13.264 h -37.911 z"
         id="path376" /></clipPath><clipPath
       clipPathUnits="userSpaceOnUse"
       id="clipPath450"><path
         d="m 292.885,326.759 h 22.053 v -24.378 h -22.053 z"
         id="path448" /></clipPath><clipPath
       clipPathUnits="userSpaceOnUse"
       id="clipPath490"><path
         d="M 0,500 H 500 V 0 H 0 Z"
         id="path488" /></clipPath><clipPath
       clipPathUnits="userSpaceOnUse"
       id="clipPath518"><path
         d="m 118.489,378.699 h 159.93 V 105.306 h -159.93 z"
         id="path516" /></clipPath><clipPath
       clipPathUnits="userSpaceOnUse"
       id="clipPath534"><path
         d="m 191.425,377.163 h 44.269 V 109.481 h -44.269 z"
         id="path532" /></clipPath><clipPath
       clipPathUnits="userSpaceOnUse"
       id="clipPath550"><path
         d="m 170.798,385.687 h 30.726 v -5.996 h -30.726 z"
         id="path548" /></clipPath><clipPath
       clipPathUnits="userSpaceOnUse"
       id="clipPath570"><path
         d="M 160.299,282.883 H 324.904 V 167.204 H 160.299 Z"
         id="path568" /></clipPath><clipPath
       clipPathUnits="userSpaceOnUse"
       id="clipPath590"><path
         d="M 183.128,266.549 H 302.075 V 238.076 H 183.128 Z"
         id="path588" /></clipPath></defs><sodipodi:namedview
     pagecolor="#ffffff"
     bordercolor="#666666"
     borderopacity="1"
     objecttolerance="10"
     gridtolerance="10"
     guidetolerance="10"
     inkscape:pageopacity="0"
     inkscape:pageshadow="2"
     inkscape:window-width="640"
     inkscape:window-height="480"
     id="namedview4" /><g
     id="g10"
     inkscape:groupmode="layer"
     inkscape:label="51-Messages"
     transform="matrix(1.3333333,0,0,-1.3333333,0,666.66667)"><path
       d="m 0,117.352 h 500 v 0.249 H 0 Z"
       style="fill:#ececec;fill-opacity:1;fill-rule:nonzero;stroke:none"
       id="path12" /><path
       d="m 52.459,110.542 h 37.04 v 0.25 h -37.04 z"
       style="fill:#ececec;fill-opacity:1;fill-rule:nonzero;stroke:none"
       id="path14" /><path
       d="m 169,105.131 h 71 v 0.25 h -71 z"
       style="fill:#ececec;fill-opacity:1;fill-rule:nonzero;stroke:none"
       id="path16" /><path
       d="m 94.916,110.417 h 50.751 v 0.25 H 94.916 Z"
       style="fill:#ececec;fill-opacity:1;fill-rule:nonzero;stroke:none"
       id="path18" /><path
       d="m 406.777,102.936 h 48.667 v 0.25 h -48.667 z"
       style="fill:#ececec;fill-opacity:1;fill-rule:nonzero;stroke:none"
       id="path20" /><path
       d="m 370.36,102.936 h 31.971 v 0.25 H 370.36 Z"
       style="fill:#ececec;fill-opacity:1;fill-rule:nonzero;stroke:none"
       id="path22" /><path
       d="m 277.213,107.158 h 62.01 v 0.25 h -62.01 z"
       style="fill:#ececec;fill-opacity:1;fill-rule:nonzero;stroke:none"
       id="path24" /><g
       id="g26"><g
         id="g28"
         clip-path="url(#clipPath32)"><g
           id="g34"
           transform="translate(43.915,444.7974)"><path
             d="m 0,0 c -3.01,0 -5.458,-2.448 -5.458,-5.458 v -271.431 c 0,-3.01 2.448,-5.458 5.458,-5.458 h 193.099 c 3.008,0 5.457,2.448 5.457,5.458 V -5.458 c 0,3.01 -2.449,5.458 -5.457,5.458 z M 193.099,-282.597 H 0 c -3.147,0 -5.708,2.56 -5.708,5.708 V -5.458 c 0,3.147 2.561,5.708 5.708,5.708 h 193.099 c 3.146,0 5.707,-2.561 5.707,-5.708 v -271.431 c 0,-3.148 -2.561,-5.708 -5.707,-5.708"
             style="fill:#ececec;fill-opacity:1;fill-rule:nonzero;stroke:none"
             id="path36" /></g><g
           id="g38"
           transform="translate(260.2119,444.7974)"><path
             d="m 0,0 c -3.009,0 -5.457,-2.448 -5.457,-5.458 v -271.431 c 0,-3.01 2.448,-5.458 5.457,-5.458 h 193.099 c 3.009,0 5.458,2.448 5.458,5.458 V -5.458 c 0,3.01 -2.449,5.458 -5.458,5.458 z M 193.099,-282.597 H 0 c -3.146,0 -5.707,2.56 -5.707,5.708 V -5.458 c 0,3.147 2.561,5.708 5.707,5.708 h 193.099 c 3.147,0 5.708,-2.561 5.708,-5.708 v -271.431 c 0,-3.148 -2.561,-5.708 -5.708,-5.708"
             style="fill:#ececec;fill-opacity:1;fill-rule:nonzero;stroke:none"
             id="path40" /></g><g
           id="g42"
           transform="translate(357.5981,218.1993)"><path
             d="M 0,0 H 78.021 V -97.52 H 0 c -7.546,0 -13.72,6.174 -13.72,13.72 v 70.08 C -13.72,-6.174 -7.546,0 0,0"
             style="fill:#f0f0f0;fill-opacity:1;fill-rule:nonzero;stroke:none"
             id="path44" /></g><g
           id="g46"
           transform="translate(434.9736,218.1993)"><path
             d="m 0,0 h 1.292 c 7.546,0 13.72,-6.174 13.72,-13.72 V -83.8 c 0,-7.546 -6.174,-13.72 -13.72,-13.72 H 0 c -7.546,0 -13.72,6.174 -13.72,13.72 v 70.08 C -13.72,-6.174 -7.546,0 0,0"
             style="fill:#f5f5f5;fill-opacity:1;fill-rule:nonzero;stroke:none"
             id="path48" /></g><path
           d="M 425.173,182.229 H 254.25 v -61.55 h 170.923 z"
           style="fill:#f0f0f0;fill-opacity:1;fill-rule:nonzero;stroke:none"
           id="path50" /><g
           id="g52"
           transform="translate(433.5371,117.6016)"><path
             d="m 0,0 h -252.621 c -1.553,0 -2.813,1.26 -2.813,2.813 V 3.078 H -75.979 L 2.813,2.813 C 2.813,1.26 1.554,0 0,0"
             style="fill:#e1e1e1;fill-opacity:1;fill-rule:nonzero;stroke:none"
             id="path54" /></g><g
           id="g56"
           transform="translate(361.0757,258.6608)"><path
             d="m 0,0 h -163.838 c -10.568,0 -19.135,-8.566 -19.135,-19.134 V -90.347 H 19.134 v 71.213 C 19.134,-8.566 10.567,0 0,0"
             style="fill:#e1e1e1;fill-opacity:1;fill-rule:nonzero;stroke:none"
             id="path58" /></g><g
           id="g60"
           transform="translate(376.0435,258.6608)"><path
             d="m 0,0 h -165.683 c -10.058,0 -18.212,-8.154 -18.212,-18.212 V -90.347 H 18.212 v 72.135 C 18.212,-8.154 10.058,0 0,0"
             style="fill:#f5f5f5;fill-opacity:1;fill-rule:nonzero;stroke:none"
             id="path62" /></g><g
           id="g64"
           transform="translate(417.0112,187.8488)"><path
             d="m 0,0 h -149.751 c -4.771,0 -8.639,-3.868 -8.639,-8.639 v -7.788 c 0,-4.771 3.868,-8.639 8.639,-8.639 H 0 c 6.922,0 12.533,5.611 12.533,12.533 C 12.533,-5.611 6.922,0 0,0"
             style="fill:#e1e1e1;fill-opacity:1;fill-rule:nonzero;stroke:none"
             id="path66" /></g><g
           id="g68"
           transform="translate(175.7847,218.1993)"><path
             d="M 0,0 H 78.021 V -97.52 H 0 c -7.546,0 -13.72,6.174 -13.72,13.72 v 70.08 C -13.72,-6.174 -7.546,0 0,0"
             style="fill:#f0f0f0;fill-opacity:1;fill-rule:nonzero;stroke:none"
             id="path70" /></g><g
           id="g72"
           transform="translate(253.1602,218.1993)"><path
             d="m 0,0 h 1.292 c 7.546,0 13.72,-6.174 13.72,-13.72 V -83.8 c 0,-7.546 -6.174,-13.72 -13.72,-13.72 H 0 c -7.546,0 -13.72,6.174 -13.72,13.72 v 70.08 C -13.72,-6.174 -7.546,0 0,0"
             style="fill:#f5f5f5;fill-opacity:1;fill-rule:nonzero;stroke:none"
             id="path74" /></g><path
           d="M 401.055,407.485 H 330.43 V 303.624 h 70.625 z"
           style="fill:#e1e1e1;fill-opacity:1;fill-rule:nonzero;stroke:none"
           id="path76" /><path
           d="M 405.309,407.485 H 332.357 V 303.624 h 72.952 z"
           style="fill:#f5f5f5;fill-opacity:1;fill-rule:nonzero;stroke:none"
           id="path78" /><path
           d="m 338.469,311.809 h 60.729 V 399.3 h -60.729 z"
           style="fill:#ffffff;fill-opacity:1;fill-rule:nonzero;stroke:none"
           id="path80" /><g
           id="g82"
           transform="translate(361.2754,351.3271)"><path
             d="m 0,0 v -6.661 c 8.348,0 15.116,6.767 15.116,15.115 v 6.662 C 6.767,15.116 0,8.348 0,0"
             style="fill:#f5f5f5;fill-opacity:1;fill-rule:nonzero;stroke:none"
             id="path84" /></g><g
           id="g86"
           transform="translate(361.2754,373.79)"><path
             d="m 0,0 v -6.661 c 8.348,0 15.116,6.767 15.116,15.115 v 6.662 C 6.767,15.116 0,8.348 0,0"
             style="fill:#f5f5f5;fill-opacity:1;fill-rule:nonzero;stroke:none"
             id="path88" /></g><g
           id="g90"
           transform="translate(361.2754,328.8644)"><path
             d="m 0,0 v -6.661 c 8.348,0 15.116,6.767 15.116,15.115 v 6.662 C 6.767,15.116 0,8.348 0,0"
             style="fill:#f5f5f5;fill-opacity:1;fill-rule:nonzero;stroke:none"
             id="path92" /></g><path
           d="M 65.501,399.3 H 296.162 V 326.015 H 65.501 Z"
           style="fill:#ececec;fill-opacity:1;fill-rule:nonzero;stroke:none"
           id="path94" /><path
           d="m 65.501,399.3 h -1.39 v -73.285 h 1.39 z"
           style="fill:#e1e1e1;fill-opacity:1;fill-rule:nonzero;stroke:none"
           id="path96" /><path
           d="M 284.791,337.387 H 76.873 v 50.541 h 207.918 z"
           style="fill:#f5f5f5;fill-opacity:1;fill-rule:nonzero;stroke:none"
           id="path98" /><g
           id="g100"
           transform="translate(126.6973,337.3872)"><path
             d="m 0,0 h -17.268 l 13.52,50.541 H 13.52 Z"
             style="fill:#ffffff;fill-opacity:1;fill-rule:nonzero;stroke:none"
             id="path102" /></g><g
           id="g104"
           transform="translate(142.7578,337.3872)"><path
             d="M 0,0 H -9.985 L 3.535,50.541 H 13.52 Z"
             style="fill:#ffffff;fill-opacity:1;fill-rule:nonzero;stroke:none"
             id="path106" /></g><g
           id="g108"
           transform="translate(229.688,337.3872)"><path
             d="M 0,0 H -9.985 L 3.535,50.541 H 13.52 Z"
             style="fill:#ffffff;fill-opacity:1;fill-rule:nonzero;stroke:none"
             id="path110" /></g><g
           id="g112"
           transform="translate(155.3232,201.4083)"><path
             d="m 0,0 h -55.917 l -6.915,75.963 h 55.918 z"
             style="fill:#e7e7e7;fill-opacity:1;fill-rule:nonzero;stroke:none"
             id="path114" /></g><g
           id="g116"
           transform="translate(158.2197,201.4083)"><path
             d="m 0,0 h -55.917 l -6.915,75.963 h 55.918 z"
             style="fill:#f0f0f0;fill-opacity:1;fill-rule:nonzero;stroke:none"
             id="path118" /></g><g
           id="g120"
           transform="translate(109.9453,209.8174)"><path
             d="M 0,0 -5.383,59.145 H 33.716 L 39.099,0 Z"
             style="fill:#ffffff;fill-opacity:1;fill-rule:nonzero;stroke:none"
             id="path122" /></g><path
           d="M 197.228,117.603 H 189.7 v 83.805 h 7.528 z"
           style="fill:#e7e7e7;fill-opacity:1;fill-rule:nonzero;stroke:none"
           id="path124" /><path
           d="m 199.603,117.603 h -5.229 v 83.805 h 5.229 z"
           style="fill:#f5f5f5;fill-opacity:1;fill-rule:nonzero;stroke:none"
           id="path126" /><path
           d="m 121.761,192.158 h 79.461 v 9.25 h -79.461 z"
           style="fill:#f5f5f5;fill-opacity:1;fill-rule:nonzero;stroke:none"
           id="path128" /><path
           d="m 118.391,117.603 h -7.528 v 74.555 h 7.528 z"
           style="fill:#e7e7e7;fill-opacity:1;fill-rule:nonzero;stroke:none"
           id="path130" /><path
           d="m 120.767,117.603 h -5.228 v 74.555 h 5.228 z"
           style="fill:#f5f5f5;fill-opacity:1;fill-rule:nonzero;stroke:none"
           id="path132" /><path
           d="m 70.75,117.603 h -7.528 v 74.555 h 7.528 z"
           style="fill:#e7e7e7;fill-opacity:1;fill-rule:nonzero;stroke:none"
           id="path134" /><path
           d="m 73.126,117.603 h -5.228 v 74.555 h 5.228 z"
           style="fill:#f5f5f5;fill-opacity:1;fill-rule:nonzero;stroke:none"
           id="path136" /><path
           d="m 149.587,117.603 h -7.528 v 74.555 h 7.528 z"
           style="fill:#e7e7e7;fill-opacity:1;fill-rule:nonzero;stroke:none"
           id="path138" /><path
           d="m 151.962,117.603 h -5.228 v 74.555 h 5.228 z"
           style="fill:#f5f5f5;fill-opacity:1;fill-rule:nonzero;stroke:none"
           id="path140" /><path
           d="M 121.761,192.158 H 63.222 v 9.25 h 58.539 z"
           style="fill:#e7e7e7;fill-opacity:1;fill-rule:nonzero;stroke:none"
           id="path142" /></g></g><g
       id="g144"><g
         id="g146"
         clip-path="url(#clipPath150)"><g
           id="g152"
           transform="translate(268.7173,354.4434)"><path
             d="m 0,0 c -54.643,-56.866 -179.145,-4.729 -182.542,-115.836 -3.254,-106.456 135.572,-101.132 204.703,-78.405 80.15,26.35 143.704,99.563 118.592,186.601 C 131.055,25.975 109.307,58.624 72.162,64.28 12.816,73.317 28.964,30.142 0,0"
             style="fill:#007cff;fill-opacity:1;fill-rule:nonzero;stroke:none"
             id="path154" /></g><g
           id="g156"><g
             id="g158" /><g
             id="g170"><g
               clip-path="url(#clipPath162)"
               opacity="0.899994"
               id="g168"><g
                 transform="translate(268.7173,354.4434)"
                 id="g166"><path
                   d="m 0,0 c -54.643,-56.866 -179.145,-4.729 -182.542,-115.836 -3.254,-106.456 135.572,-101.132 204.703,-78.405 80.15,26.35 143.704,99.563 118.592,186.601 C 131.055,25.975 109.307,58.624 72.162,64.28 12.816,73.317 28.964,30.142 0,0"
                   style="fill:#ffffff;fill-opacity:1;fill-rule:nonzero;stroke:none"
                   id="path164" /></g></g></g></g></g></g><g
       id="g172"><g
         id="g174"
         clip-path="url(#clipPath178)"><g
           id="g180"
           transform="translate(443.8892,83.762)"><path
             d="m 0,0 c 0,-6.254 -86.807,-11.323 -193.889,-11.323 -107.082,0 -193.889,5.069 -193.889,11.323 0,6.253 86.807,11.323 193.889,11.323 C -86.807,11.323 0,6.253 0,0"
             style="fill:#f5f5f5;fill-opacity:1;fill-rule:nonzero;stroke:none"
             id="path182" /></g></g></g><g
       id="g184"><g
         id="g186"
         clip-path="url(#clipPath190)"><g
           id="g192"
           transform="translate(328.3579,364.0205)"><path
             d="m 0,0 c -3.819,2.394 -14.789,0.021 -12.965,-12.035 1.824,-12.056 -12.312,-8.921 -9.234,-22.886 3.078,-13.966 28.072,-34.699 43.463,-20.619 15.39,14.079 2.423,20.293 2.709,37.002 C 24.143,-8.603 19.637,9.177 0,0"
             style="fill:#1a2e35;fill-opacity:1;fill-rule:nonzero;stroke:none"
             id="path194" /></g><g
           id="g196"
           transform="translate(351.0366,309.0919)"><path
             d="m 0,0 c -0.066,0 -0.132,0.025 -0.182,0.076 -0.1,0.1 -0.099,0.263 0.001,0.362 9.484,9.422 7.294,15.159 4.521,22.423 -1.533,4.013 -3.269,8.561 -3.412,14.472 -0.153,6.371 -2.484,15.085 -8.551,18.674 -4.303,2.545 -9.819,2.106 -16.398,-1.306 -0.127,-0.065 -0.281,-0.017 -0.347,0.109 -0.065,0.126 -0.016,0.281 0.11,0.346 6.747,3.499 12.432,3.934 16.896,1.292 6.248,-3.695 8.647,-12.6 8.803,-19.103 C 1.581,31.523 3.301,27.018 4.818,23.044 7.658,15.606 9.901,9.731 0.181,0.075 0.131,0.025 0.065,0 0,0"
             style="fill:#1a2e35;fill-opacity:1;fill-rule:nonzero;stroke:none"
             id="path198" /></g><g
           id="g200"
           transform="translate(353.2192,310.4553)"><path
             d="M 0,0 C -0.013,0.033 0.157,-0.23 0.267,-0.377 L 0.674,-0.915 C 0.965,-1.287 1.27,-1.66 1.601,-2.029 2.258,-2.766 2.976,-3.482 3.74,-4.165 c 1.504,-1.392 3.174,-2.668 4.957,-3.809 1.803,-1.112 3.654,-2.198 5.628,-3.094 0.965,-0.489 1.988,-0.874 2.983,-1.321 0.19,-0.084 0.021,-0.032 -0.123,-0.08 -0.16,-0.039 -0.241,-0.146 -0.133,-0.085 0.214,0.098 0.744,0.739 1.141,1.528 0.422,0.796 0.785,1.747 1.127,2.734 0.678,1.992 1.169,4.166 1.63,6.363 0.451,2.204 0.802,4.458 1.11,6.726 0.342,2.258 0.589,4.571 0.84,6.819 l 4.066,-0.022 c 0.337,-4.799 0.309,-9.522 -0.101,-14.36 -0.196,-2.421 -0.545,-4.848 -1.132,-7.35 -0.299,-1.254 -0.686,-2.52 -1.246,-3.842 -0.592,-1.31 -1.275,-2.736 -2.852,-4.153 -0.779,-0.693 -1.942,-1.341 -3.253,-1.571 -1.297,-0.255 -2.659,-0.016 -3.559,0.307 -1.172,0.416 -2.366,0.773 -3.526,1.249 -2.331,0.91 -4.613,2.013 -6.815,3.291 -2.19,1.306 -4.295,2.801 -6.272,4.517 -0.978,0.869 -1.91,1.808 -2.804,2.813 -0.446,0.502 -0.881,1.032 -1.305,1.581 l -0.62,0.879 c -0.219,0.334 -0.374,0.557 -0.677,1.095 z"
             style="fill:#ffc4be;fill-opacity:1;fill-rule:nonzero;stroke:none"
             id="path202" /></g><g
           id="g204"
           transform="translate(351.8496,314.1644)"><path
             d="m 0,0 c 9.353,-5.969 8.589,-9.648 8.589,-9.648 l -5.874,-8.508 c 0,0 -14.985,6.013 -15.931,10.713 C -14.203,-2.548 -4.536,2.895 0,0"
             style="fill:#1a2e35;fill-opacity:1;fill-rule:nonzero;stroke:none"
             id="path206" /></g><g
           id="g208"><g
             id="g210" /><g
             id="g222"><g
               clip-path="url(#clipPath214)"
               opacity="0.100006"
               id="g220"><g
                 transform="translate(351.8496,314.1644)"
                 id="g218"><path
                   d="m 0,0 c 9.353,-5.969 8.589,-9.648 8.589,-9.648 l -5.874,-8.508 c 0,0 -14.985,6.013 -15.931,10.713 C -14.203,-2.548 -4.536,2.895 0,0"
                   style="fill:#ffffff;fill-opacity:1;fill-rule:nonzero;stroke:none"
                   id="path216" /></g></g></g></g><g
           id="g224"
           transform="translate(360.9512,305.3574)"><path
             d="M 0,0 V 0 C 0.363,-0.254 0.452,-0.754 0.198,-1.117 L -5.82,-9.731 c -0.253,-0.363 -0.753,-0.452 -1.117,-0.198 -0.363,0.254 -0.452,0.754 -0.198,1.117 l 6.018,8.614 C -0.863,0.165 -0.363,0.254 0,0"
             style="fill:#007cff;fill-opacity:1;fill-rule:nonzero;stroke:none"
             id="path226" /></g><g
           id="g228"
           transform="translate(376.8306,320.1072)"><path
             d="m 0,0 -4.638,6.199 8.899,2.296 c 0,0 1.811,-5.524 -1.148,-9.568 z"
             style="fill:#ffc4be;fill-opacity:1;fill-rule:nonzero;stroke:none"
             id="path230" /></g><g
           id="g232"
           transform="translate(372.437,333.9258)"><path
             d="M 0,0 7.411,1.251 8.654,-5.324 -0.244,-7.619 Z"
             style="fill:#ffc4be;fill-opacity:1;fill-rule:nonzero;stroke:none"
             id="path234" /></g><g
           id="g236"
           transform="translate(297.0415,92.4038)"><path
             d="m 0,0 8.483,-0.819 6.06,19.933 -8.482,0.818 z"
             style="fill:#ffc4be;fill-opacity:1;fill-rule:nonzero;stroke:none"
             id="path238" /></g><g
           id="g240"
           transform="translate(243.0947,121.8711)"><path
             d="m 0,0 6.29,-5.906 13.579,14.924 -6.29,5.905 z"
             style="fill:#ffc4be;fill-opacity:1;fill-rule:nonzero;stroke:none"
             id="path242" /></g><g
           id="g244"
           transform="translate(252.2886,118.7982)"><path
             d="m 0,0 -4.727,8.516 c -0.172,0.31 -0.526,0.442 -0.853,0.317 l -7.276,-2.769 c -0.755,-0.287 -1.083,-1.255 -0.674,-1.963 1.699,-2.941 2.668,-4.275 4.746,-8.02 1.279,-2.304 3.769,-7.588 5.535,-10.77 1.727,-3.111 5.006,-1.605 4.556,-0.122 -2.02,6.65 -1.64,10.351 -1.07,13.285 C 0.34,-0.997 0.251,-0.453 0,0"
             style="fill:#1a2e35;fill-opacity:1;fill-rule:nonzero;stroke:none"
             id="path246" /></g><g
           id="g248"
           transform="translate(306.5273,94.1729)"><path
             d="m 0,0 h -10.284 c -0.375,0 -0.713,-0.26 -0.813,-0.625 l -2.236,-8.137 c -0.232,-0.844 0.389,-1.62 1.255,-1.628 3.624,-0.033 5.342,-0.017 9.865,-0.017 H 11.61 c 3.758,0 4.544,3.8 2.989,4.144 C 7.627,-4.72 3.608,-2.593 1.457,-0.563 1.069,-0.197 0.548,0 0,0"
             style="fill:#1a2e35;fill-opacity:1;fill-rule:nonzero;stroke:none"
             id="path250" /></g><g
           id="g252"><g
             id="g254" /><g
             id="g266"><g
               clip-path="url(#clipPath258)"
               opacity="0.199997"
               id="g264"><g
                 transform="translate(311.582,111.5122)"
                 id="g262"><path
                   d="m 0,0 -3.123,-10.274 h -8.735 l 3.371,11.093 z"
                   style="fill:#000000;fill-opacity:1;fill-rule:nonzero;stroke:none"
                   id="path260" /></g></g></g></g><g
           id="g268"><g
             id="g270" /><g
             id="g282"><g
               clip-path="url(#clipPath274)"
               opacity="0.199997"
               id="g280"><g
                 transform="translate(256.6685,136.7916)"
                 id="g278"><path
                   d="m 0,0 6.292,-5.908 -7.002,-7.689 -6.292,5.908 z"
                   style="fill:#000000;fill-opacity:1;fill-rule:nonzero;stroke:none"
                   id="path276" /></g></g></g></g><g
           id="g284"
           transform="translate(351.8496,314.1644)"><path
             d="m 0,0 c 0,0 3.397,-2.316 -18.147,-49.134 -13.466,3.728 -27.382,7.58 -33.934,9.394 4.393,13.653 6.767,22.165 8.012,52.335 0,0 7.538,-0.422 14.935,-2.091 5.787,-1.306 10.516,-2.418 15.409,-4.266 C -7.274,3.802 0,0 0,0"
             style="fill:#1a2e35;fill-opacity:1;fill-rule:nonzero;stroke:none"
             id="path286" /></g><g
           id="g288"><g
             id="g290" /><g
             id="g302"><g
               clip-path="url(#clipPath294)"
               opacity="0.100006"
               id="g300"><g
                 transform="translate(351.8496,314.1644)"
                 id="g298"><path
                   d="m 0,0 c 0,0 3.397,-2.316 -18.147,-49.134 -13.466,3.728 -27.382,7.58 -33.934,9.394 4.393,13.653 6.767,22.165 8.012,52.335 0,0 7.538,-0.422 14.935,-2.091 5.787,-1.306 10.516,-2.418 15.409,-4.266 C -7.274,3.802 0,0 0,0"
                   style="fill:#ffffff;fill-opacity:1;fill-rule:nonzero;stroke:none"
                   id="path296" /></g></g></g></g><g
           id="g304"
           transform="translate(329.0459,341.5957)"><path
             d="m 0,0 c -0.4,-5.227 -1.945,-14.579 -6.33,-16.927 0,0 -2.549,-8.672 8.518,-11.856 9.363,-2.693 6.891,7.59 6.891,7.59 -5.163,2.85 -1.973,7.9 -1.028,13.554 z"
             style="fill:#ffc4be;fill-opacity:1;fill-rule:nonzero;stroke:none"
             id="path306" /></g><g
           id="g308"><g
             id="g310" /><g
             id="g322"><g
               clip-path="url(#clipPath314)"
               opacity="0.199997"
               id="g320"><g
                 transform="translate(329.042,341.5928)"
                 id="g318"><path
                   d="m 0,0 c -0.318,-4.196 -1.375,-11.071 -4.063,-14.816 3.119,-0.308 8.044,0.647 9.439,2.965 0.37,0.596 1.099,2.884 1.734,5.11 z"
                   style="fill:#000000;fill-opacity:1;fill-rule:nonzero;stroke:none"
                   id="path316" /></g></g></g></g><g
           id="g324"
           transform="translate(342.77,349.1692)"><path
             d="m 0,0 c -0.023,-8.604 0.15,-12.246 -3.921,-16.901 -6.125,-7.001 -16.688,-5.09 -19.236,3.347 -2.293,7.595 -1.869,20.389 6.323,24.294 C -8.764,14.586 0.023,8.604 0,0"
             style="fill:#ffc4be;fill-opacity:1;fill-rule:nonzero;stroke:none"
             id="path326" /></g><g
           id="g328"
           transform="translate(324.979,353.9396)"><path
             d="M 0,0 C 4.831,-6.747 21.077,-16.13 22.167,-7.089 23.256,1.952 14.957,10.885 6.742,10.023 -1.473,9.162 -4.11,5.742 0,0"
             style="fill:#1a2e35;fill-opacity:1;fill-rule:nonzero;stroke:none"
             id="path330" /></g><g
           id="g332"
           transform="translate(346.333,341.1365)"><path
             d="m 0,0 c -0.775,-1.607 -2.219,-2.706 -3.61,-3.167 -2.094,-0.693 -3.244,1.153 -2.75,3.183 0.445,1.827 2.07,4.39 4.213,4.202 C -0.036,4.033 0.886,1.837 0,0"
             style="fill:#ffc4be;fill-opacity:1;fill-rule:nonzero;stroke:none"
             id="path334" /></g><g
           id="g336"
           transform="translate(333.7021,265.0306)"><path
             d="m 0,0 c 0,0 12.079,-48.931 4.156,-85.945 -5.306,-24.79 -24.444,-74.87 -24.444,-74.87 l -14.962,0.385 c 0,0 14.487,52.554 17.482,73.222 5.123,35.354 -7.081,94.087 -7.081,94.087 z"
             style="fill:#007cff;fill-opacity:1;fill-rule:nonzero;stroke:none"
             id="path338" /></g><g
           id="g340"><g
             id="g342" /><g
             id="g354"><g
               clip-path="url(#clipPath346)"
               opacity="0.199997"
               id="g352"><g
                 transform="translate(320.2266,258)"
                 id="g350"><path
                   d="m 0,0 -7.481,-11.799 c 1.903,-12.235 3.797,-27.538 4.28,-42.264 C 7.32,-35.227 2.339,-9.972 0,0"
                   style="fill:#000000;fill-opacity:1;fill-rule:nonzero;stroke:none"
                   id="path348" /></g></g></g></g><g
           id="g356"
           transform="translate(316.0889,103.4412)"><path
             d="M 0,0 -19.047,0.471 -17.772,7.246 1.395,5.81 Z"
             style="fill:#1a2e35;fill-opacity:1;fill-rule:nonzero;stroke:none"
             id="path358" /></g><g
           id="g360"
           transform="translate(326.2637,266.9818)"><path
             d="m 0,0 c 0,0 -6.983,-53.5 -22.076,-83.898 -12.19,-24.553 -44.719,-59.504 -44.719,-59.504 l -8.318,8.568 c 0,0 21.972,37.985 31.032,54.295 22.215,39.991 2.523,75.847 17.586,87.982 z"
             style="fill:#007cff;fill-opacity:1;fill-rule:nonzero;stroke:none"
             id="path362" /></g><g
           id="g364"
           transform="translate(260.3105,122.4336)"><path
             d="M 0,0 -10.733,10.463 -7.172,15.307 4.525,3.214 Z"
             style="fill:#1a2e35;fill-opacity:1;fill-rule:nonzero;stroke:none"
             id="path366" /></g><g
           id="g368"
           transform="translate(299.812,276.5566)"><path
             d="m 0,0 -2.371,-2.614 c -0.184,-0.203 0.029,-0.52 0.421,-0.629 l 35.586,-9.851 c 0.306,-0.085 0.601,-0.005 0.674,0.182 l 1.147,2.952 c 0.079,0.205 -0.137,0.456 -0.472,0.549 L 0.623,0.102 C 0.371,0.172 0.119,0.131 0,0"
             style="fill:#007cff;fill-opacity:1;fill-rule:nonzero;stroke:none"
             id="path370" /></g><g
           id="g372"><g
             id="g374" /><g
             id="g386"><g
               clip-path="url(#clipPath378)"
               opacity="0.5"
               id="g384"><g
                 transform="translate(299.812,276.5566)"
                 id="g382"><path
                   d="m 0,0 -2.371,-2.614 c -0.184,-0.203 0.029,-0.52 0.421,-0.629 l 35.586,-9.851 c 0.306,-0.085 0.601,-0.005 0.674,0.182 l 1.147,2.952 c 0.079,0.205 -0.137,0.456 -0.472,0.549 L 0.623,0.102 C 0.371,0.172 0.119,0.131 0,0"
                   style="fill:#ffffff;fill-opacity:1;fill-rule:nonzero;stroke:none"
                   id="path380" /></g></g></g></g><g
           id="g388"
           transform="translate(303.3633,271.4368)"><path
             d="m 0,0 -0.92,0.255 c -0.184,0.05 -0.297,0.184 -0.252,0.296 L 0.352,4.377 C 0.396,4.49 0.583,4.54 0.766,4.489 L 1.687,4.234 C 1.87,4.183 1.983,4.05 1.938,3.938 L 0.415,0.111 C 0.37,-0.001 0.183,-0.051 0,0"
             style="fill:#007cff;fill-opacity:1;fill-rule:nonzero;stroke:none"
             id="path390" /></g><g
           id="g392"
           transform="translate(330.771,263.8492)"><path
             d="M 0,0 -0.92,0.255 C -1.104,0.306 -1.217,0.439 -1.172,0.551 L 0.352,4.377 C 0.396,4.489 0.583,4.54 0.766,4.489 L 1.686,4.234 C 1.869,4.183 1.983,4.05 1.938,3.938 L 0.414,0.111 C 0.37,-0.001 0.183,-0.051 0,0"
             style="fill:#007cff;fill-opacity:1;fill-rule:nonzero;stroke:none"
             id="path394" /></g><g
           id="g396"
           transform="translate(317.0669,267.6431)"><path
             d="M 0,0 -0.92,0.255 C -1.104,0.306 -1.217,0.439 -1.172,0.551 L 0.352,4.377 C 0.396,4.489 0.583,4.539 0.766,4.489 L 1.687,4.234 C 1.87,4.183 1.983,4.05 1.938,3.938 L 0.415,0.111 C 0.37,-0.001 0.184,-0.051 0,0"
             style="fill:#007cff;fill-opacity:1;fill-rule:nonzero;stroke:none"
             id="path398" /></g><g
           id="g400"
           transform="translate(329.9072,346.0099)"><path
             d="m 0,0 c 0.041,-0.698 -0.296,-1.286 -0.752,-1.312 -0.456,-0.027 -0.859,0.517 -0.9,1.215 C -1.693,0.601 -1.357,1.189 -0.9,1.215 -0.444,1.242 -0.041,0.698 0,0"
             style="fill:#1a2e35;fill-opacity:1;fill-rule:nonzero;stroke:none"
             id="path402" /></g><g
           id="g404"
           transform="translate(322.0171,345.547)"><path
             d="m 0,0 c 0.041,-0.698 -0.296,-1.286 -0.752,-1.312 -0.456,-0.027 -0.86,0.517 -0.901,1.215 -0.04,0.698 0.296,1.286 0.753,1.312 C -0.444,1.242 -0.041,0.698 0,0"
             style="fill:#1a2e35;fill-opacity:1;fill-rule:nonzero;stroke:none"
             id="path406" /></g><g
           id="g408"
           transform="translate(321.3203,346.7355)"><path
             d="m 0,0 -1.705,0.385 c 0,0 0.937,-1.259 1.705,-0.385"
             style="fill:#1a2e35;fill-opacity:1;fill-rule:nonzero;stroke:none"
             id="path410" /></g><g
           id="g412"
           transform="translate(324.1724,344.4698)"><path
             d="m 0,0 c 0,0 -1.008,-3.075 -2.227,-4.601 0.972,-0.806 2.516,-0.321 2.516,-0.321 z"
             style="fill:#ff857f;fill-opacity:1;fill-rule:nonzero;stroke:none"
             id="path414" /></g><g
           id="g416"
           transform="translate(328.3506,337.1742)"><path
             d="m 0,0 c -0.387,-0.1 -0.811,-0.17 -1.273,-0.197 -0.094,-0.006 -0.175,0.066 -0.181,0.161 -0.005,0.094 0.068,0.177 0.161,0.18 3.077,0.179 4.397,2.42 4.41,2.444 C 3.164,2.669 3.269,2.698 3.35,2.651 3.432,2.604 3.46,2.5 3.414,2.418 3.365,2.333 2.353,0.608 0,0"
             style="fill:#1a2e35;fill-opacity:1;fill-rule:nonzero;stroke:none"
             id="path418" /></g><g
           id="g420"
           transform="translate(332.5249,351.1113)"><path
             d="M 0,0 C -0.112,-0.029 -0.236,0 -0.324,0.086 -1.649,1.383 -3.132,1.084 -3.194,1.07 -3.378,1.031 -3.56,1.148 -3.6,1.332 c -0.04,0.183 0.075,0.363 0.259,0.405 0.076,0.018 1.896,0.4 3.494,-1.162 C 0.288,0.443 0.29,0.227 0.158,0.092 0.113,0.046 0.058,0.015 0,0"
             style="fill:#1a2e35;fill-opacity:1;fill-rule:nonzero;stroke:none"
             id="path422" /></g><g
           id="g424"
           transform="translate(318.5771,350.0981)"><path
             d="M 0,0 C -0.109,-0.049 -0.241,-0.039 -0.344,0.037 -0.496,0.149 -0.527,0.363 -0.415,0.515 0.916,2.31 2.773,2.219 2.852,2.215 3.039,2.203 3.182,2.043 3.171,1.855 3.161,1.667 3,1.524 2.812,1.533 2.748,1.537 1.238,1.597 0.134,0.108 0.098,0.059 0.051,0.023 0,0"
             style="fill:#1a2e35;fill-opacity:1;fill-rule:nonzero;stroke:none"
             id="path426" /></g><g
           id="g428"
           transform="translate(308.5718,313.8687)"><path
             d="m 0,0 c -0.873,-1.317 -1.665,-2.374 -2.548,-3.495 -0.871,-1.096 -1.763,-2.169 -2.681,-3.217 -1.847,-2.088 -3.815,-4.063 -5.883,-5.941 -2.062,-1.883 -4.229,-3.664 -6.54,-5.273 -1.126,-0.839 -2.34,-1.573 -3.524,-2.334 l -1.843,-1.057 -0.922,-0.524 c -0.338,-0.178 -0.778,-0.417 -1.204,-0.59 -1.688,-0.76 -3.862,-1.154 -5.92,-0.777 -2.066,0.356 -3.805,1.347 -5.139,2.438 -1.356,1.099 -2.372,2.342 -3.256,3.585 -0.875,1.253 -1.621,2.521 -2.252,3.817 -2.502,5.192 -3.967,10.415 -4.891,15.887 l 3.961,0.918 c 0.828,-2.378 1.759,-4.841 2.808,-7.159 1.019,-2.34 2.16,-4.611 3.471,-6.662 1.285,-2.033 2.79,-3.934 4.324,-4.975 0.756,-0.526 1.456,-0.782 2.025,-0.815 0.57,-0.027 1.118,0.08 1.824,0.446 0.185,0.087 0.321,0.18 0.562,0.324 l 0.777,0.508 1.552,1.017 c 0.999,0.744 2.031,1.427 2.998,2.22 1.974,1.518 3.84,3.198 5.663,4.922 1.823,1.727 3.539,3.578 5.187,5.48 0.831,0.945 1.637,1.911 2.418,2.89 0.754,0.964 1.566,2.021 2.187,2.896 z"
             style="fill:#ffc4be;fill-opacity:1;fill-rule:nonzero;stroke:none"
             id="path430" /></g><g
           id="g432"
           transform="translate(266.7705,313.6249)"><path
             d="M 0,0 0.877,9.329 -7.507,5.897 c 0,0 1.002,-4.692 4.192,-6.367 z"
             style="fill:#ffc4be;fill-opacity:1;fill-rule:nonzero;stroke:none"
             id="path434" /></g><g
           id="g436"
           transform="translate(264.9692,327.9861)"><path
             d="m 0,0 -6.491,1.414 0.785,-9.878 8.385,3.432 z"
             style="fill:#ffc4be;fill-opacity:1;fill-rule:nonzero;stroke:none"
             id="path438" /></g><g
           id="g440"
           transform="translate(307.7808,326.7592)"><path
             d="m 0,0 c -4.366,0.038 -14.896,-16.683 -14.896,-16.683 l 7.439,-7.695 c 0,0 13.973,9.441 14.545,15.034 C 7.573,-4.596 5.562,-0.049 0,0"
             style="fill:#1a2e35;fill-opacity:1;fill-rule:nonzero;stroke:none"
             id="path442" /></g><g
           id="g444"><g
             id="g446" /><g
             id="g458"><g
               clip-path="url(#clipPath450)"
               opacity="0.100006"
               id="g456"><g
                 transform="translate(307.7808,326.7592)"
                 id="g454"><path
                   d="m 0,0 c -4.366,0.038 -14.896,-16.683 -14.896,-16.683 l 7.439,-7.695 c 0,0 13.973,9.441 14.545,15.034 C 7.573,-4.596 5.562,-0.049 0,0"
                   style="fill:#ffffff;fill-opacity:1;fill-rule:nonzero;stroke:none"
                   id="path452" /></g></g></g></g><g
           id="g460"
           transform="translate(301.0112,302.0422)"><path
             d="m 0,0 v 0 c -0.31,-0.316 -0.818,-0.321 -1.134,-0.011 l -7.504,7.356 c -0.316,0.31 -0.321,0.818 -0.011,1.134 0.31,0.317 0.818,0.322 1.134,0.012 L -0.011,1.134 C 0.305,0.824 0.31,0.316 0,0"
             style="fill:#007cff;fill-opacity:1;fill-rule:nonzero;stroke:none"
             id="path462" /></g><g
           id="g464"
           transform="translate(252.0444,117.3279)"><path
             d="M 0,0 C 0.943,-0.535 2.553,-1.581 2.607,-2.246 2.614,-2.322 2.604,-2.435 2.449,-2.552 2.181,-2.755 1.928,-2.812 1.677,-2.728 1.093,-2.531 0.477,-1.522 0,0 m 1.902,-3.108 c 0.251,0 0.503,0.095 0.753,0.283 0.267,0.202 0.306,0.441 0.293,0.607 C 2.858,-1.133 0.111,0.336 -0.202,0.5 -0.262,0.532 -0.336,0.525 -0.389,0.482 -0.442,0.438 -0.464,0.368 -0.446,0.303 -0.135,-0.802 0.54,-2.705 1.568,-3.052 1.679,-3.089 1.791,-3.108 1.902,-3.108"
             style="fill:#007cff;fill-opacity:1;fill-rule:nonzero;stroke:none"
             id="path466" /></g><g
           id="g468"
           transform="translate(254.5371,118.4055)"><path
             d="M 0,0 C 0.171,0 0.33,-0.021 0.469,-0.071 0.681,-0.145 0.825,-0.281 0.907,-0.484 1.015,-0.75 0.931,-0.866 0.847,-0.938 0.338,-1.37 -1.468,-1.125 -2.398,-0.728 -1.887,-0.477 -0.81,0 0,0 m -0.166,-1.507 c 0.518,0 0.974,0.088 1.233,0.309 0.139,0.117 0.343,0.383 0.157,0.842 -0.12,0.295 -0.336,0.5 -0.641,0.607 -1.173,0.416 -3.348,-0.779 -3.44,-0.831 -0.053,-0.029 -0.086,-0.085 -0.088,-0.145 -0.001,-0.061 0.03,-0.118 0.082,-0.15 0.525,-0.32 1.722,-0.632 2.697,-0.632"
             style="fill:#007cff;fill-opacity:1;fill-rule:nonzero;stroke:none"
             id="path470" /></g><g
           id="g472"
           transform="translate(312.7329,94.2813)"><path
             d="m 0,0 c 0.182,0 0.325,-0.028 0.417,-0.09 0.048,-0.032 0.101,-0.087 0.093,-0.227 -0.017,-0.3 -0.139,-0.532 -0.373,-0.709 -0.843,-0.637 -2.892,-0.37 -4,-0.161 C -2.585,-0.624 -0.86,0 0,0 m -1.642,-1.772 c 0.788,0 1.519,0.122 1.985,0.474 0.315,0.237 0.486,0.561 0.508,0.962 0.017,0.29 -0.123,0.448 -0.243,0.528 -0.936,0.637 -4.67,-1.088 -5.093,-1.287 -0.067,-0.031 -0.105,-0.101 -0.098,-0.173 0.009,-0.072 0.062,-0.132 0.133,-0.148 0.745,-0.165 1.82,-0.356 2.808,-0.356"
             style="fill:#007cff;fill-opacity:1;fill-rule:nonzero;stroke:none"
             id="path474" /></g><g
           id="g476"
           transform="translate(310.8784,96.3418)"><path
             d="M 0,0 C 0.046,0 0.094,-0.003 0.142,-0.009 0.493,-0.051 0.511,-0.184 0.518,-0.228 0.599,-0.827 -1.083,-2.362 -2.298,-2.999 -2.047,-2.141 -1.292,0 0,0 m -2.558,-3.48 c 0.021,0 0.043,0.004 0.064,0.012 1.123,0.46 3.476,2.349 3.349,3.286 -0.026,0.2 -0.166,0.452 -0.672,0.512 -2.014,0.232 -2.872,-3.445 -2.908,-3.601 -0.014,-0.063 0.008,-0.128 0.056,-0.169 0.032,-0.026 0.071,-0.04 0.111,-0.04"
             style="fill:#007cff;fill-opacity:1;fill-rule:nonzero;stroke:none"
             id="path478" /></g><g
           id="g480"
           transform="translate(329.2104,347.1985)"><path
             d="m 0,0 -1.705,0.385 c 0,0 0.937,-1.259 1.705,-0.385"
             style="fill:#1a2e35;fill-opacity:1;fill-rule:nonzero;stroke:none"
             id="path482" /></g></g></g><g
       id="g484"><g
         id="g486"
         clip-path="url(#clipPath490)"><g
           id="g492"
           transform="translate(152.5063,88.2935)"><path
             d="m 0,0 113.098,9.882 c 7.65,0.669 13.362,7.474 12.694,15.124 l -23.575,269.788 c -0.668,7.649 -7.474,13.361 -15.123,12.693 l -113.098,-9.883 c -7.65,-0.668 -13.362,-7.474 -12.693,-15.123 L -15.124,12.693 C -14.455,5.043 -7.649,-0.668 0,0"
             style="fill:#007cff;fill-opacity:1;fill-rule:nonzero;stroke:none"
             id="path494" /></g><g
           id="g496"
           transform="translate(122.3018,291.1143)"><path
             d="M 0,0 V 0 C 2.177,0.19 3.803,2.127 3.613,4.305 L 0.5,39.93 c -0.19,2.178 -2.127,3.804 -4.305,3.613 -2.177,-0.19 -3.802,-2.127 -3.612,-4.304 L -4.304,3.613 C -4.114,1.436 -2.177,-0.19 0,0"
             style="fill:#007cff;fill-opacity:1;fill-rule:nonzero;stroke:none"
             id="path498" /></g><g
           id="g500"
           transform="translate(260.4238,319.2288)"><path
             d="M 0,0 1.391,0.121 C 3.006,0.263 4.212,1.7 4.071,3.316 l -1.9,21.744 c -0.141,1.616 -1.578,2.822 -3.194,2.681 l -1.391,-0.122 c -1.615,-0.141 -2.821,-1.578 -2.68,-3.194 l 1.9,-21.744 C -3.053,1.065 -1.616,-0.141 0,0"
             style="fill:#1a2e35;fill-opacity:1;fill-rule:nonzero;stroke:none"
             id="path502" /></g><g
           id="g504"
           transform="translate(263.6147,282.7114)"><path
             d="M 0,0 1.391,0.122 C 3.006,0.263 4.212,1.7 4.071,3.316 L 2.171,25.06 C 2.03,26.676 0.593,27.882 -1.023,27.741 L -2.414,27.62 c -1.615,-0.142 -2.821,-1.579 -2.68,-3.195 l 1.9,-21.744 C -3.053,1.065 -1.616,-0.141 0,0"
             style="fill:#1a2e35;fill-opacity:1;fill-rule:nonzero;stroke:none"
             id="path506" /></g><g
           id="g508"
           transform="translate(154.8857,88.5012)"><path
             d="m 0,0 113.098,9.883 c 7.65,0.668 13.361,7.474 12.693,15.123 l -23.574,269.788 c -0.668,7.649 -7.474,13.361 -15.124,12.693 l -113.097,-9.882 c -7.65,-0.669 -13.362,-7.475 -12.694,-15.124 L -15.124,12.693 C -14.456,5.043 -7.65,-0.668 0,0"
             style="fill:#1a2e35;fill-opacity:1;fill-rule:nonzero;stroke:none"
             id="path510" /></g><g
           id="g512"><g
             id="g514" /><g
             id="g526"><g
               clip-path="url(#clipPath518)"
               opacity="0.399994"
               id="g524"><g
                 transform="translate(143.752,105.3162)"
                 id="g522"><path
                   d="m 0,0 132.28,11.558 c 1.438,0.126 2.502,1.394 2.377,2.832 l -22.423,256.606 c -0.125,1.438 -1.393,2.502 -2.831,2.377 l -132.28,-11.559 c -1.438,-0.126 -2.502,-1.393 -2.376,-2.831 L -2.831,2.376 C -2.706,0.938 -1.438,-0.126 0,0"
                   style="fill:#007cff;fill-opacity:1;fill-rule:nonzero;stroke:none"
                   id="path520" /></g></g></g></g><g
           id="g528"><g
             id="g530" /><g
             id="g542"><g
               clip-path="url(#clipPath534)"
               opacity="0.300003"
               id="g540"><g
                 transform="translate(235.6938,377.1627)"
                 id="g538"><path
                   d="m 0,0 -16.622,-265.266 -27.647,-2.416 16.622,265.266 z"
                   style="fill:#007cff;fill-opacity:1;fill-rule:nonzero;stroke:none"
                   id="path536" /></g></g></g></g><g
           id="g544"><g
             id="g546" /><g
             id="g558"><g
               clip-path="url(#clipPath550)"
               opacity="0.199997"
               id="g556"><g
                 transform="translate(200.1299,385.6829)"
                 id="g554"><path
                   d="m 0,0 -28.246,-2.468 c -0.652,-0.057 -1.139,-0.637 -1.082,-1.289 l 0.1,-1.148 c 0.058,-0.652 0.638,-1.139 1.29,-1.082 l 28.246,2.468 c 0.651,0.057 1.139,0.637 1.082,1.289 L 1.289,-1.082 C 1.232,-0.43 0.652,0.057 0,0"
                   style="fill:#ffffff;fill-opacity:1;fill-rule:nonzero;stroke:none"
                   id="path552" /></g></g></g></g><g
           id="g560"
           transform="translate(173.7969,282.8832)"><path
             d="m 0,0 h 137.609 c 7.424,0 13.498,-6.074 13.498,-13.498 V -80.99 c 0,-7.424 -6.074,-13.499 -13.498,-13.499 H 89.995 l -21.191,-21.19 -21.19,21.19 H 0 c -7.424,0 -13.498,6.075 -13.498,13.499 v 67.492 C -13.498,-6.074 -7.424,0 0,0"
             style="fill:#007cff;fill-opacity:1;fill-rule:nonzero;stroke:none"
             id="path562" /></g><g
           id="g564"><g
             id="g566" /><g
             id="g578"><g
               clip-path="url(#clipPath570)"
               opacity="0.300003"
               id="g576"><g
                 transform="translate(173.7969,282.8832)"
                 id="g574"><path
                   d="m 0,0 h 137.609 c 7.424,0 13.498,-6.074 13.498,-13.498 V -80.99 c 0,-7.424 -6.074,-13.499 -13.498,-13.499 H 89.995 l -21.191,-21.19 -21.19,21.19 H 0 c -7.424,0 -13.498,6.075 -13.498,13.499 v 67.492 C -13.498,-6.074 -7.424,0 0,0"
                   style="fill:#ffffff;fill-opacity:1;fill-rule:nonzero;stroke:none"
                   id="path572" /></g></g></g></g><g
           id="g580"
           transform="translate(182.6216,259.4911)"><path
             d="m 0,0 v -47.704 c 0,-3.882 3.105,-7.058 6.901,-7.058 h 106.158 c 3.795,0 6.9,3.176 6.9,7.058 V 0 c 0,0.929 -0.178,1.823 -0.505,2.635 -1.024,2.588 -3.509,4.423 -6.395,4.423 H 6.901 C 4.02,7.058 1.529,5.223 0.506,2.641 0.178,1.823 0,0.935 0,0"
             style="fill:#ffffff;fill-opacity:1;fill-rule:nonzero;stroke:none"
             id="path582" /></g><g
           id="g584"><g
             id="g586" /><g
             id="g598"><g
               clip-path="url(#clipPath590)"
               opacity="0.100006"
               id="g596"><g
                 transform="translate(183.1274,262.1317)"
                 id="g594"><path
                   d="m 0,0 51.322,-22.353 c 5.21,-2.269 11.099,-2.27 16.309,-10e-4 l 51.317,22.348 c -1.024,2.588 -3.509,4.423 -6.395,4.423 H 6.395 C 3.514,4.417 1.023,2.582 0,0"
                   style="fill:#000000;fill-opacity:1;fill-rule:nonzero;stroke:none"
                   id="path592" /></g></g></g></g><g
           id="g600"
           transform="translate(150.4038,276.8896)"><path
             d="m 0,0 c 0,-11.332 9.186,-20.518 20.518,-20.518 11.332,0 20.518,9.186 20.518,20.518 0,11.332 -9.186,20.518 -20.518,20.518 C 9.186,20.518 0,11.332 0,0"
             style="fill:#fe5652;fill-opacity:1;fill-rule:nonzero;stroke:none"
             id="path602" /></g><g
           id="g604"
           transform="translate(174.875,264.3772)"><path
             d="m 0,0 h -4.777 v 18.004 c -1.746,-1.632 -3.803,-2.839 -6.172,-3.621 v 4.335 c 1.247,0.408 2.601,1.181 4.064,2.32 1.462,1.139 2.465,2.468 3.009,3.987 H 0 Z"
             style="fill:#ffffff;fill-opacity:1;fill-rule:nonzero;stroke:none"
             id="path606" /></g><g
           id="g608"
           transform="translate(286.3672,404.0826)"><path
             d="m 0,0 c -1.448,0 -2.718,1.058 -2.94,2.534 -2.822,18.755 -20.375,31.717 -39.133,28.895 -1.625,-0.245 -3.141,0.875 -3.386,2.501 -0.245,1.626 0.875,3.142 2.501,3.386 C -20.954,40.628 -0.364,25.421 2.947,3.42 3.192,1.794 2.072,0.278 0.446,0.034 0.296,0.011 0.147,0 0,0"
             style="fill:#007cff;fill-opacity:1;fill-rule:nonzero;stroke:none"
             id="path610" /></g><g
           id="g612"
           transform="translate(271.5845,401.858)"><path
             d="m 0,0 c -1.449,0 -2.718,1.058 -2.94,2.534 -1.596,10.604 -11.522,17.932 -22.125,16.337 -1.625,-0.245 -3.143,0.875 -3.387,2.501 -0.245,1.625 0.875,3.141 2.501,3.386 C -12.101,26.842 0.863,17.27 2.947,3.42 3.192,1.794 2.072,0.278 0.446,0.034 0.296,0.011 0.147,0 0,0"
             style="fill:#007cff;fill-opacity:1;fill-rule:nonzero;stroke:none"
             id="path614" /></g><g
           id="g616"
           transform="translate(256.8008,399.6335)"><path
             d="m 0,0 c -1.448,0 -2.718,1.058 -2.939,2.534 -0.18,1.188 -0.81,2.236 -1.777,2.949 -0.966,0.714 -2.151,1.008 -3.341,0.83 -1.625,-0.245 -3.142,0.874 -3.386,2.5 -0.245,1.626 0.875,3.142 2.501,3.387 2.762,0.415 5.517,-0.269 7.763,-1.928 C 1.066,8.614 2.532,6.181 2.947,3.42 3.192,1.794 2.072,0.278 0.447,0.034 0.297,0.011 0.147,0 0,0"
             style="fill:#007cff;fill-opacity:1;fill-rule:nonzero;stroke:none"
             id="path618" /></g></g></g></g></svg>
