<?xml version="1.0" encoding="UTF-8" standalone="no"?>
<svg
   xmlns:dc="http://purl.org/dc/elements/1.1/"
   xmlns:cc="http://creativecommons.org/ns#"
   xmlns:rdf="http://www.w3.org/1999/02/22-rdf-syntax-ns#"
   xmlns:svg="http://www.w3.org/2000/svg"
   xmlns="http://www.w3.org/2000/svg"
   xmlns:sodipodi="http://sodipodi.sourceforge.net/DTD/sodipodi-0.dtd"
   xmlns:inkscape="http://www.inkscape.org/namespaces/inkscape"
   version="1.1"
   id="svg2"
   xml:space="preserve"
   width="666.66669"
   height="666.66669"
   viewBox="0 0 666.66669 666.66669"
   sodipodi:docname="5806787.ai"><metadata
     id="metadata8"><rdf:RDF><cc:Work
         rdf:about=""><dc:format>image/svg+xml</dc:format><dc:type
           rdf:resource="http://purl.org/dc/dcmitype/StillImage" /></cc:Work></rdf:RDF></metadata><defs
     id="defs6"><clipPath
       clipPathUnits="userSpaceOnUse"
       id="clipPath18"><path
         d="M 0,500 H 500 V 0 H 0 Z"
         id="path16" /></clipPath><clipPath
       clipPathUnits="userSpaceOnUse"
       id="clipPath90"><path
         d="M 0,500 H 500 V 0 H 0 Z"
         id="path88" /></clipPath><clipPath
       clipPathUnits="userSpaceOnUse"
       id="clipPath102"><path
         d="M 0,500 H 500 V 0 H 0 Z"
         id="path100" /></clipPath><clipPath
       clipPathUnits="userSpaceOnUse"
       id="clipPath126"><path
         d="M 0,500 H 500 V 0 H 0 Z"
         id="path124" /></clipPath><clipPath
       clipPathUnits="userSpaceOnUse"
       id="clipPath230"><path
         d="M 0,500 H 500 V 0 H 0 Z"
         id="path228" /></clipPath><clipPath
       clipPathUnits="userSpaceOnUse"
       id="clipPath386"><path
         d="m 196.306,182.494 h 78.973 v -41.139 h -78.973 z"
         id="path384" /></clipPath><clipPath
       clipPathUnits="userSpaceOnUse"
       id="clipPath466"><path
         d="M 0,500 H 500 V 0 H 0 Z"
         id="path464" /></clipPath><clipPath
       clipPathUnits="userSpaceOnUse"
       id="clipPath570"><path
         d="M 0,500 H 500 V 0 H 0 Z"
         id="path568" /></clipPath></defs><sodipodi:namedview
     pagecolor="#ffffff"
     bordercolor="#666666"
     borderopacity="1"
     objecttolerance="10"
     gridtolerance="10"
     guidetolerance="10"
     inkscape:pageopacity="0"
     inkscape:pageshadow="2"
     inkscape:window-width="640"
     inkscape:window-height="480"
     id="namedview4" /><g
     id="g10"
     inkscape:groupmode="layer"
     inkscape:label="5806787"
     transform="matrix(1.3333333,0,0,-1.3333333,0,666.66667)"><g
       id="g12"><g
         id="g14"
         clip-path="url(#clipPath18)"><g
           id="g20"
           transform="translate(415.7233,71.7741)"><path
             d="m 0,0 h 3.413 l 7.447,10.379 v 6.811 c 0,0 5.276,0.326 4.655,-8.594 -0.621,-8.921 0.05,-6.65 0.05,-6.65 0,0 11.201,-0.043 12.131,-1.015 0.678,-0.707 0.984,-11.833 1.101,-17.868 0.058,-3.037 -1.805,-5.862 -4.63,-6.58 -0.401,-0.102 -0.807,-0.162 -1.205,-0.162 -2.793,0 -17.066,2.271 -17.066,2.271 H 0 Z"
             style="fill:#e1e1e1;fill-opacity:1;fill-rule:nonzero;stroke:none"
             id="path22" /></g><g
           id="g24"
           transform="translate(405.9537,73.6442)"><path
             d="M 0,0 2.099,-23.342 H 7.943 V -0.47 Z"
             style="fill:#e1e1e1;fill-opacity:1;fill-rule:nonzero;stroke:none"
             id="path26" /></g><g
           id="g28"
           transform="translate(241.2111,422.7565)"><path
             d="m 0,0 14.702,-21.02 c 1.61,-2.303 5.038,-2.246 6.571,0.109 L 35.502,0.951 Z"
             style="fill:#e1e1e1;fill-opacity:1;fill-rule:nonzero;stroke:none"
             id="path30" /></g><g
           id="g32"
           transform="translate(278.4889,411.1262)"><path
             d="m 0,0 h -41.261 c -6.386,0 -11.563,5.177 -11.563,11.563 v 23.699 c 0,6.386 5.177,11.563 11.563,11.563 H 0 c 6.387,0 11.563,-5.177 11.563,-11.563 V 11.563 C 11.563,5.177 6.387,0 0,0"
             style="fill:#e1e1e1;fill-opacity:1;fill-rule:nonzero;stroke:none"
             id="path34" /></g><g
           id="g36"
           transform="translate(270.4664,438.8425)"><path
             d="M 0,0 C -2.063,3.772 -5.485,4.358 -7.786,3.499 -10.287,2.564 -11.585,0 -11.585,0 c 0,0 -1.298,2.564 -3.799,3.499 -2.301,0.859 -5.722,0.273 -7.786,-3.499 -4.308,-7.872 11.585,-18.121 11.585,-18.121 0,0 15.893,10.249 11.585,18.121"
             style="fill:#ffffff;fill-opacity:1;fill-rule:nonzero;stroke:none"
             id="path38" /></g><g
           id="g40"
           transform="translate(79.8048,95.0876)"><path
             d="m 0,0 h 33.907 c 7.54,0 13.652,-6.112 13.652,-13.652 v -17.211 c 0,-7.54 -6.112,-13.653 -13.652,-13.653 h -8.86 l -6.243,-8.925 c -1.531,-2.19 -4.791,-2.135 -6.248,0.104 l -5.742,8.821 H 0 c -7.54,0 -13.652,6.113 -13.652,13.653 v 17.211 C -13.652,-6.112 -7.54,0 0,0"
             style="fill:#e1e1e1;fill-opacity:1;fill-rule:nonzero;stroke:none"
             id="path42" /></g><g
           id="g44"
           transform="translate(95.5499,81.4138)"><path
             d="M 0,0 V -17.561 L -12.569,-8.78 Z"
             style="fill:#ffffff;fill-opacity:1;fill-rule:nonzero;stroke:none"
             id="path46" /></g><g
           id="g48"
           transform="translate(112.3712,62.4665)"><path
             d="m 0,0 c 0,0 -0.832,12.478 -10.813,12.662 h -6.378 v -5.36 l 6.285,-0.093 c 0,0 6.579,0.153 10.906,-7.209"
             style="fill:#ffffff;fill-opacity:1;fill-rule:nonzero;stroke:none"
             id="path50" /></g><g
           id="g52"
           transform="translate(100.487,280.9802)"><path
             d="m 0,0 c 0,-4.965 -4.025,-8.99 -8.99,-8.99 -4.966,0 -8.991,4.025 -8.991,8.99 0,4.965 4.025,8.99 8.991,8.99 C -4.025,8.99 0,4.965 0,0"
             style="fill:#e1e1e1;fill-opacity:1;fill-rule:nonzero;stroke:none"
             id="path54" /></g><g
           id="g56"
           transform="translate(91.4967,273.0827)"><path
             d="M 0,0 C -8.488,0 -15.37,-6.881 -15.37,-15.369 H 15.369 C 15.369,-6.881 8.488,0 0,0"
             style="fill:#e1e1e1;fill-opacity:1;fill-rule:nonzero;stroke:none"
             id="path58" /></g><g
           id="g60"
           transform="translate(343.2545,449.8776)"><path
             d="m 0,0 c 0,-3.453 -2.8,-6.252 -6.252,-6.252 -3.453,0 -6.252,2.799 -6.252,6.252 0,3.453 2.799,6.251 6.252,6.251 C -2.8,6.251 0,3.453 0,0"
             style="fill:#e1e1e1;fill-opacity:1;fill-rule:nonzero;stroke:none"
             id="path62" /></g><g
           id="g64"
           transform="translate(360.5944,435.2492)"><path
             d="m 0,0 c 0,-3.453 -2.799,-6.251 -6.251,-6.251 -3.453,0 -6.252,2.798 -6.252,6.251 0,3.453 2.799,6.252 6.252,6.252 C -2.799,6.252 0,3.453 0,0"
             style="fill:#e1e1e1;fill-opacity:1;fill-rule:nonzero;stroke:none"
             id="path66" /></g><g
           id="g68"
           transform="translate(343.3512,420.3307)"><path
             d="m 0,0 c 0,-3.453 -2.799,-6.252 -6.252,-6.252 -3.452,0 -6.252,2.799 -6.252,6.252 0,3.453 2.8,6.251 6.252,6.251 C -2.799,6.251 0,3.453 0,0"
             style="fill:#e1e1e1;fill-opacity:1;fill-rule:nonzero;stroke:none"
             id="path70" /></g><g
           id="g72"
           transform="translate(337.0026,449.8776)"><path
             d="M 0,0 17.341,-14.628 0.097,-29.547"
             style="fill:none;stroke:#e1e1e1;stroke-width:1;stroke-linecap:butt;stroke-linejoin:miter;stroke-miterlimit:10;stroke-dasharray:none;stroke-opacity:1"
             id="path74" /></g><g
           id="g76"
           transform="translate(451.0992,303.2526)"><path
             d="M 0,0 C -2.699,4.933 -7.175,5.7 -10.184,4.576 -13.453,3.354 -15.151,0 -15.151,0 c 0,0 -1.699,3.354 -4.968,4.576 C -23.128,5.7 -27.604,4.933 -30.303,0 c -5.634,-10.295 15.152,-23.699 15.152,-23.699 0,0 20.785,13.404 15.151,23.699"
             style="fill:#e1e1e1;fill-opacity:1;fill-rule:nonzero;stroke:none"
             id="path78" /></g><g
           id="g80"
           transform="translate(426.5182,255.2526)"><path
             d="M 0,0 C -1.923,3.515 -5.111,4.061 -7.255,3.26 -9.585,2.39 -10.795,0 -10.795,0 c 0,0 -1.21,2.39 -3.539,3.26 -2.144,0.801 -5.333,0.255 -7.256,-3.26 -4.013,-7.335 10.795,-16.884 10.795,-16.884 0,0 14.809,9.549 10.795,16.884"
             style="fill:#e1e1e1;fill-opacity:1;fill-rule:nonzero;stroke:none"
             id="path82" /></g></g></g><g
       id="g84"><g
         id="g86"
         clip-path="url(#clipPath90)"><g
           id="g92"
           transform="translate(404.6823,374.4455)"><path
             d="m 0,0 -2.164,3.566 c -18.24,30.058 -51.219,48.178 -85.989,45.979 -4.47,-0.283 -8.92,-0.888 -13.311,-1.828 -31.613,-6.767 -59.121,-30.673 -70.523,-61.291 -6.705,-18.006 -8.579,-38.738 -21.304,-53.03 -16.561,-18.602 -44.677,-19.186 -69.397,-18.416 -24.72,0.771 -52.855,0.114 -69.335,-18.561 -10.322,-11.695 -13.602,-28.327 -12.77,-43.99 2.204,-41.468 31.099,-78.546 67.847,-96.975 36.747,-18.43 80.013,-20.08 120.232,-11.974 56.34,11.357 109.92,42.548 142.125,90.721 C 17.616,-117.625 25.768,-51.994 0,0"
             style="fill:#f5f5f5;fill-opacity:1;fill-rule:nonzero;stroke:none"
             id="path94" /></g></g></g><g
       id="g96"><g
         id="g98"
         clip-path="url(#clipPath102)"><g
           id="g104"
           transform="translate(442.7506,425.6516)"><path
             d="m 0,0 h -66.683 c -8.176,0 -14.804,-6.628 -14.804,-14.804 v -40.418 c 0,-8.176 6.628,-14.804 14.803,-14.804 h 20.611 l 11.553,-16.521 c 1.581,-2.258 4.943,-2.202 6.446,0.108 l 10.683,16.413 H 0 c 8.176,0 14.804,6.628 14.804,14.804 v 40.418 C 14.804,-6.628 8.176,0 0,0"
             style="fill:#ffffff;fill-opacity:1;fill-rule:nonzero;stroke:none"
             id="path106" /></g><g
           id="g108"
           transform="translate(442.7506,425.6516)"><path
             d="m 0,0 c 0,0 0.168,0.005 0.499,-0.005 0.328,-0.03 0.829,0.018 1.471,-0.1 1.281,-0.143 3.227,-0.536 5.414,-1.788 2.16,-1.232 4.63,-3.355 6.157,-6.677 0.764,-1.643 1.279,-3.559 1.365,-5.635 0.066,-2.066 0.028,-4.243 0.046,-6.548 0.016,-9.217 0.035,-20.341 0.057,-32.986 0.023,-1.569 -0.015,-3.222 -0.383,-4.831 -0.343,-1.616 -1.009,-3.183 -1.909,-4.618 -1.798,-2.867 -4.643,-5.229 -8.059,-6.319 -1.695,-0.566 -3.526,-0.761 -5.331,-0.75 -1.8,-10e-4 -3.62,-0.003 -5.459,-0.004 -3.679,-0.003 -7.433,-0.006 -11.259,-0.008 l 0.204,0.11 c -1.994,-3.065 -4.034,-6.203 -6.115,-9.405 -1.041,-1.601 -2.092,-3.217 -3.152,-4.848 -0.545,-0.818 -1.032,-1.63 -1.63,-2.463 -0.634,-0.834 -1.616,-1.389 -2.657,-1.542 -1.042,-0.143 -2.149,0.103 -3.009,0.738 -0.441,0.295 -0.796,0.726 -1.087,1.141 l -0.863,1.233 c -1.154,1.648 -2.315,3.307 -3.485,4.978 -2.337,3.343 -4.707,6.729 -7.101,10.152 l 0.213,-0.111 c -3.581,0 -7.411,-0.001 -11.273,-0.001 -2.812,0 -5.608,0 -8.385,0.001 -1.38,-0.03 -2.816,0.07 -4.183,0.356 -1.374,0.3 -2.684,0.814 -3.924,1.45 -2.439,1.348 -4.503,3.33 -5.869,5.716 -1.394,2.364 -2.055,5.115 -2.035,7.797 0.005,10.607 0.01,20.839 0.014,30.586 0.002,2.437 0.004,4.843 0.006,7.218 0.007,1.189 -0.025,2.359 0.063,3.554 0.022,0.595 0.161,1.176 0.235,1.76 0.142,0.573 0.272,1.149 0.453,1.705 0.74,2.226 1.986,4.237 3.571,5.865 1.59,1.626 3.54,2.833 5.602,3.583 0.511,0.208 1.041,0.343 1.57,0.472 0.524,0.159 1.067,0.209 1.599,0.296 1.071,0.14 2.148,0.141 3.187,0.136 2.09,-0.002 4.142,-0.004 6.154,-0.007 4.023,-0.006 7.885,-0.012 11.57,-0.017 C -32.984,0.149 -21.061,0.121 -12.803,0.102 -8.69,0.08 -5.495,0.064 -3.31,0.052 -2.235,0.041 -1.412,0.033 -0.841,0.027 -0.285,0.018 0,0 0,0 0,0 -0.285,-0.018 -0.841,-0.027 -1.412,-0.033 -2.235,-0.041 -3.31,-0.052 c -2.185,-0.012 -5.38,-0.028 -9.493,-0.05 -8.258,-0.019 -20.181,-0.047 -34.915,-0.082 -3.685,-0.005 -7.547,-0.011 -11.57,-0.017 -2.012,-0.003 -4.064,-0.005 -6.154,-0.007 -1.051,0.001 -2.093,-0.003 -3.132,-0.141 -0.518,-0.087 -1.045,-0.135 -1.552,-0.291 -0.515,-0.127 -1.029,-0.258 -1.524,-0.463 -2.002,-0.731 -3.892,-1.907 -5.433,-3.488 -1.535,-1.584 -2.739,-3.536 -3.452,-5.695 -0.175,-0.539 -0.3,-1.098 -0.437,-1.652 -0.07,-0.568 -0.205,-1.131 -0.224,-1.708 -0.083,-1.142 -0.051,-2.332 -0.057,-3.517 0.002,-2.375 0.004,-4.781 0.006,-7.218 0.005,-9.747 0.01,-19.979 0.015,-30.586 -0.016,-2.61 0.623,-5.253 1.97,-7.539 1.321,-2.304 3.316,-4.217 5.671,-5.518 1.197,-0.613 2.462,-1.11 3.788,-1.399 1.334,-0.275 2.674,-0.372 4.072,-0.343 h 8.385 c 3.862,0 7.692,-10e-4 11.273,-10e-4 h 0.135 l 0.078,-0.11 c 2.392,-3.424 4.761,-6.811 7.098,-10.154 1.168,-1.672 2.329,-3.332 3.481,-4.98 l 0.863,-1.234 c 0.283,-0.401 0.574,-0.755 0.966,-1.021 0.751,-0.556 1.723,-0.772 2.639,-0.648 0.916,0.136 1.773,0.618 2.332,1.351 0.545,0.761 1.072,1.624 1.605,2.425 1.062,1.631 2.114,3.246 3.157,4.846 2.084,3.199 4.128,6.335 6.124,9.398 l 0.073,0.111 0.131,-0.001 c 3.826,-0.002 7.58,-0.005 11.259,-0.008 1.839,-0.001 3.659,-0.002 5.459,-0.003 1.791,-0.013 3.537,0.172 5.192,0.717 3.313,1.052 6.08,3.339 7.833,6.119 0.877,1.393 1.528,2.913 1.865,4.482 0.36,1.57 0.402,3.149 0.383,4.738 0.021,12.645 0.04,23.769 0.055,32.986 -0.008,2.3 0.04,4.492 -0.013,6.538 -0.074,2.039 -0.569,3.926 -1.31,5.548 C 11.85,-5.387 9.43,-3.27 7.306,-2.031 5.154,-0.77 3.23,-0.353 1.959,-0.186 1.322,-0.055 0.825,-0.089 0.497,-0.045 0.168,-0.022 0,0 0,0"
             style="fill:#1a2e35;fill-opacity:1;fill-rule:nonzero;stroke:none"
             id="path110" /></g><g
           id="g112"
           transform="translate(411.3092,404.1418)"><path
             d="m 0,0 v -27.625 l 19.773,13.812 z"
             style="fill:#ff735d;fill-opacity:1;fill-rule:nonzero;stroke:none"
             id="path114" /></g><g
           id="g116"
           transform="translate(384.8483,374.3366)"><path
             d="M 0,0 C 0,0 1.309,19.627 17.011,19.918 H 27.043 V 11.486 L 17.156,11.34 C 17.156,11.34 6.806,11.581 0,0"
             style="fill:#ff735d;fill-opacity:1;fill-rule:nonzero;stroke:none"
             id="path118" /></g></g></g><g
       id="g120"><g
         id="g122"
         clip-path="url(#clipPath126)"><g
           id="g128"
           transform="translate(48.236,328.2853)"><path
             d="m 0,0 h 137.575 c 7.735,0 14.005,6.27 14.005,14.005 v 106.434 c 0,7.735 -6.27,14.006 -14.005,14.006 H 0 c -7.735,0 -14.005,-6.271 -14.005,-14.006 V 14.005 C -14.005,6.27 -7.735,0 0,0"
             style="fill:#ffffff;fill-opacity:1;fill-rule:nonzero;stroke:none"
             id="path130" /></g><g
           id="g132"
           transform="translate(110.3703,332.4006)"><path
             d="M 0,0 C -1.699,-4.115 -34.543,-34.983 -34.543,-34.983 V 0 Z"
             style="fill:#375a64;fill-opacity:1;fill-rule:nonzero;stroke:none"
             id="path134" /></g><g
           id="g136"
           transform="translate(150.5377,403.7282)"><path
             d="m 0,0 c 0.084,7.013 1.189,14.002 0.92,21.011 -0.268,7.008 -2.113,14.308 -7.003,19.335 -4.89,5.028 -13.381,6.946 -19.102,2.889 l -1.174,-5.968 c 2.253,-27.041 4.505,-54.083 6.756,-81.124 0.296,-3.553 0.62,-7.207 2.236,-10.385 1.615,-3.177 4.857,-5.8 8.415,-5.581 4.655,0.286 7.71,5.005 9.157,9.439 C 5.452,-34.313 -0.203,-16.906 0,0"
             style="fill:#1a2e35;fill-opacity:1;fill-rule:nonzero;stroke:none"
             id="path138" /></g><g
           id="g140"
           transform="translate(133.6715,440.0895)"><path
             d="m 0,0 c -1.019,1.733 -2.066,3.492 -3.565,4.833 -1.498,1.34 -3.546,2.219 -5.521,1.844 -0.93,-0.177 -1.875,-0.705 -2.187,-1.598 -0.313,-0.893 0.355,-2.087 1.298,-2.009 l 0.201,-0.173 c 2.1,-1.857 4.236,-3.672 6.408,-5.445 0.547,-0.447 1.114,-0.901 1.789,-1.107 0.676,-0.207 1.492,-0.111 1.96,0.417 C 1.158,-2.365 0.592,-1.006 0,0"
             style="fill:#ff735d;fill-opacity:1;fill-rule:nonzero;stroke:none"
             id="path142" /></g><g
           id="g144"
           transform="translate(137.6344,433.2048)"><path
             d="m 0,0 c -6.989,8.542 -16.375,13.46 -27.411,13.643 -6.225,0.103 -8.802,-1.191 -13.286,-2.401 -4.483,-1.209 -8.529,-3.615 -11.203,-7.411 -3.178,-4.509 -5.846,-9.559 -6.447,-15.042 -0.617,-5.633 -1.235,-11.303 -0.81,-16.953 0.425,-5.65 1.96,-11.34 5.287,-15.927 l 14.376,-2.497 c 7.94,-0.271 15.99,-0.531 23.724,1.28 7.735,1.811 15.251,5.973 19.394,12.752 C 9.379,-23.139 6.989,-8.542 0,0"
             style="fill:#1a2e35;fill-opacity:1;fill-rule:nonzero;stroke:none"
             id="path146" /></g><g
           id="g148"
           transform="translate(98.0846,361.0969)"><path
             d="m 0,0 c 0.096,5.045 0.266,11.369 0.266,11.346 0,0 -11.723,1.291 -14.962,16.316 -1.611,7.471 -1.91,19.851 -1.828,29.988 0.073,9.124 7.843,21.549 19.109,21.589 l 5.007,0.582 19.166,-7.618 c 2.768,-0.14 4.969,-2.376 5.066,-5.146 L 32.548,0.988 20.267,-19.523 -1.707,-2.5 Z"
             style="fill:#cc6760;fill-opacity:1;fill-rule:nonzero;stroke:none"
             id="path150" /></g><g
           id="g152"
           transform="translate(105.9249,392.2746)"><path
             d="m 0,0 c -0.104,0.792 -0.544,1.492 -1.106,1.973 -1.123,0.962 -2.763,1.056 -3.965,0.226 -1.201,-0.829 -1.89,-2.529 -1.663,-4.11 0.674,-0.927 1.706,-1.553 2.848,-1.652 0.178,-0.015 0.356,-0.021 0.535,-0.017 0.866,0.022 1.747,0.315 2.409,0.954 C -0.281,-1.988 0.128,-0.977 0,0"
             style="fill:#9d4941;fill-opacity:1;fill-rule:nonzero;stroke:none"
             id="path154" /></g><g
           id="g156"
           transform="translate(87.6066,407.0349)"><path
             d="M 0,0 C 0.02,-1.029 0.908,-1.86 1.982,-1.859 3.054,-1.857 3.909,-1.025 3.89,0.003 3.87,1.032 2.981,1.864 1.91,1.863 0.835,1.862 -0.021,1.028 0,0"
             style="fill:#1a2e35;fill-opacity:1;fill-rule:nonzero;stroke:none"
             id="path158" /></g><g
           id="g160"
           transform="translate(84.9943,413.6789)"><path
             d="M 0,0 C 0.255,-0.24 1.668,0.93 3.76,1.04 5.848,1.179 7.442,0.187 7.655,0.456 7.761,0.575 7.489,1.019 6.795,1.469 6.11,1.917 4.962,2.327 3.659,2.25 2.357,2.171 1.287,1.631 0.684,1.106 0.068,0.578 -0.125,0.107 0,0"
             style="fill:#1a2e35;fill-opacity:1;fill-rule:nonzero;stroke:none"
             id="path162" /></g><g
           id="g164"
           transform="translate(98.4362,397.2741)"><path
             d="m 0,0 c 0.003,0.12 -1.309,0.272 -3.431,0.427 -0.537,0.026 -1.048,0.104 -1.158,0.464 -0.147,0.379 0.045,0.966 0.269,1.602 0.432,1.32 0.883,2.704 1.357,4.154 C -1.088,12.558 0.239,17.407 0,17.48 -0.239,17.554 -1.953,12.822 -3.829,6.911 -4.278,5.454 -4.708,4.065 -5.117,2.737 -5.286,2.118 -5.595,1.411 -5.279,0.625 c 0.166,-0.392 0.574,-0.659 0.922,-0.733 0.348,-0.086 0.648,-0.075 0.914,-0.076 C -1.317,-0.182 -0.001,-0.119 0,0"
             style="fill:#1a2e35;fill-opacity:1;fill-rule:nonzero;stroke:none"
             id="path166" /></g><g
           id="g168"
           transform="translate(98.3502,372.4431)"><path
             d="m 0,0 c 0,0 10.232,-0.098 20.001,6.528 0,0 -4.831,-10.802 -20.078,-10.216 z"
             style="fill:#9d4941;fill-opacity:1;fill-rule:nonzero;stroke:none"
             id="path170" /></g><g
           id="g172"
           transform="translate(104.6715,396.1652)"><path
             d="m 0,0 c -0.341,0.001 -0.221,-2.27 -2.076,-3.988 -1.851,-1.723 -4.285,-1.601 -4.285,-1.919 -0.024,-0.144 0.563,-0.412 1.586,-0.384 1.004,0.021 2.449,0.424 3.584,1.475 1.131,1.053 1.569,2.399 1.595,3.335 C 0.438,-0.527 0.155,0.022 0,0"
             style="fill:#1a2e35;fill-opacity:1;fill-rule:nonzero;stroke:none"
             id="path174" /></g><g
           id="g176"
           transform="translate(85.7067,421.0041)"><path
             d="M 0,0 C 0.379,-0.491 1.962,-0.062 3.842,-0.115 5.724,-0.107 7.3,-0.575 7.686,-0.093 7.857,0.142 7.625,0.628 6.948,1.107 6.281,1.583 5.15,1.996 3.857,2.013 2.565,2.027 1.429,1.642 0.755,1.182 0.072,0.72 -0.167,0.239 0,0"
             style="fill:#1a2e35;fill-opacity:1;fill-rule:nonzero;stroke:none"
             id="path178" /></g><g
           id="g180"
           transform="translate(111.4088,407.5436)"><path
             d="M 0,0 C 0.054,-1.028 -0.771,-1.92 -1.843,-1.997 -2.912,-2.073 -3.825,-1.304 -3.88,-0.277 -3.934,0.75 -3.108,1.644 -2.04,1.72 -0.967,1.797 -0.054,1.027 0,0"
             style="fill:#1a2e35;fill-opacity:1;fill-rule:nonzero;stroke:none"
             id="path182" /></g><g
           id="g184"
           transform="translate(113.3019,414.488)"><path
             d="m 0,0 c -0.237,-0.258 -1.73,0.808 -3.825,0.766 -2.093,-0.012 -3.612,-1.117 -3.843,-0.864 -0.114,0.112 0.125,0.574 0.785,1.073 0.65,0.497 1.766,0.988 3.07,1.006 1.306,0.015 2.412,-0.446 3.051,-0.926 C -0.109,0.571 0.117,0.116 0,0"
             style="fill:#1a2e35;fill-opacity:1;fill-rule:nonzero;stroke:none"
             id="path186" /></g><g
           id="g188"
           transform="translate(112.0441,421.1901)"><path
             d="m 0,0 c -0.404,-0.482 -2.029,-0.018 -3.972,-0.028 -1.944,0.05 -3.584,-0.382 -3.971,0.109 -0.17,0.239 0.081,0.72 0.792,1.183 C -6.45,1.725 -5.272,2.112 -3.936,2.1 -2.6,2.084 -1.436,1.674 -0.751,1.198 -0.056,0.722 0.178,0.235 0,0"
             style="fill:#1a2e35;fill-opacity:1;fill-rule:nonzero;stroke:none"
             id="path190" /></g><g
           id="g192"
           transform="translate(127.3053,402.6838)"><path
             d="m 0,0 c -0.059,1.129 1.099,3.862 2.205,4.097 2.951,0.627 8.329,0.683 8.794,-6.874 0.635,-10.33 -9.867,-8.837 -9.904,-8.542 C 1.067,-11.089 0.205,-3.898 0,0"
             style="fill:#cc6760;fill-opacity:1;fill-rule:nonzero;stroke:none"
             id="path194" /></g><g
           id="g196"
           transform="translate(131.0182,395.3132)"><path
             d="M 0,0 C 0.043,0.036 0.188,-0.115 0.5,-0.235 0.806,-0.353 1.322,-0.416 1.848,-0.18 2.915,0.287 3.727,2.076 3.662,3.941 3.63,4.883 3.379,5.767 3,6.487 2.638,7.224 2.117,7.722 1.562,7.785 1.007,7.878 0.639,7.525 0.53,7.227 0.409,6.929 0.487,6.727 0.434,6.707 0.406,6.678 0.201,6.865 0.258,7.297 0.288,7.505 0.394,7.756 0.625,7.97 0.86,8.187 1.218,8.312 1.604,8.294 2.404,8.287 3.166,7.599 3.583,6.808 4.042,6.016 4.348,5.024 4.383,3.967 4.445,1.881 3.5,-0.132 2.032,-0.656 1.318,-0.89 0.698,-0.708 0.37,-0.483 0.034,-0.249 -0.034,-0.021 0,0"
             style="fill:#9d4941;fill-opacity:1;fill-rule:nonzero;stroke:none"
             id="path198" /></g><g
           id="g200"
           transform="translate(129.9313,406.7512)"><path
             d="m 0,0 -2.625,-2.723 c -11.334,10.849 -33.484,38.013 -32.248,36.394 0,0 7.765,3.193 16.192,1.758 C -10.253,33.993 5.732,29.775 5.487,19.835 5.242,9.896 0,0 0,0"
             style="fill:#1a2e35;fill-opacity:1;fill-rule:nonzero;stroke:none"
             id="path202" /></g><g
           id="g204"
           transform="translate(144.9415,409.0319)"><path
             d="m 0,0 c 0.018,0.005 -0.037,0.21 -0.158,0.598 -0.124,0.385 -0.345,0.944 -0.705,1.628 -0.718,1.36 -2.092,3.201 -4.317,4.858 -2.192,1.702 -5.231,3.091 -8.692,4.181 -3.455,1.126 -7.351,2 -11.174,3.641 -3.849,1.58 -7.28,3.618 -10.206,5.717 -2.917,2.12 -5.325,4.319 -7.204,6.297 -1.879,1.98 -3.245,3.724 -4.166,4.944 -0.422,0.58 -0.765,1.052 -1.036,1.424 -0.239,0.324 -0.373,0.49 -0.388,0.48 -0.016,-0.01 0.088,-0.195 0.299,-0.539 0.216,-0.341 0.521,-0.854 0.958,-1.485 0.873,-1.262 2.202,-3.051 4.06,-5.079 1.857,-2.026 4.26,-4.274 7.189,-6.436 2.939,-2.141 6.399,-4.214 10.29,-5.811 3.874,-1.662 7.797,-2.525 11.23,-3.618 3.447,-1.059 6.438,-2.385 8.618,-4.016 2.211,-1.588 3.597,-3.351 4.36,-4.659 C -0.285,0.806 -0.054,-0.02 0,0"
             style="fill:#375a64;fill-opacity:1;fill-rule:nonzero;stroke:none"
             id="path206" /></g><g
           id="g208"
           transform="translate(141.9347,407.4055)"><path
             d="m 0,0 c 0,0 0.104,0.846 -0.401,2.258 -0.482,1.401 -1.704,3.304 -3.882,4.864 -2.156,1.61 -5.236,2.606 -8.62,3.379 -3.398,0.75 -7.085,1.708 -10.712,3.399 -3.62,1.677 -6.868,3.708 -9.55,5.895 -2.696,2.171 -4.87,4.425 -6.546,6.435 -1.698,1.999 -2.835,3.798 -3.651,5.018 -0.355,0.587 -0.645,1.066 -0.875,1.446 -0.205,0.328 -0.322,0.497 -0.338,0.489 -0.016,-0.009 0.069,-0.194 0.244,-0.54 0.208,-0.395 0.471,-0.892 0.793,-1.502 0.765,-1.258 1.862,-3.1 3.537,-5.148 1.653,-2.057 3.821,-4.362 6.53,-6.577 2.693,-2.231 5.972,-4.301 9.637,-5.998 3.662,-1.709 7.431,-2.672 10.821,-3.392 3.379,-0.745 6.394,-1.685 8.514,-3.21 2.146,-1.48 3.377,-3.289 3.906,-4.632 C -0.042,0.833 -0.07,-0.012 0,0"
             style="fill:#375a64;fill-opacity:1;fill-rule:nonzero;stroke:none"
             id="path210" /></g><g
           id="g212"
           transform="translate(129.5905,389.2614)"><path
             d="m 0,0 c -0.01,0.069 0.875,0.184 2.405,0.584 1.519,0.424 3.673,1.353 5.781,3.231 2.132,1.85 4.029,4.728 5.37,8.217 1.333,3.491 2.136,7.595 2.239,11.918 0.044,2.159 -0.122,4.265 -0.499,6.265 -0.402,1.994 -0.999,3.87 -1.713,5.598 -1.477,3.442 -3.439,6.241 -5.351,8.334 -3.845,4.206 -7.049,5.9 -6.934,6.044 0.013,0.02 0.209,-0.083 0.572,-0.297 0.358,-0.224 0.909,-0.52 1.561,-0.989 1.327,-0.9 3.174,-2.338 5.156,-4.432 1.986,-2.083 4.032,-4.907 5.574,-8.412 0.746,-1.76 1.369,-3.677 1.791,-5.718 0.395,-2.045 0.57,-4.205 0.525,-6.409 -0.106,-4.399 -0.94,-8.573 -2.336,-12.13 C 12.74,8.251 10.745,5.314 8.504,3.453 6.288,1.563 4.039,0.679 2.473,0.327 1.695,0.112 1.058,0.106 0.643,0.036 0.223,-0.011 0.002,-0.023 0,0"
             style="fill:#375a64;fill-opacity:1;fill-rule:nonzero;stroke:none"
             id="path214" /></g><g
           id="g216"
           transform="translate(65.1388,344.5173)"><path
             d="m 0,0 0.259,0.328 c 11.381,12.044 32.329,16.076 32.329,16.076 0,0 1.282,-7.885 13.024,-8.765 C 57.355,6.758 65.981,18.72 65.981,18.72 l 15.667,-2.194 c 0,0 7.886,-0.929 12.796,-3.818 11.058,-6.504 16.927,-28.94 16.927,-28.94 L -9.446,-16.718 Z"
             style="fill:#375a64;fill-opacity:1;fill-rule:nonzero;stroke:none"
             id="path218" /></g><g
           id="g220"
           transform="translate(54.0905,462.7302)"><path
             d="m 0,0 c 0,0 -0.285,-0.027 -0.844,-0.062 -0.282,-0.017 -0.63,-0.038 -1.043,-0.063 -0.414,-0.037 -0.89,-0.134 -1.433,-0.213 -2.132,-0.396 -5.411,-1.251 -8.767,-3.883 -1.663,-1.302 -3.331,-3.023 -4.696,-5.233 -1.363,-2.201 -2.412,-4.896 -2.794,-7.927 -0.187,-1.513 -0.175,-3.102 -0.164,-4.751 0.002,-1.647 0.005,-3.349 0.008,-5.105 0.005,-3.513 0.01,-7.242 0.016,-11.177 0.015,-15.744 0.033,-34.792 0.054,-56.515 0.004,-5.432 0.008,-11.03 0.012,-16.787 0.008,-1.437 -0.029,-2.895 0.076,-4.329 0.092,-1.441 0.39,-2.869 0.785,-4.276 0.851,-2.799 2.382,-5.419 4.415,-7.617 1.001,-1.118 2.187,-2.063 3.418,-2.945 1.283,-0.805 2.618,-1.563 4.068,-2.071 l 1.083,-0.392 1.119,-0.287 c 0.74,-0.226 1.515,-0.296 2.28,-0.423 0.766,-0.12 1.549,-0.1 2.326,-0.157 0.789,-0.001 1.58,-0.002 2.373,-0.003 6.347,0.002 12.832,0.005 19.444,0.008 h 0.238 v -0.237 c 0.003,-9.753 0.006,-20.179 0.01,-30.867 l -0.417,0.18 c 5.108,4.819 10.314,9.799 15.572,14.922 5.238,5.139 10.602,10.363 15.712,15.937 l 0.078,0.085 h 0.113 c 16.417,10e-4 33.558,0.002 51.042,0.003 5.26,0 10.489,0 15.685,0 h 3.889 c 1.297,-0.01 2.588,-0.005 3.853,0.083 2.537,0.211 5.02,0.922 7.269,2.075 4.512,2.292 8.023,6.375 9.616,11.093 0.83,2.361 1.095,4.84 1.073,7.331 0.001,2.502 0.001,4.993 0.001,7.473 0.006,19.84 0.011,38.977 0.015,57.208 0.004,9.115 0.008,18.003 0.012,26.639 0.008,2.167 0.02,4.29 -0.393,6.36 -0.443,2.057 -1.195,4.025 -2.216,5.825 -1.005,1.814 -2.347,3.409 -3.851,4.777 -1.509,1.363 -3.198,2.524 -5.037,3.326 -1.83,0.803 -3.748,1.412 -5.711,1.618 -1.95,0.223 -3.932,0.159 -5.887,0.169 -3.911,0.002 -7.75,0.004 -11.512,0.007 -7.525,0.006 -14.747,0.012 -21.64,0.017 C 61.682,-0.149 39.372,-0.121 23.945,-0.101 16.241,-0.08 10.257,-0.063 6.19,-0.052 4.167,-0.041 2.622,-0.032 1.573,-0.026 0.533,-0.018 0,0 0,0 0,0 0.533,0.018 1.573,0.027 2.622,0.033 4.167,0.041 6.19,0.053 10.257,0.064 16.241,0.08 23.945,0.102 39.372,0.121 61.682,0.149 89.25,0.184 c 6.893,0.005 14.115,0.011 21.64,0.017 3.762,0.003 7.601,0.005 11.512,0.008 1.952,-0.008 3.93,0.062 5.939,-0.165 2.006,-0.209 3.968,-0.827 5.838,-1.646 1.88,-0.819 3.609,-2.002 5.153,-3.394 1.539,-1.397 2.912,-3.026 3.942,-4.879 1.047,-1.841 1.818,-3.854 2.272,-5.958 0.427,-2.117 0.415,-4.303 0.409,-6.45 0.003,-8.636 0.006,-17.524 0.01,-26.639 0.005,-18.231 0.01,-37.368 0.015,-57.208 0.001,-2.48 0.001,-4.971 0.002,-7.473 0.024,-2.504 -0.249,-5.085 -1.099,-7.498 -1.635,-4.844 -5.236,-9.033 -9.867,-11.387 -2.308,-1.184 -4.858,-1.914 -7.462,-2.132 -1.311,-0.091 -2.604,-0.094 -3.896,-0.085 h -3.889 c -5.196,0 -10.425,-10e-4 -15.685,-10e-4 -17.484,0.002 -34.625,0.003 -51.042,0.004 l 0.19,0.085 c -5.132,-5.595 -10.495,-10.814 -15.74,-15.956 -5.263,-5.122 -10.472,-10.101 -15.586,-14.92 l -0.417,-0.393 v 0.574 c 0.004,10.688 0.007,21.114 0.011,30.867 l 0.236,-0.237 c -6.612,0.003 -13.097,0.006 -19.444,0.008 -0.794,0.002 -1.585,0.004 -2.375,0.006 -0.794,0.058 -1.595,0.039 -2.379,0.163 -0.783,0.13 -1.575,0.203 -2.332,0.435 l -1.144,0.295 -1.108,0.402 c -1.483,0.521 -2.849,1.296 -4.159,2.122 -1.258,0.903 -2.468,1.871 -3.491,3.015 -2.076,2.249 -3.638,4.929 -4.504,7.79 -0.403,1.438 -0.705,2.898 -0.797,4.37 -0.106,1.478 -0.065,2.92 -0.072,4.36 0.004,5.757 0.008,11.355 0.012,16.787 0.021,21.723 0.039,40.771 0.055,56.515 0.005,3.935 0.01,7.664 0.015,11.177 0.003,1.756 0.006,3.458 0.008,5.105 -0.005,1.642 -0.012,3.245 0.183,4.778 0.398,3.064 1.469,5.783 2.855,7.999 1.387,2.224 3.079,3.952 4.762,5.253 3.395,2.633 6.702,3.468 8.846,3.84 0.546,0.074 1.024,0.164 1.44,0.196 0.415,0.017 0.765,0.031 1.047,0.043 C -0.285,-0.001 0,0 0,0"
             style="fill:#1a2e35;fill-opacity:1;fill-rule:nonzero;stroke:none"
             id="path222" /></g></g></g><g
       id="g224"><g
         id="g226"
         clip-path="url(#clipPath230)"><g
           id="g232"
           transform="translate(309.0123,33.9079)"><path
             d="m 0,0 -124.769,0.071 c -15.006,0.007 -27.166,11.605 -27.163,25.905 l 0.062,298.081 c 0.002,14.308 12.179,25.903 27.194,25.895 l 124.77,-0.07 C 15.1,349.874 27.259,338.277 27.256,323.978 L 27.194,25.895 C 27.191,11.587 15.015,-0.008 0,0"
             style="fill:#1a2e35;fill-opacity:1;fill-rule:nonzero;stroke:none"
             id="path234" /></g><g
           id="g236"
           transform="translate(308.9742,373.2473)"><path
             d="m 0,0 -24.191,0.013 c -3.244,0.002 -5.875,-2.617 -5.875,-5.848 l -0.001,-4.182 c 0,-3.232 -2.631,-5.85 -5.875,-5.848 l -47.153,0.026 c -3.244,0.002 -5.874,2.624 -5.873,5.855 l 0.001,4.182 c 0,3.232 -2.629,5.853 -5.873,5.855 l -8.508,0.005 -21.173,0.011 c -10.515,0.006 -19.043,-8.114 -19.045,-18.135 l -0.06,-290.949 c -0.002,-10.017 8.514,-18.138 19.023,-18.144 l 124.521,-0.069 c 10.514,-0.006 19.042,8.114 19.045,18.136 l 0.059,290.949 C 19.024,-8.127 10.509,-0.006 0,0"
             style="fill:#ffffff;fill-opacity:1;fill-rule:nonzero;stroke:none"
             id="path238" /></g><g
           id="g240"
           transform="translate(242.5275,300.7209)"><path
             d="m 0,0 c 3.469,0.263 6.475,3.424 6.562,6.902 0.088,3.479 -2.755,6.787 -6.207,7.224 1.698,2.568 1.547,6.219 -0.356,8.64 -1.903,2.42 -5.415,3.426 -8.312,2.382 -0.695,2.959 -3.025,5.479 -5.922,6.402 -2.896,0.923 -6.254,0.217 -8.534,-1.794 -3.838,2.196 -9.175,1.285 -12.067,-2.061 -3.002,-0.019 -5.868,-2.169 -6.728,-5.045 -0.86,-2.876 0.356,-6.245 2.855,-7.909"
             style="fill:#1a2e35;fill-opacity:1;fill-rule:nonzero;stroke:none"
             id="path242" /></g><g
           id="g244"
           transform="translate(243.7272,299.9362)"><path
             d="m 0,0 c -4.167,15.139 -19.26,24.538 -34.685,21.601 l -1.533,-0.292 C -52.56,17.198 -58.198,1.021 -53.636,-15.201 l 11.437,-58.902 33.668,-25.987 8.715,21.695 -3.432,19.603 c 0,0 15.418,5.494 12.59,21.417 C 7.977,-29.686 3.875,-14.081 0,0"
             style="fill:#d8765f;fill-opacity:1;fill-rule:nonzero;stroke:none"
             id="path246" /></g><g
           id="g248"
           transform="translate(240.6066,241.1921)"><path
             d="m 0,0 c 0,0 -10.027,-2.542 -21.973,2.129 0,0 6.884,-10.85 22.462,-6.401 z"
             style="fill:#8d4032;fill-opacity:1;fill-rule:nonzero;stroke:none"
             id="path250" /></g><g
           id="g252"
           transform="translate(242.3102,284.6955)"><path
             d="m 0,0 c 0.271,-1.189 -0.514,-2.4 -1.751,-2.705 -1.236,-0.304 -2.458,0.41 -2.728,1.6 -0.271,1.19 0.514,2.401 1.749,2.706 C -1.493,1.906 -0.27,1.189 0,0"
             style="fill:#1a2e35;fill-opacity:1;fill-rule:nonzero;stroke:none"
             id="path254" /></g><g
           id="g256"
           transform="translate(241.7916,291.5143)"><path
             d="m 0,0 c -0.225,-0.349 -2.185,0.596 -4.625,0.125 -2.444,-0.436 -3.996,-2.033 -4.317,-1.785 -0.156,0.108 0.029,0.697 0.7,1.413 0.66,0.712 1.866,1.511 3.388,1.794 1.522,0.281 2.907,-0.035 3.751,-0.468 C -0.242,0.646 0.114,0.159 0,0"
             style="fill:#1a2e35;fill-opacity:1;fill-rule:nonzero;stroke:none"
             id="path258" /></g><g
           id="g260"
           transform="translate(220.1652,280.0104)"><path
             d="m 0,0 c 0.271,-1.19 -0.514,-2.399 -1.752,-2.705 -1.235,-0.305 -2.457,0.41 -2.727,1.601 -0.271,1.189 0.514,2.4 1.749,2.705 C -1.493,1.907 -0.27,1.189 0,0"
             style="fill:#1a2e35;fill-opacity:1;fill-rule:nonzero;stroke:none"
             id="path262" /></g><g
           id="g264"
           transform="translate(217.8844,286.4919)"><path
             d="m 0,0 c -0.225,-0.35 -2.188,0.594 -4.625,0.124 -2.444,-0.436 -3.997,-2.033 -4.318,-1.784 -0.156,0.107 0.026,0.695 0.702,1.412 0.659,0.712 1.864,1.511 3.386,1.794 1.522,0.282 2.908,-0.035 3.752,-0.468 C -0.245,0.645 0.113,0.158 0,0"
             style="fill:#1a2e35;fill-opacity:1;fill-rule:nonzero;stroke:none"
             id="path266" /></g><g
           id="g268"
           transform="translate(230.1901,270.0749)"><path
             d="M 0,0 C -0.038,0.137 1.429,0.688 3.828,1.47 4.439,1.653 5.005,1.89 5.03,2.335 5.09,2.813 4.702,3.435 4.262,4.104 3.389,5.5 2.475,6.964 1.515,8.499 -2.332,14.77 -5.242,19.973 -4.988,20.126 -4.734,20.278 -1.411,15.32 2.435,9.049 3.369,7.5 4.261,6.024 5.11,4.611 5.48,3.947 6.04,3.221 5.899,2.226 5.82,1.729 5.427,1.303 5.048,1.12 4.671,0.921 4.322,0.848 4.018,0.771 1.568,0.167 0.036,-0.136 0,0"
             style="fill:#1a2e35;fill-opacity:1;fill-rule:nonzero;stroke:none"
             id="path270" /></g><g
           id="g272"
           transform="translate(217.0431,294.9421)"><path
             d="m 0,0 c -0.204,-0.68 -2.424,-0.407 -5.016,-0.814 -2.6,-0.349 -4.678,-1.248 -5.036,-0.649 -0.159,0.287 0.192,0.93 1.026,1.602 0.826,0.671 2.153,1.32 3.71,1.548 C -3.76,1.912 -2.325,1.665 -1.369,1.253 -0.405,0.843 0.087,0.323 0,0"
             style="fill:#1a2e35;fill-opacity:1;fill-rule:nonzero;stroke:none"
             id="path274" /></g><g
           id="g276"
           transform="translate(240.4435,300.2121)"><path
             d="m 0,0 c -0.409,-0.652 -2.533,-0.46 -4.961,-0.895 -2.44,-0.362 -4.403,-1.224 -4.985,-0.734 -0.261,0.242 -0.044,0.859 0.753,1.555 0.783,0.691 2.179,1.4 3.852,1.675 1.673,0.273 3.211,0.045 4.162,-0.363 C -0.215,0.831 0.176,0.313 0,0"
             style="fill:#1a2e35;fill-opacity:1;fill-rule:nonzero;stroke:none"
             id="path278" /></g><g
           id="g280"
           transform="translate(195.5866,269.7604)"><path
             d="M 0,0 C -0.567,2.433 -3.048,3.966 -5.447,3.269 -8.355,2.423 -11.332,0.114 -9.971,-5.971 -7.557,-16.765 2.782,-12.114 2.731,-11.8 2.697,-11.588 1.05,-4.508 0,0"
             style="fill:#d8765f;fill-opacity:1;fill-rule:nonzero;stroke:none"
             id="path282" /></g><g
           id="g284"
           transform="translate(195.0612,261.4958)"><path
             d="m 0,0 c -0.055,0.023 -0.159,-0.174 -0.444,-0.391 -0.278,-0.211 -0.789,-0.428 -1.399,-0.343 -1.234,0.163 -2.599,1.759 -3.086,3.693 -0.247,0.976 -0.251,1.957 -0.076,2.81 0.153,0.863 0.54,1.528 1.091,1.759 0.542,0.26 1.025,0.007 1.225,-0.267 0.212,-0.27 0.192,-0.5 0.253,-0.507 0.037,-0.02 0.191,0.234 0.005,0.66 -0.092,0.204 -0.276,0.431 -0.576,0.581 -0.306,0.153 -0.711,0.175 -1.101,0.042 -0.82,-0.243 -1.397,-1.177 -1.59,-2.112 -0.238,-0.95 -0.257,-2.058 0.021,-3.154 0.556,-2.16 2.124,-3.947 3.785,-4.048 0.804,-0.029 1.386,0.342 1.657,0.67 C 0.039,-0.266 0.042,-0.012 0,0"
             style="fill:#8d4032;fill-opacity:1;fill-rule:nonzero;stroke:none"
             id="path286" /></g><g
           id="g288"
           transform="translate(230.4005,320.8088)"><path
             d="m 0,0 c -0.15,0.251 -0.329,0.49 -0.527,0.702 -1.507,1.605 -3.817,2.31 -5.992,2.05 -1.428,0.417 -2.816,0.707 -4.111,0.874 -2.01,2.285 -5.093,3.636 -8.137,3.382 -3.454,-0.287 -6.625,-2.613 -8.047,-5.761 -0.434,-0.148 -0.864,-0.309 -1.295,-0.472 -2.542,1.194 -5.601,1.27 -8.179,0.142 -2.89,-1.264 -5.091,-3.998 -5.71,-7.091 -2.773,0.192 -5.59,-1.403 -6.853,-3.881 -1.262,-2.477 -0.897,-5.693 0.889,-7.825 -1.74,-1.486 -3.042,-3.745 -2.654,-6 0.365,-2.122 2.697,-3.83 4.685,-3.191 0.607,-5.276 2.334,-11.299 3.636,-16.65 0.916,-3.768 6.188,-5.106 7.011,-7.625 4.201,-12.855 7.122,-4.751 3.584,22.841 0.234,0.263 0.468,0.542 0.701,0.85 0.473,0.622 0.484,1.301 0.87,1.98 0.46,0.81 1.596,0.8 2.524,0.877 3.222,0.266 6.029,3.114 6.249,6.339 1.034,-1.052 2.904,-0.642 3.973,0.376 1.069,1.017 1.609,2.452 2.355,3.726 0.745,1.274 1.898,2.505 3.372,2.574 0.825,0.039 1.668,-0.296 2.461,-0.071 1.403,0.399 1.78,2.201 1.727,3.658 -0.045,1.227 -0.147,2.61 0.453,3.614 0.795,0.57 1.64,1.049 2.61,1.313 0.551,0.042 1.12,0.036 1.66,0.059 0.252,0.01 0.514,0.048 0.774,0.099 0.339,-0.044 0.69,-0.109 1.061,-0.209 C 4.329,-4.729 10.412,-13.878 10.412,-13.878 9.548,-7.513 5.122,-2.912 0,0"
             style="fill:#1a2e35;fill-opacity:1;fill-rule:nonzero;stroke:none"
             id="path290" /></g><g
           id="g292"
           transform="translate(181.1378,302.0891)"><path
             d="M 0,0 C -0.008,0.004 0.016,0.064 0.071,0.177 0.129,0.288 0.204,0.462 0.336,0.669 0.602,1.079 1.051,1.663 1.797,2.224 2.54,2.771 3.576,3.324 4.881,3.526 6.167,3.75 7.752,3.623 9.199,2.787 L 8.923,2.64 c 0.083,2.222 1.341,4.626 3.456,6.29 1.05,0.835 2.295,1.515 3.669,1.93 1.376,0.413 2.853,0.567 4.346,0.512 2.914,-0.121 5.604,-1.015 7.924,-2.035 L 28.019,9.179 c 0.521,2.654 2.115,4.788 3.921,6.068 1.823,1.308 3.838,1.73 5.445,1.734 1.627,0.004 2.881,-0.39 3.685,-0.726 0.404,-0.17 0.704,-0.326 0.898,-0.446 0.196,-0.118 0.293,-0.184 0.287,-0.195 -0.017,-0.031 -0.426,0.209 -1.237,0.507 -0.809,0.289 -2.047,0.631 -3.629,0.59 -1.565,-0.042 -3.498,-0.484 -5.233,-1.762 -1.721,-1.252 -3.231,-3.319 -3.712,-5.85 L 28.393,8.833 28.144,8.941 c -2.295,0.993 -4.939,1.86 -7.768,1.976 C 18.928,10.97 17.497,10.822 16.178,10.43 14.861,10.037 13.66,9.388 12.648,8.592 10.605,7.003 9.395,4.728 9.287,2.622 L 9.271,2.319 9.011,2.475 C 7.668,3.273 6.164,3.427 4.926,3.236 3.669,3.068 2.657,2.562 1.918,2.056 0.435,0.994 0.063,-0.054 0,0"
             style="fill:#375a64;fill-opacity:1;fill-rule:nonzero;stroke:none"
             id="path294" /></g><g
           id="g296"
           transform="translate(223.3585,316.9479)"><path
             d="m 0,0 c 0.014,-0.005 -0.03,-0.161 -0.106,-0.456 -0.061,-0.299 -0.138,-0.745 -0.171,-1.332 -0.038,-0.587 -0.04,-1.31 -0.068,-2.159 -0.052,-0.84 -0.04,-1.854 -0.555,-2.876 -0.267,-0.5 -0.767,-0.935 -1.372,-1.102 -0.6,-0.188 -1.237,-0.188 -1.869,-0.233 -0.627,-0.045 -1.282,-0.13 -1.819,-0.485 -0.539,-0.357 -0.965,-0.922 -1.348,-1.526 -0.383,-0.607 -0.723,-1.28 -1.095,-1.955 -0.36,-0.659 -0.672,-1.437 -1.297,-2.043 -0.606,-0.596 -1.389,-1.014 -2.228,-1.25 -0.422,-0.117 -0.867,-0.191 -1.33,-0.165 -0.457,0.018 -0.962,0.189 -1.312,0.569 l 0.385,0.14 c -0.036,-0.657 -0.139,-1.327 -0.376,-1.969 -0.243,-0.637 -0.59,-1.243 -1.029,-1.787 -0.898,-1.073 -2.133,-1.882 -3.501,-2.324 -0.562,-0.2 -1.147,-0.306 -1.727,-0.393 -0.607,-0.06 -1.134,-0.036 -1.578,-0.302 -0.46,-0.248 -0.762,-0.634 -0.991,-1.144 -0.255,-0.506 -0.553,-0.983 -0.875,-1.436 -1.28,-1.789 -3.039,-3.268 -5.092,-3.68 -2.052,-0.342 -4.01,0.271 -5.511,1.216 -1.509,0.964 -2.584,2.311 -3.16,3.682 l 0.205,-0.082 c -1.333,-0.556 -2.718,-0.348 -3.693,0.175 -0.999,0.527 -1.572,1.369 -1.862,2.075 -0.295,0.719 -0.333,1.331 -0.318,1.73 0.011,0.2 0.029,0.352 0.051,0.452 0.02,0.101 0.034,0.152 0.042,0.15 0.07,0.013 -0.216,-0.874 0.382,-2.264 0.302,-0.67 0.87,-1.451 1.819,-1.925 0.926,-0.473 2.235,-0.639 3.455,-0.107 l 0.142,0.062 0.063,-0.143 c 0.572,-1.305 1.618,-2.582 3.072,-3.491 1.439,-0.892 3.335,-1.453 5.232,-1.121 1.893,0.387 3.583,1.799 4.81,3.53 0.308,0.436 0.594,0.896 0.838,1.382 0.215,0.502 0.625,1.058 1.176,1.337 0.273,0.15 0.575,0.244 0.885,0.283 l 0.852,0.072 c 0.551,0.084 1.107,0.185 1.639,0.374 1.298,0.418 2.459,1.183 3.296,2.179 0.409,0.506 0.731,1.066 0.959,1.655 0.22,0.594 0.317,1.214 0.354,1.827 l 0.032,0.524 0.354,-0.385 c 0.509,-0.551 1.446,-0.49 2.198,-0.282 0.779,0.216 1.5,0.597 2.051,1.133 0.555,0.527 0.86,1.252 1.237,1.936 0.378,0.673 0.722,1.343 1.125,1.97 0.403,0.619 0.854,1.218 1.473,1.623 0.633,0.404 1.355,0.479 1.995,0.518 0.645,0.035 1.26,0.032 1.799,0.193 0.545,0.145 0.968,0.505 1.217,0.945 0.486,0.912 0.513,1.92 0.582,2.748 0.048,0.843 0.073,1.571 0.135,2.161 0.057,0.592 0.16,1.043 0.246,1.34 C -0.079,-0.141 -0.01,0.004 0,0"
             style="fill:#375a64;fill-opacity:1;fill-rule:nonzero;stroke:none"
             id="path298" /></g><g
           id="g300"
           transform="translate(223.3922,264.3615)"><path
             d="m 0,0 c -0.45,-2.968 0.842,-5.875 3.663,-6.903 0.978,-0.356 2.127,-0.283 3.061,0.178 1.142,0.564 2.135,1.387 2.405,2.716 0.253,1.248 0.42,2.528 0.067,3.751 C 6.608,-0.108 2.588,-0.149 0,0"
             style="fill:#8d4032;fill-opacity:1;fill-rule:nonzero;stroke:none"
             id="path302" /></g><g
           id="g304"
           transform="translate(232.0084,259.1452)"><path
             d="m 0,0 c 0.014,-0.011 -0.023,-0.083 -0.11,-0.211 -0.081,-0.134 -0.222,-0.314 -0.435,-0.521 -0.413,-0.418 -1.168,-0.927 -2.238,-1.109 -1.054,-0.163 -2.404,-0.034 -3.637,0.736 -1.211,0.772 -2.179,2.171 -2.446,3.809 -0.065,0.409 -0.085,0.82 -0.062,1.223 0.039,0.395 0.064,0.814 0.315,1.214 0.122,0.195 0.332,0.367 0.556,0.437 0.222,0.074 0.431,0.078 0.617,0.079 C -7.08,5.646 -6.727,5.635 -6.38,5.625 -5.003,5.558 -3.777,5.42 -2.749,5.317 -0.695,5.093 0.579,5.033 0.58,4.958 0.582,4.889 -0.708,4.819 -2.778,4.95 -3.813,5.006 -5.04,5.105 -6.398,5.146 -6.738,5.15 -7.085,5.155 -7.438,5.159 -7.791,5.159 -8.043,5.103 -8.185,4.863 -8.341,4.625 -8.382,4.258 -8.411,3.895 -8.43,3.53 -8.41,3.159 -8.352,2.788 c 0.242,-1.489 1.115,-2.775 2.194,-3.491 1.09,-0.714 2.346,-0.882 3.323,-0.773 0.993,0.123 1.72,0.542 2.156,0.896 C -0.231,-0.232 -0.043,0.035 0,0"
             style="fill:#1a2e35;fill-opacity:1;fill-rule:nonzero;stroke:none"
             id="path306" /></g><g
           id="g308"
           transform="translate(292.3971,293.654)"><path
             d="m 0,0 c 0,0 12.669,1.576 31.716,16.724 19.046,15.149 29.354,36.677 31.481,36.367 2.128,-0.31 11.87,3.144 25.984,-37.146 14.114,-40.29 6.276,-48.598 2.751,-48.193 -3.527,0.405 -26.883,9.35 -42.026,9.059 -15.142,-0.292 -35.136,-6.286 -35.136,-6.286 z"
             style="fill:#ff735d;fill-opacity:1;fill-rule:nonzero;stroke:none"
             id="path310" /></g><g
           id="g312"
           transform="translate(269.6041,263.5666)"><path
             d="M 0,0 6.771,1.446 3.108,10.35 -2.615,7.498 Z"
             style="fill:#375a64;fill-opacity:1;fill-rule:nonzero;stroke:none"
             id="path314" /></g><g
           id="g316"
           transform="translate(270.4,274.1613)"><path
             d="m 0,0 2.502,-7.521 1.558,-3.785 c 2.134,-5.191 7.96,-7.802 13.255,-5.943 L 44.789,-9.525 32.986,25.262 5.693,13.752 C 0.336,11.515 -2.208,5.37 0,0"
             style="fill:#1a2e35;fill-opacity:1;fill-rule:nonzero;stroke:none"
             id="path318" /></g><g
           id="g320"
           transform="translate(280.2477,262.6047)"><path
             d="m 0,0 9.201,-16.319 4.205,1.36 28.722,-21.444 7.131,15.523 c 0,0 -16.712,6.388 -19.991,12.117 -3.281,5.728 0.173,7.201 0.173,7.201 l -8.092,8.459 z"
             style="fill:#1a2e35;fill-opacity:1;fill-rule:nonzero;stroke:none"
             id="path322" /></g><g
           id="g324"
           transform="translate(380.0768,309.0314)"><path
             d="m 0,0 c 7.478,-21.81 9.653,-40.821 4.861,-42.464 -4.792,-1.643 -14.737,14.706 -22.215,36.515 -7.475,21.808 -9.652,40.82 -4.86,42.463 C -17.422,38.157 -7.477,21.809 0,0"
             style="fill:#1a2e35;fill-opacity:1;fill-rule:nonzero;stroke:none"
             id="path326" /></g><g
           id="g328"
           transform="translate(361.2535,315.4982)"><path
             d="M 0,0 C 0,0 11.417,5.672 15.945,-9.457 20.474,-24.586 8.899,-25.914 8.899,-25.914 4.934,-18.274 1.938,-9.665 0,0"
             style="fill:#fafafa;fill-opacity:1;fill-rule:nonzero;stroke:none"
             id="path330" /></g><g
           id="g332"
           transform="translate(351.4186,333.9474)"><path
             d="m 0,0 c -0.064,-0.005 -0.004,-1.009 0.16,-2.824 0.174,-1.813 0.412,-4.444 0.805,-7.683 0.308,-1.606 0.646,-3.36 1.009,-5.24 0.183,-0.942 0.374,-1.917 0.57,-2.919 0.099,-0.502 0.199,-1.011 0.3,-1.527 0.114,-0.513 0.278,-1.021 0.419,-1.542 0.588,-2.078 1.205,-4.258 1.843,-6.517 0.162,-0.565 0.324,-1.135 0.488,-1.709 0.157,-0.577 0.404,-1.129 0.604,-1.701 0.425,-1.136 0.856,-2.29 1.292,-3.457 0.438,-1.167 0.87,-2.319 1.297,-3.456 0.224,-0.563 0.401,-1.142 0.66,-1.681 0.254,-0.54 0.506,-1.077 0.756,-1.609 1.002,-2.124 1.969,-4.174 2.891,-6.128 0.236,-0.485 0.446,-0.976 0.697,-1.438 0.263,-0.457 0.522,-0.907 0.777,-1.351 0.512,-0.886 1.009,-1.747 1.49,-2.581 0.963,-1.657 1.862,-3.203 2.684,-4.618 1.827,-2.694 3.371,-4.829 4.431,-6.309 1.067,-1.475 1.682,-2.273 1.735,-2.237 0.053,0.036 -0.461,0.903 -1.435,2.44 -1.014,1.568 -2.437,3.769 -4.185,6.473 -0.786,1.423 -1.644,2.976 -2.565,4.642 -0.463,0.833 -0.943,1.694 -1.436,2.579 -0.247,0.443 -0.498,0.893 -0.752,1.348 -0.242,0.461 -0.446,0.953 -0.676,1.437 -0.899,1.948 -1.843,3.991 -2.822,6.109 -0.245,0.53 -0.493,1.063 -0.743,1.602 -0.255,0.535 -0.429,1.11 -0.65,1.671 -0.422,1.129 -0.85,2.274 -1.283,3.433 -0.434,1.159 -0.864,2.303 -1.287,3.431 -0.201,0.568 -0.448,1.115 -0.606,1.687 -0.165,0.57 -0.329,1.134 -0.491,1.695 -0.654,2.238 -1.284,4.399 -1.884,6.459 -0.145,0.516 -0.315,1.019 -0.435,1.526 -0.106,0.512 -0.213,1.016 -0.317,1.513 -0.21,0.993 -0.415,1.958 -0.612,2.891 -0.401,1.863 -0.773,3.6 -1.116,5.191 C 1.157,-7.22 0.785,-4.631 0.521,-2.787 0.246,-0.989 0.063,0.005 0,0"
             style="fill:#1a2e35;fill-opacity:1;fill-rule:nonzero;stroke:none"
             id="path334" /></g><g
           id="g336"
           transform="translate(315.1891,264.6359)"><path
             d="m 0,0 c 0.008,-0.035 -0.433,-0.172 -1.235,-0.391 -0.907,-0.237 -2.048,-0.537 -3.408,-0.893 -2.878,-0.744 -6.848,-1.795 -11.222,-3.002 -4.374,-1.208 -8.335,-2.311 -11.226,-3.027 -1.444,-0.36 -2.619,-0.63 -3.434,-0.799 -0.816,-0.168 -1.271,-0.244 -1.279,-0.21 -0.008,0.035 0.43,0.178 1.23,0.406 0.901,0.255 2.036,0.576 3.388,0.959 2.966,0.842 6.868,1.949 11.183,3.174 4.377,1.208 8.369,2.203 11.274,2.857 1.452,0.327 2.629,0.578 3.448,0.733 C -0.464,-0.036 -0.008,0.035 0,0"
             style="fill:#375a64;fill-opacity:1;fill-rule:nonzero;stroke:none"
             id="path338" /></g><g
           id="g340"
           transform="translate(299.0426,270.3166)"><path
             d="m 0,0 c 0.023,-0.065 -0.997,-0.512 -2.684,-1.143 -1.685,-0.631 -4.039,-1.437 -6.67,-2.223 -2.634,-0.786 -5.044,-1.403 -6.8,-1.799 -1.756,-0.397 -2.855,-0.583 -2.87,-0.516 -0.018,0.073 1.05,0.386 2.779,0.873 1.728,0.487 4.116,1.158 6.741,1.941 2.624,0.784 4.987,1.532 6.7,2.073 C -1.091,-0.254 -0.025,0.07 0,0"
             style="fill:#375a64;fill-opacity:1;fill-rule:nonzero;stroke:none"
             id="path342" /></g><g
           id="g344"
           transform="translate(294.6793,278.2604)"><path
             d="m 0,0 c 0.042,-0.138 -3.752,-1.406 -8.474,-2.833 -4.722,-1.428 -8.583,-2.473 -8.625,-2.335 -0.042,0.137 3.752,1.406 8.475,2.833 C -3.903,-0.908 -0.041,0.138 0,0"
             style="fill:#375a64;fill-opacity:1;fill-rule:nonzero;stroke:none"
             id="path346" /></g><g
           id="g348"
           transform="translate(290.4196,285.9138)"><path
             d="m 0,0 c 0.058,-0.132 -3.173,-1.673 -7.216,-3.443 -4.044,-1.77 -7.368,-3.098 -7.426,-2.966 -0.057,0.132 3.173,1.673 7.217,3.443 C -3.382,-1.196 -0.058,0.132 0,0"
             style="fill:#375a64;fill-opacity:1;fill-rule:nonzero;stroke:none"
             id="path350" /></g><g
           id="g352"
           transform="translate(259.5143,199.8464)"><path
             d="M 0,0 -16.687,28.142 -59.814,29.923 -59.77,26 c 0,0 -11.846,-11.914 -15.663,-28.146 -2.889,-12.289 9.267,-59.19 12.687,-75.446 4.206,-19.988 10.04,-45.287 10.04,-45.287 -0.866,-4.478 -6.617,-8.104 -6.22,-14.086 l 95.861,1.05 -4.925,19.429 z"
             style="fill:#ff735d;fill-opacity:1;fill-rule:nonzero;stroke:none"
             id="path354" /></g><g
           id="g356"
           transform="translate(292.7653,75.9157)"><path
             d="m 0,0 c 0,-0.144 -19.075,-0.261 -42.601,-0.261 -23.533,0 -42.605,0.117 -42.605,0.261 0,0.144 19.072,0.26 42.605,0.26 C -19.075,0.26 0,0.144 0,0"
             style="fill:#ffffff;fill-opacity:1;fill-rule:nonzero;stroke:none"
             id="path358" /></g><g
           id="g360"
           transform="translate(286.1422,99.9655)"><path
             d="m 0,0 c 0,-0.145 -18.903,-0.261 -42.215,-0.261 -23.321,0 -42.219,0.116 -42.219,0.261 0,0.144 18.898,0.26 42.219,0.26 C -18.903,0.26 0,0.144 0,0"
             style="fill:#ffffff;fill-opacity:1;fill-rule:nonzero;stroke:none"
             id="path362" /></g><g
           id="g364"
           transform="translate(279.6373,126.112)"><path
             d="m 0,0 c 0,-0.144 -18.499,-0.26 -41.314,-0.26 -22.822,0 -41.318,0.116 -41.318,0.26 0,0.144 18.496,0.261 41.318,0.261 C -18.499,0.261 0,0.144 0,0"
             style="fill:#ffffff;fill-opacity:1;fill-rule:nonzero;stroke:none"
             id="path366" /></g><g
           id="g368"
           transform="translate(275.0885,152.4225)"><path
             d="m 0,0 c 0,-0.144 -19.055,-0.26 -42.555,-0.26 -23.507,0 -42.558,0.116 -42.558,0.26 0,0.144 19.051,0.261 42.558,0.261 C -19.055,0.261 0,0.144 0,0"
             style="fill:#ffffff;fill-opacity:1;fill-rule:nonzero;stroke:none"
             id="path370" /></g><g
           id="g372"
           transform="translate(265.0211,185.0651)"><path
             d="m 0,0 c 0,-0.145 -18.03,-0.261 -40.267,-0.261 -22.244,0 -40.27,0.116 -40.27,0.261 0,0.144 18.026,0.26 40.27,0.26 C -18.03,0.26 0,0.144 0,0"
             style="fill:#ffffff;fill-opacity:1;fill-rule:nonzero;stroke:none"
             id="path374" /></g><g
           id="g376"
           transform="translate(251.2931,214.9616)"><path
             d="m 0,0 c 0,-0.145 -13.318,-0.261 -29.742,-0.261 -16.431,0 -29.746,0.116 -29.746,0.261 0,0.144 13.315,0.26 29.746,0.26 C -13.318,0.26 0,0.144 0,0"
             style="fill:#ffffff;fill-opacity:1;fill-rule:nonzero;stroke:none"
             id="path378" /></g><g
           id="g380"><g
             id="g382" /><g
             id="g394"><g
               clip-path="url(#clipPath386)"
               opacity="0.300003"
               id="g392"><g
                 transform="translate(196.3058,182.4938)"
                 id="g390"><path
                   d="m 0,0 c 0,0 6.102,-10.766 15.734,-18.758 9.631,-7.992 38.935,-22.337 38.935,-22.337 l 2.441,5.061 21.863,-5.105 -4.051,13.453 z"
                   style="fill:#000000;fill-opacity:1;fill-rule:nonzero;stroke:none"
                   id="path388" /></g></g></g></g><g
           id="g396"
           transform="translate(299.1461,217.9958)"><path
             d="m 0,0 -7.622,-41.437 -65.364,31.072 -10.533,-36.856 c 25.688,-12.563 77.694,-33.475 84.388,-32.871 9.517,0.861 16.092,6.544 19.056,20.487 1.834,8.627 0.968,66.502 0.968,66.502 z"
             style="fill:#d8765f;fill-opacity:1;fill-rule:nonzero;stroke:none"
             id="path398" /></g><g
           id="g400"
           transform="translate(230.4347,213.1999)"><path
             d="m 0,0 c 0,0 -24.447,15.103 -35.109,-3.928 -7.62,-18.557 0.813,-33.382 19.632,-42.586 9.074,-4.437 21.432,-9.917 33.916,-15.122 l 18.188,40.363 z"
             style="fill:#ff735d;fill-opacity:1;fill-rule:nonzero;stroke:none"
             id="path402" /></g><g
           id="g404"
           transform="translate(230.4347,213.1999)"><path
             d="m 0,0 c 0,0 0.234,-0.112 0.673,-0.355 0.455,-0.256 1.102,-0.621 1.939,-1.091 1.712,-0.981 4.201,-2.404 7.381,-4.223 6.391,-3.687 15.558,-8.976 26.738,-15.426 l 0.161,-0.092 -0.077,-0.171 C 31.634,-32.891 25.432,-46.695 18.672,-61.741 l -0.101,-0.226 -0.23,0.095 c -6.398,2.666 -12.999,5.498 -19.711,8.503 -2.974,1.332 -5.907,2.673 -8.791,4.025 -2.884,1.352 -5.72,2.706 -8.456,4.193 -1.347,0.772 -2.671,1.571 -3.948,2.412 -1.241,0.896 -2.522,1.719 -3.652,2.72 -2.374,1.859 -4.395,4.056 -6.189,6.33 -0.417,0.594 -0.831,1.186 -1.243,1.775 -0.438,0.571 -0.722,1.236 -1.087,1.846 -0.752,1.212 -1.221,2.546 -1.775,3.819 -0.238,0.651 -0.402,1.325 -0.605,1.979 l -0.289,0.985 c -0.081,0.331 -0.122,0.67 -0.185,1.002 -0.116,0.667 -0.23,1.33 -0.344,1.989 -0.06,0.664 -0.082,1.328 -0.125,1.985 -0.142,1.316 0.035,2.613 0.076,3.89 0.1,1.273 0.371,2.508 0.545,3.732 0.316,1.196 0.61,2.378 0.939,3.527 0.409,1.122 0.81,2.225 1.204,3.308 l 0.003,0.009 0.008,0.013 c 1.514,2.68 3.5,4.941 5.783,6.547 2.295,1.595 4.849,2.467 7.267,2.862 4.895,0.696 9.148,-0.239 12.436,-1.211 C -6.49,3.353 -4.045,2.204 -2.419,1.38 -1.608,0.963 -1,0.621 -0.597,0.383 -0.194,0.143 0,0 0,0 c 0,0 -0.215,0.108 -0.626,0.33 -0.413,0.221 -1.028,0.545 -1.846,0.944 -1.638,0.789 -4.091,1.901 -7.39,2.877 -3.28,0.936 -7.509,1.826 -12.321,1.11 -2.377,-0.405 -4.872,-1.272 -7.109,-2.843 -2.225,-1.582 -4.161,-3.803 -5.642,-6.444 l 0.011,0.021 c -0.386,-1.073 -0.779,-2.167 -1.179,-3.281 -0.321,-1.137 -0.607,-2.306 -0.917,-3.488 -0.166,-1.209 -0.43,-2.429 -0.525,-3.684 -0.036,-1.258 -0.207,-2.536 -0.063,-3.829 0.044,-0.647 0.067,-1.3 0.128,-1.953 0.113,-0.647 0.228,-1.298 0.343,-1.953 0.062,-0.327 0.103,-0.66 0.184,-0.984 l 0.286,-0.967 c 0.202,-0.642 0.363,-1.303 0.599,-1.943 0.549,-1.249 1.009,-2.559 1.752,-3.749 0.361,-0.598 0.639,-1.252 1.073,-1.813 0.407,-0.579 0.815,-1.161 1.226,-1.745 1.772,-2.237 3.766,-4.401 6.118,-6.236 1.117,-0.987 2.387,-1.801 3.616,-2.687 1.266,-0.831 2.578,-1.621 3.914,-2.386 2.708,-1.469 5.546,-2.822 8.428,-4.171 2.88,-1.351 5.812,-2.689 8.783,-4.02 6.707,-3.002 13.303,-5.836 19.695,-8.506 l -0.331,-0.131 c 6.793,15.03 13.025,28.821 18.232,40.343 l 0.085,-0.263 C 25.38,-14.937 16.244,-9.595 9.874,-5.87 6.718,-4.009 4.249,-2.554 2.549,-1.551 1.726,-1.058 1.089,-0.677 0.641,-0.408 0.212,-0.147 0,0 0,0"
             style="fill:#1a2e35;fill-opacity:1;fill-rule:nonzero;stroke:none"
             id="path406" /></g><g
           id="g408"
           transform="translate(298.1686,210.903)"><path
             d="m 0,0 1.475,15.439 c 0,0 -5.9,11.881 -5.786,13.071 0.114,1.19 0.461,7.736 0.461,7.736 L 10.9,49.523 c 0,0 4.777,0 4.898,-4.728 0,0 4.598,0.969 4.659,-4.537 0,0 4.976,-0.183 5.105,-4.208 0,0 3,0.396 2.895,-3.809 C 28.382,29.217 27.062,17.626 27.062,17.626 L 20.893,6.896 20.385,-3.833 Z"
             style="fill:#d8765f;fill-opacity:1;fill-rule:nonzero;stroke:none"
             id="path410" /></g><g
           id="g412"
           transform="translate(299.6969,161.4147)"><path
             d="m 0,0 c -0.17,-0.057 -1.257,3.691 -3.491,7.897 -2.233,4.213 -4.818,7.138 -4.682,7.248 0.048,0.042 0.749,-0.638 1.745,-1.862 0.995,-1.221 2.26,-3.012 3.396,-5.14 1.133,-2.13 1.922,-4.172 2.406,-5.67 C -0.143,0.973 0.062,0.02 0,0"
             style="fill:#8d4032;fill-opacity:1;fill-rule:nonzero;stroke:none"
             id="path414" /></g><g
           id="g416"
           transform="translate(215.6276,218.3259)"><path
             d="m 0,0 c 0.032,-0.017 -0.201,-0.516 -0.649,-1.403 -0.447,-0.888 -1.118,-2.16 -1.962,-3.724 -1.687,-3.128 -4.094,-7.407 -6.791,-12.107 -2.681,-4.66 -5.106,-8.873 -6.923,-12.031 -0.853,-1.475 -1.561,-2.7 -2.105,-3.641 -0.503,-0.858 -0.796,-1.323 -0.828,-1.306 -0.031,0.017 0.201,0.516 0.65,1.402 0.446,0.889 1.117,2.161 1.962,3.724 1.687,3.128 4.093,7.408 6.792,12.11 2.68,4.658 5.104,8.871 6.921,12.029 0.853,1.474 1.561,2.7 2.106,3.641 C -0.325,-0.449 -0.031,0.018 0,0"
             style="fill:#ffffff;fill-opacity:1;fill-rule:nonzero;stroke:none"
             id="path418" /></g><g
           id="g420"
           transform="translate(235.5573,209.5974)"><path
             d="m 0,0 c 0.016,-0.008 -0.039,-0.163 -0.16,-0.451 -0.15,-0.342 -0.331,-0.755 -0.548,-1.251 -0.486,-1.081 -1.214,-2.635 -2.135,-4.544 -1.841,-3.818 -4.478,-9.048 -7.554,-14.738 -3.08,-5.692 -6.014,-10.762 -8.203,-14.393 -1.093,-1.815 -1.994,-3.274 -2.634,-4.272 -0.296,-0.455 -0.542,-0.831 -0.746,-1.144 -0.175,-0.259 -0.275,-0.39 -0.29,-0.381 -0.016,0.01 0.054,0.159 0.2,0.435 0.181,0.326 0.4,0.719 0.662,1.194 0.63,1.101 1.471,2.57 2.491,4.355 2.105,3.675 4.985,8.768 8.062,14.453 3.072,5.684 5.759,10.882 7.682,14.655 0.935,1.831 1.705,3.339 2.282,4.469 0.253,0.478 0.463,0.877 0.637,1.207 C -0.104,-0.133 -0.017,0.007 0,0"
             style="fill:#ffffff;fill-opacity:1;fill-rule:nonzero;stroke:none"
             id="path422" /></g><g
           id="g424"
           transform="translate(257.8551,197.1179)"><path
             d="m 0,0 c 0.033,-0.014 -0.183,-0.602 -0.601,-1.653 -0.415,-1.053 -1.054,-2.561 -1.878,-4.41 -1.645,-3.699 -4.085,-8.737 -7.092,-14.135 -3.012,-5.398 -6.016,-10.123 -8.297,-13.466 -1.14,-1.673 -2.086,-3.01 -2.764,-3.916 -0.674,-0.909 -1.061,-1.401 -1.09,-1.381 -0.029,0.022 0.301,0.553 0.924,1.497 0.666,1.017 1.551,2.367 2.623,4.003 2.199,3.39 5.144,8.133 8.149,13.517 2.999,5.383 5.485,10.382 7.213,14.035 0.828,1.771 1.511,3.234 2.026,4.337 C -0.312,-0.547 -0.033,0.015 0,0"
             style="fill:#ffffff;fill-opacity:1;fill-rule:nonzero;stroke:none"
             id="path426" /></g><g
           id="g428"
           transform="translate(199.7467,44.3825)"><path
             d="M 0,0 2.083,18.513 93.531,19.515 95.863,0 Z"
             style="fill:#1a2e35;fill-opacity:1;fill-rule:nonzero;stroke:none"
             id="path430" /></g><g
           id="g432"
           transform="translate(312.9987,46.0192)"><path
             d="m 0,0 c 0,-0.144 -28.172,-0.26 -62.916,-0.26 -34.757,0 -62.923,0.116 -62.923,0.26 0,0.145 28.166,0.261 62.923,0.261 C -28.172,0.261 0,0.145 0,0"
             style="fill:#375a64;fill-opacity:1;fill-rule:nonzero;stroke:none"
             id="path434" /></g><g
           id="g436"
           transform="translate(262.0406,363.4367)"><path
             d="m 0,0 h -34.021 c -1.124,0 -2.036,0.911 -2.036,2.035 v 1.48 c 0,1.124 0.912,2.035 2.036,2.035 L 0,5.55 c 1.124,0 2.035,-0.911 2.035,-2.035 V 2.035 C 2.035,0.911 1.124,0 0,0"
             style="fill:#375a64;fill-opacity:1;fill-rule:nonzero;stroke:none"
             id="path438" /></g><g
           id="g440"
           transform="translate(273.3073,366.2116)"><path
             d="m 0,0 c 0,-1.533 -1.242,-2.775 -2.775,-2.775 -1.533,0 -2.776,1.242 -2.776,2.775 0,1.533 1.243,2.775 2.776,2.775 C -1.242,2.775 0,1.533 0,0"
             style="fill:#375a64;fill-opacity:1;fill-rule:nonzero;stroke:none"
             id="path442" /></g><g
           id="g444"
           transform="translate(160.3307,279.5046)"><path
             d="m 0,0 h -2.253 c -3.425,0 -6.201,2.776 -6.201,6.2 v 34.005 c 0,3.424 2.776,6.199 6.201,6.199 H 0 Z"
             style="fill:#1a2e35;fill-opacity:1;fill-rule:nonzero;stroke:none"
             id="path446" /></g><g
           id="g448"
           transform="translate(159.7721,212.0817)"><path
             d="m 0,0 h -2.253 c -3.425,0 -6.201,2.775 -6.201,6.199 v 34.005 c 0,3.424 2.776,6.2 6.201,6.2 H 0 Z"
             style="fill:#1a2e35;fill-opacity:1;fill-rule:nonzero;stroke:none"
             id="path450" /></g><g
           id="g452"
           transform="translate(157.6769,340.1657)"><path
             d="M 0,0 V -150.449"
             style="fill:#ff735d;fill-opacity:1;fill-rule:nonzero;stroke:none"
             id="path454" /></g><g
           id="g456"
           transform="translate(157.6769,189.7165)"><path
             d="m 0,0 c -0.144,0 -0.26,33.683 -0.26,75.221 0,41.553 0.116,75.228 0.26,75.228 0.144,0 0.261,-33.675 0.261,-75.228 C 0.261,33.683 0.144,0 0,0"
             style="fill:#375a64;fill-opacity:1;fill-rule:nonzero;stroke:none"
             id="path458" /></g></g></g><g
       id="g460"><g
         id="g462"
         clip-path="url(#clipPath466)"><g
           id="g468"
           transform="translate(126.4235,135.6891)"><path
             d="m 0,0 h -96.384 c -6.301,0 -11.408,5.108 -11.408,11.409 v 73.967 c 0,6.301 5.107,11.408 11.408,11.408 H 0 c 6.301,0 11.409,-5.107 11.409,-11.408 V 11.409 C 11.409,5.108 6.301,0 0,0"
             style="fill:#ffffff;fill-opacity:1;fill-rule:nonzero;stroke:none"
             id="path470" /></g><g
           id="g472"
           transform="translate(83.0211,138.652)"><path
             d="M 0,0 C 1.223,-2.963 24.867,-25.184 24.867,-25.184 V 0 Z"
             style="fill:#ff735d;fill-opacity:1;fill-rule:nonzero;stroke:none"
             id="path474" /></g><g
           id="g476"
           transform="translate(99.6305,210.9841)"><path
             d="m 0,0 c -1.149,3.776 -3.885,7.043 -7.402,8.836 -3.864,1.971 -8.468,2.139 -12.695,1.166 -4.227,-0.973 -8.134,-3.01 -11.825,-5.288 -2.071,-1.278 -4.132,-2.678 -5.591,-4.625 -2.663,-3.555 -5.231,-9.341 -5.371,-13.779 -0.113,-3.59 1.516,-12.523 3.123,-15.734 0.573,-1.142 1.913,-2.154 3.526,-3.005 1.735,-3.166 4.005,-6.037 6.735,-8.401 0.763,2.431 1.524,4.86 2.286,7.29 z"
             style="fill:#1a2e35;fill-opacity:1;fill-rule:nonzero;stroke:none"
             id="path478" /></g><g
           id="g480"
           transform="translate(97.4396,215.3434)"><path
             d="m 0,0 -7.099,1.062 c 4.123,-9.084 5.77,-30.081 8.257,-39.743 2.495,3.852 8.213,15.531 7.759,20.097 C 8.462,-14.017 8.37,1.02 0,0"
             style="fill:#1a2e35;fill-opacity:1;fill-rule:nonzero;stroke:none"
             id="path482" /></g><g
           id="g484"
           transform="translate(64.3908,199.0827)"><path
             d="m 0,0 c 0.227,5.383 3.579,9.888 8.758,11.368 l 16.147,4.613 c 7.008,0.96 11.948,-7.552 12.61,-14.594 0.735,-7.824 1.286,-16.086 0.537,-21.963 -1.506,-11.819 -10.473,-13.593 -10.473,-13.593 -0.002,0.018 0.157,-5.596 0.249,-9.031 L 25.197,-58.594 3.907,-40.419 -0.037,-0.144 C -0.047,0.058 -0.011,-0.269 0,0"
             style="fill:#ffc19d;fill-opacity:1;fill-rule:nonzero;stroke:none"
             id="path486" /></g><g
           id="g488"
           transform="translate(98.3527,190.6833)"><path
             d="m 0,0 c 0.053,-0.796 -0.577,-1.496 -1.407,-1.566 -0.828,-0.071 -1.544,0.516 -1.597,1.311 -0.052,0.796 0.578,1.498 1.406,1.567 C -0.768,1.383 -0.052,0.796 0,0"
             style="fill:#1a2e35;fill-opacity:1;fill-rule:nonzero;stroke:none"
             id="path490" /></g><g
           id="g492"
           transform="translate(100.2711,195.8112)"><path
             d="m 0,0 c -0.181,-0.203 -1.35,0.607 -2.972,0.554 -1.622,-0.032 -2.788,-0.903 -2.97,-0.709 -0.089,0.085 0.091,0.446 0.597,0.84 0.499,0.391 1.359,0.784 2.37,0.81 1.011,0.026 1.873,-0.32 2.373,-0.686 C -0.09,0.441 0.089,0.091 0,0"
             style="fill:#1a2e35;fill-opacity:1;fill-rule:nonzero;stroke:none"
             id="path494" /></g><g
           id="g496"
           transform="translate(83.7335,190.6833)"><path
             d="m 0,0 c 0.052,-0.796 -0.578,-1.496 -1.408,-1.566 -0.828,-0.071 -1.544,0.516 -1.596,1.311 -0.053,0.796 0.577,1.497 1.406,1.567 C -0.769,1.383 -0.053,0.796 0,0"
             style="fill:#1a2e35;fill-opacity:1;fill-rule:nonzero;stroke:none"
             id="path498" /></g><g
           id="g500"
           transform="translate(84.8566,195.3708)"><path
             d="m 0,0 c -0.182,-0.202 -1.352,0.608 -2.974,0.554 -1.621,-0.032 -2.787,-0.903 -2.969,-0.709 -0.089,0.085 0.089,0.446 0.598,0.84 0.499,0.391 1.358,0.784 2.369,0.811 C -1.965,1.521 -1.103,1.175 -0.602,0.81 -0.092,0.441 0.088,0.091 0,0"
             style="fill:#1a2e35;fill-opacity:1;fill-rule:nonzero;stroke:none"
             id="path502" /></g><g
           id="g504"
           transform="translate(90.2946,182.7682)"><path
             d="M 0,0 C -0.01,0.092 0.993,0.297 2.622,0.557 3.035,0.612 3.424,0.706 3.486,0.991 3.574,1.294 3.387,1.734 3.171,2.211 2.75,3.202 2.311,4.24 1.849,5.329 0.008,9.77 -1.337,13.427 -1.158,13.499 -0.979,13.572 0.659,10.031 2.499,5.59 2.943,4.495 3.367,3.451 3.771,2.451 3.942,1.985 4.229,1.459 4.036,0.832 3.934,0.519 3.637,0.284 3.373,0.204 3.11,0.115 2.877,0.104 2.672,0.085 1.03,-0.054 0.009,-0.093 0,0"
             style="fill:#1a2e35;fill-opacity:1;fill-rule:nonzero;stroke:none"
             id="path506" /></g><g
           id="g508"
           transform="translate(76.2496,168.654)"><path
             d="M 0,0 C 0,0 4.058,-7.97 15.795,-6.507 L 15.72,-3.74 C 15.72,-3.74 7.983,-4.471 0,0"
             style="fill:#ff9c6a;fill-opacity:1;fill-rule:nonzero;stroke:none"
             id="path510" /></g><g
           id="g512"
           transform="translate(84.1798,201.2214)"><path
             d="m 0,0 c -0.146,-0.445 -1.774,-0.287 -3.67,-0.574 -1.904,-0.25 -3.422,-0.855 -3.687,-0.467 -0.119,0.186 0.136,0.609 0.744,1.056 0.602,0.445 1.572,0.881 2.711,1.044 1.139,0.159 2.192,0.01 2.894,-0.25 C -0.3,0.548 0.062,0.212 0,0"
             style="fill:#1a2e35;fill-opacity:1;fill-rule:nonzero;stroke:none"
             id="path514" /></g><g
           id="g516"
           transform="translate(99.6002,200.7604)"><path
             d="m 0,0 c -0.274,-0.377 -1.404,-0.029 -2.749,-0.052 -1.346,0.024 -2.476,-0.324 -2.75,0.053 -0.12,0.185 0.048,0.559 0.535,0.923 0.479,0.363 1.291,0.673 2.215,0.673 C -1.824,1.596 -1.013,1.286 -0.534,0.923 -0.047,0.559 0.121,0.185 0,0"
             style="fill:#1a2e35;fill-opacity:1;fill-rule:nonzero;stroke:none"
             id="path518" /></g><g
           id="g520"
           transform="translate(98.4039,211.1208)"><path
             d="m 0,0 c -0.77,1.749 -2.743,2.756 -4.653,2.799 -1.911,0.042 -3.754,-0.735 -5.38,-1.737 -6.889,-4.249 -10.211,-14.131 -17.012,-18.518 -1.673,-1.079 -3.915,-0.198 -5.325,-1.605 -1.408,-1.406 -2.285,-3.613 -1.433,-5.412 -0.966,1.249 -1.946,2.521 -2.517,3.994 -0.571,1.472 -0.687,3.2 0.063,4.589 0.57,1.055 1.605,1.877 1.862,3.048 0.227,1.029 -0.208,2.088 -0.193,3.142 0.014,1.073 0.49,2.082 0.991,3.031 2.575,4.872 6.18,9.315 10.906,12.149 3.087,1.852 6.646,2.985 10.246,2.965 3.6,-0.02 7.23,-1.239 9.933,-3.618 C -0.923,3.428 0.747,1.981 0,0"
             style="fill:#1a2e35;fill-opacity:1;fill-rule:nonzero;stroke:none"
             id="path522" /></g><g
           id="g524"
           transform="translate(66.2453,190.6071)"><path
             d="M 0,0 C -0.133,0.334 -6.332,2.373 -6.227,-4.15 -6.125,-10.488 0.232,-9.059 0.24,-8.876 0.247,-8.694 0,0 0,0"
             style="fill:#ffc19d;fill-opacity:1;fill-rule:nonzero;stroke:none"
             id="path526" /></g><g
           id="g528"
           transform="translate(64.4835,184.0944)"><path
             d="m 0,0 c -0.028,0.02 -0.109,-0.08 -0.294,-0.169 -0.18,-0.087 -0.492,-0.15 -0.825,-0.033 -0.674,0.233 -1.258,1.285 -1.311,2.427 -0.027,0.576 0.083,1.128 0.279,1.587 0.185,0.466 0.478,0.796 0.814,0.863 0.334,0.084 0.577,-0.113 0.657,-0.29 0.089,-0.176 0.051,-0.303 0.085,-0.314 0.018,-0.015 0.134,0.11 0.077,0.369 -0.028,0.126 -0.105,0.275 -0.256,0.393 -0.155,0.121 -0.379,0.18 -0.614,0.149 C -1.876,4.939 -2.307,4.481 -2.522,3.979 -2.764,3.473 -2.902,2.852 -2.871,2.204 c 0.065,-1.275 0.742,-2.458 1.663,-2.705 0.448,-0.108 0.817,0.033 1.006,0.187 C -0.008,-0.154 0.022,-0.012 0,0"
             style="fill:#ff9c6a;fill-opacity:1;fill-rule:nonzero;stroke:none"
             id="path530" /></g><g
           id="g532"
           transform="translate(63.632,193.7917)"><path
             d="m 0,0 c 0.005,-0.009 0.135,0.068 0.376,0.224 0.238,0.161 0.606,0.377 1.043,0.706 0.868,0.665 2.067,1.715 3.332,3.211 1.273,1.488 2.596,3.409 4.027,5.552 1.435,2.138 3.01,4.505 5.043,6.66 1.036,1.053 2.131,2.004 3.298,2.762 1.164,0.763 2.389,1.336 3.597,1.758 2.417,0.855 4.755,1.093 6.687,1.016 1.941,-0.067 3.486,-0.434 4.521,-0.753 0.525,-0.144 0.915,-0.308 1.186,-0.402 0.27,-0.097 0.414,-0.144 0.418,-0.134 0.004,0.008 -0.132,0.073 -0.396,0.188 -0.265,0.112 -0.65,0.294 -1.174,0.455 -1.031,0.355 -2.584,0.757 -4.546,0.85 -1.954,0.104 -4.326,-0.115 -6.784,-0.969 C 19.4,20.703 18.151,20.126 16.965,19.353 15.774,18.585 14.662,17.62 13.612,16.553 11.554,14.372 9.979,11.987 8.557,9.842 7.137,7.689 5.839,5.767 4.594,4.271 3.358,2.77 2.191,1.707 1.351,1.019 0.927,0.679 0.571,0.449 0.344,0.272 0.114,0.102 -0.005,0.008 0,0"
             style="fill:#ffffff;fill-opacity:1;fill-rule:nonzero;stroke:none"
             id="path534" /></g><g
           id="g536"
           transform="translate(65.2765,192.0446)"><path
             d="m 0,0 c -0.05,-1.733 -0.078,-3.563 0.766,-5.078 0.843,-1.515 2.889,-2.503 4.369,-1.6 1.208,0.737 1.53,2.319 1.698,3.723 0.486,4.052 0.645,8.14 1.165,12.187 z"
             style="fill:#1a2e35;fill-opacity:1;fill-rule:nonzero;stroke:none"
             id="path538" /></g><g
           id="g540"
           transform="translate(96.7584,214.0895)"><path
             d="m 0,0 c -0.006,-0.037 -0.563,0.09 -1.58,0.093 -1.009,-0.002 -2.497,-0.178 -4.17,-0.886 -0.833,-0.353 -1.718,-0.813 -2.588,-1.428 -0.872,-0.612 -1.758,-1.341 -2.651,-2.145 -1.772,-1.623 -3.601,-3.566 -5.141,-5.871 -0.773,-1.153 -1.453,-2.335 -2.194,-3.433 -0.734,-1.101 -1.558,-2.101 -2.459,-2.929 -1.796,-1.652 -3.661,-2.828 -5.251,-3.734 -1.596,-0.903 -2.934,-1.542 -3.857,-1.983 -0.437,-0.202 -0.791,-0.365 -1.07,-0.493 -0.247,-0.108 -0.379,-0.16 -0.385,-0.149 -0.005,0.011 0.117,0.084 0.353,0.214 0.272,0.143 0.616,0.327 1.04,0.552 0.903,0.479 2.222,1.151 3.793,2.077 1.566,0.928 3.398,2.116 5.154,3.757 0.874,0.816 1.671,1.793 2.393,2.882 0.728,1.086 1.406,2.271 2.187,3.437 1.563,2.339 3.416,4.292 5.218,5.916 0.909,0.807 1.807,1.533 2.703,2.145 0.895,0.617 1.804,1.075 2.66,1.418 1.719,0.693 3.243,0.832 4.268,0.791 C -1.062,0.213 -0.665,0.155 -0.4,0.102 -0.135,0.047 0.002,0.012 0,0"
             style="fill:#375a64;fill-opacity:1;fill-rule:nonzero;stroke:none"
             id="path542" /></g><g
           id="g544"
           transform="translate(64.9899,195.9518)"><path
             d="m 0,0 c 0.011,-0.018 -0.184,-0.156 -0.549,-0.394 -0.427,-0.266 -0.953,-0.595 -1.578,-0.987 -0.171,-0.104 -0.348,-0.213 -0.532,-0.325 -0.198,-0.116 -0.418,-0.22 -0.686,-0.25 -0.133,-0.011 -0.291,-0.004 -0.432,0.089 -0.14,0.089 -0.233,0.245 -0.249,0.411 -0.022,0.333 0.149,0.583 0.276,0.81 0.545,0.93 1.144,1.951 1.778,3.035 L -1.714,2.162 C -2.295,1.705 -2.978,1.334 -3.722,1.089 -4.468,0.842 -5.24,0.734 -5.981,0.757 c -0.182,0.001 -0.387,0.019 -0.578,0.082 -0.187,0.06 -0.406,0.181 -0.504,0.415 -0.101,0.228 -0.019,0.487 0.088,0.642 0.106,0.167 0.239,0.291 0.35,0.408 0.916,0.937 1.594,1.917 2.08,2.782 0.968,1.743 1.222,2.979 1.289,2.957 C -3.236,8.038 -3.281,7.729 -3.432,7.185 -3.588,6.644 -3.854,5.864 -4.324,4.966 -4.791,4.069 -5.462,3.051 -6.389,2.075 c -0.23,-0.23 -0.457,-0.494 -0.36,-0.691 0.081,-0.197 0.444,-0.285 0.777,-0.279 0.701,-0.016 1.431,0.088 2.139,0.322 0.705,0.232 1.351,0.581 1.903,1.01 L -1.189,3.012 -1.672,2.21 c -0.649,-1.075 -1.259,-2.088 -1.816,-3.012 -0.14,-0.223 -0.265,-0.444 -0.251,-0.626 0.012,-0.179 0.169,-0.281 0.372,-0.259 0.41,0.033 0.774,0.323 1.125,0.501 0.646,0.356 1.189,0.656 1.63,0.898 C -0.226,-0.084 -0.011,0.02 0,0"
             style="fill:#ffffff;fill-opacity:1;fill-rule:nonzero;stroke:none"
             id="path546" /></g><g
           id="g548"
           transform="translate(84.2062,179.5983)"><path
             d="M 0,0 C 0.188,0.973 1.155,1.741 2.143,1.67 2.868,1.618 3.534,1.147 3.88,0.508 4.226,-0.131 4.262,-0.916 4.037,-1.607 L 4.007,-1.761 C 3.363,-2.513 2.22,-2.804 1.309,-2.415 0.398,-2.027 -0.187,-0.973 0,0"
             style="fill:#ff9c6a;fill-opacity:1;fill-rule:nonzero;stroke:none"
             id="path550" /></g><g
           id="g552"
           transform="translate(89.3908,177.8376)"><path
             d="m 0,0 c -0.005,0.247 -1.644,0.121 -2.917,1.433 -1.277,1.309 -1.23,3.07 -1.46,3.065 -0.105,0.015 -0.288,-0.414 -0.25,-1.153 0.031,-0.725 0.347,-1.763 1.126,-2.566 0.78,-0.8 1.761,-1.093 2.438,-1.096 C -0.373,-0.326 0.019,-0.111 0,0"
             style="fill:#1a2e35;fill-opacity:1;fill-rule:nonzero;stroke:none"
             id="path554" /></g><g
           id="g556"
           transform="translate(115.5822,147.3747)"><path
             d="m 0,0 -0.187,0.236 c -8.192,8.67 -23.273,11.573 -23.273,11.573 0,0 -0.922,-5.676 -9.375,-6.31 -8.454,-0.634 -14.664,7.978 -14.664,7.978 l -11.278,-1.581 c 0,0 -5.677,-0.668 -9.211,-2.748 -7.961,-4.682 -12.186,-20.834 -12.186,-20.834 L 6.8,-12.035 Z"
             style="fill:#ff735d;fill-opacity:1;fill-rule:nonzero;stroke:none"
             id="path558" /></g><g
           id="g560"
           transform="translate(123.5353,232.4733)"><path
             d="m 0,0 c 0,0 0.205,0.003 0.609,-0.011 0.405,-0.005 1.008,-0.029 1.793,-0.167 1.544,-0.264 3.929,-0.862 6.379,-2.758 1.214,-0.937 2.435,-2.181 3.437,-3.785 1.001,-1.596 1.775,-3.557 2.064,-5.767 0.141,-1.107 0.136,-2.263 0.134,-3.444 0.002,-1.185 0.005,-2.411 0.008,-3.675 0.005,-2.529 0.01,-5.213 0.015,-8.045 0.016,-11.336 0.034,-25.048 0.056,-40.685 0.003,-3.91 0.007,-7.94 0.011,-12.084 -0.005,-1.038 0.025,-2.073 -0.052,-3.143 -0.066,-1.065 -0.284,-2.12 -0.575,-3.16 -0.625,-2.068 -1.754,-4.005 -3.254,-5.631 -1.494,-1.636 -3.399,-2.931 -5.53,-3.716 l -0.801,-0.29 -0.828,-0.214 c -0.547,-0.167 -1.119,-0.221 -1.685,-0.315 -1.145,-0.136 -2.295,-0.129 -3.43,-0.123 -4.57,-0.002 -9.238,-0.005 -13.998,-0.008 l 0.236,0.237 c 0.004,-7.021 0.007,-14.526 0.011,-22.22 v -0.573 l -0.417,0.392 c -3.682,3.469 -7.432,7.053 -11.222,10.741 -3.776,3.701 -7.637,7.458 -11.335,11.488 l 0.19,-0.084 c -11.818,-0.002 -24.157,-0.003 -36.743,-0.004 h -11.291 -2.801 c -0.929,-0.007 -1.86,-0.004 -2.81,0.063 -1.884,0.157 -3.729,0.685 -5.399,1.542 -3.35,1.703 -5.956,4.734 -7.138,8.239 -0.615,1.743 -0.813,3.615 -0.795,5.421 0.001,1.8 0.001,3.593 0.002,5.379 0.005,14.282 0.01,28.058 0.015,41.182 0.003,6.562 0.007,12.96 0.011,19.178 -0.005,1.542 -0.013,3.125 0.296,4.655 0.328,1.522 0.886,2.977 1.643,4.307 0.745,1.34 1.738,2.517 2.851,3.527 1.116,1.006 2.366,1.862 3.726,2.453 1.352,0.592 2.77,1.038 4.22,1.189 1.455,0.164 2.878,0.112 4.283,0.118 2.815,-0.003 5.579,-0.005 8.287,-0.008 5.417,-0.006 10.616,-0.012 15.578,-0.016 19.843,-0.036 35.901,-0.064 47.012,-0.083 5.542,-0.021 9.848,-0.038 12.781,-0.049 1.453,-0.011 2.564,-0.02 3.324,-0.026 C -0.383,0.019 0,0 0,0 0,0 -0.383,-0.018 -1.132,-0.026 -1.892,-0.032 -3.003,-0.041 -4.456,-0.052 -7.389,-0.063 -11.695,-0.08 -17.237,-0.101 -28.348,-0.12 -44.406,-0.148 -64.249,-0.184 -69.211,-0.189 -74.41,-0.194 -79.827,-0.2 c -2.708,-0.003 -5.472,-0.006 -8.287,-0.008 -1.408,-0.008 -2.835,0.038 -4.231,-0.122 -1.407,-0.149 -2.782,-0.585 -4.093,-1.161 -1.318,-0.575 -2.529,-1.407 -3.61,-2.385 -1.078,-0.98 -2.04,-2.124 -2.76,-3.424 -0.731,-1.29 -1.27,-2.701 -1.587,-4.176 -0.295,-1.482 -0.287,-3.002 -0.28,-4.564 0.003,-6.218 0.007,-12.616 0.01,-19.178 0.005,-13.124 0.011,-26.9 0.016,-41.182 0,-1.786 0.001,-3.579 0.001,-5.379 -0.015,-1.792 0.175,-3.563 0.769,-5.255 1.141,-3.379 3.656,-6.303 6.887,-7.945 1.611,-0.825 3.389,-1.334 5.206,-1.485 0.904,-0.063 1.833,-0.067 2.767,-0.059 h 2.801 11.291 c 12.586,-0.001 24.925,-0.002 36.743,-0.004 h 0.114 l 0.077,-0.084 c 3.676,-4.01 7.537,-7.772 11.307,-11.471 3.785,-3.688 7.532,-7.273 11.208,-10.742 l -0.417,-0.18 c 0.004,7.694 0.007,15.199 0.011,22.22 v 0.237 h 0.237 c 4.76,-0.003 9.428,-0.006 13.998,-0.008 1.147,-0.008 2.275,-0.015 3.375,0.115 0.548,0.09 1.103,0.14 1.633,0.302 l 0.802,0.205 0.776,0.282 c 2.066,0.756 3.916,2.009 5.366,3.594 1.458,1.575 2.556,3.453 3.166,5.458 0.284,1.009 0.498,2.033 0.563,3.066 0.076,1.025 0.051,2.077 0.056,3.112 0.004,4.144 0.008,8.174 0.012,12.084 0.021,15.637 0.039,29.349 0.054,40.685 0.006,2.832 0.012,5.516 0.016,8.045 0.003,1.264 0.006,2.49 0.008,3.675 0.009,1.188 0.018,2.33 -0.115,3.416 -0.273,2.178 -1.025,4.115 -2.003,5.697 C 11.081,-5.23 9.883,-3.992 8.688,-3.056 6.279,-1.161 3.921,-0.542 2.389,-0.254 1.61,-0.104 1.011,-0.067 0.607,-0.05 0.205,-0.023 0,0 0,0"
             style="fill:#1a2e35;fill-opacity:1;fill-rule:nonzero;stroke:none"
             id="path562" /></g></g></g><g
       id="g564"><g
         id="g566"
         clip-path="url(#clipPath570)"><g
           id="g572"
           transform="translate(352.6158,111.155)"><path
             d="m 0,0 h 113.586 c 6.33,0 11.461,5.131 11.461,11.461 v 87.914 c 0,6.329 -5.131,11.461 -11.461,11.461 H 0 c -6.329,0 -11.46,-5.132 -11.46,-11.461 V 11.461 C -11.46,5.131 -6.329,0 0,0"
             style="fill:#ffffff;fill-opacity:1;fill-rule:nonzero;stroke:none"
             id="path574" /></g><g
           id="g576"
           transform="translate(403.9244,114.5485)"><path
             d="M 0,0 C -1.4,-3.394 -28.478,-28.84 -28.478,-28.84 V 0 Z"
             style="fill:#375a64;fill-opacity:1;fill-rule:nonzero;stroke:none"
             id="path578" /></g><g
           id="g580"
           transform="translate(393.4449,137.7565)"><path
             d="m 0,0 c 0.005,3.5 0.002,6.42 -0.021,6.779 0,0 -11.837,1.119 -12.686,12.837 -0.411,5.662 -0.307,17.394 -0.089,28.006 0.233,11.398 9.194,20.699 20.573,21.382 l 1.132,0.068 C 21.151,69.093 28.008,58.706 27.689,46.468 L 27.26,0.53 7.453,-15.372 6.019,-15.245 Z"
             style="fill:#ffc19d;fill-opacity:1;fill-rule:nonzero;stroke:none"
             id="path582" /></g><g
           id="g584"
           transform="translate(393.4244,144.5358)"><path
             d="m 0,0 c 0,0 7.417,0.011 14.996,5.431 0,0 -3.21,-8.789 -14.974,-8.436 z"
             style="fill:#ff9c6a;fill-opacity:1;fill-rule:nonzero;stroke:none"
             id="path586" /></g><g
           id="g588"
           transform="translate(400.5983,180.3239)"><path
             d="M 0,0 C 0.229,-0.24 1.595,0.831 3.557,0.858 5.516,0.915 6.97,-0.096 7.18,0.154 7.282,0.265 7.046,0.701 6.412,1.158 5.788,1.613 4.729,2.049 3.508,2.022 2.286,1.995 1.265,1.518 0.681,1.035 0.085,0.551 -0.113,0.107 0,0"
             style="fill:#1a2e35;fill-opacity:1;fill-rule:nonzero;stroke:none"
             id="path590" /></g><g
           id="g592"
           transform="translate(402.0465,174.9626)"><path
             d="M 0,0 C 0.021,-0.838 0.748,-1.512 1.624,-1.506 2.497,-1.501 3.191,-0.818 3.17,0.02 3.149,0.858 2.423,1.532 1.549,1.527 0.673,1.522 -0.021,0.838 0,0"
             style="fill:#1a2e35;fill-opacity:1;fill-rule:nonzero;stroke:none"
             id="path594" /></g><g
           id="g596"
           transform="translate(395.5094,166.7468)"><path
             d="m 0,0 c 0.003,0.103 -1.129,0.229 -2.958,0.352 -0.463,0.02 -0.904,0.085 -1,0.394 -0.129,0.326 0.034,0.834 0.225,1.383 0.366,1.14 0.748,2.334 1.15,3.585 1.591,5.102 2.712,9.286 2.506,9.349 C -0.283,15.125 -1.739,11.04 -3.329,5.937 -3.71,4.681 -4.075,3.481 -4.422,2.335 -4.563,1.802 -4.828,1.19 -4.552,0.515 c 0.145,-0.336 0.497,-0.566 0.797,-0.627 0.301,-0.074 0.56,-0.063 0.788,-0.063 C -1.134,-0.163 -0.001,-0.104 0,0"
             style="fill:#1a2e35;fill-opacity:1;fill-rule:nonzero;stroke:none"
             id="path598" /></g><g
           id="g600"
           transform="translate(401.5748,186.6159)"><path
             d="M 0,0 C 0.184,-0.437 1.758,-0.13 3.636,-0.251 5.517,-0.332 7.055,-0.807 7.278,-0.391 7.377,-0.192 7.09,0.212 6.456,0.608 5.827,1.004 4.841,1.356 3.714,1.418 2.587,1.478 1.572,1.232 0.911,0.906 0.243,0.58 -0.08,0.208 0,0"
             style="fill:#1a2e35;fill-opacity:1;fill-rule:nonzero;stroke:none"
             id="path602" /></g><g
           id="g604"
           transform="translate(383.1783,185.5016)"><path
             d="M 0,0 C 0.201,-0.357 1.736,0.017 3.592,0.05 5.447,0.116 6.982,-0.174 7.184,0.194 7.271,0.369 6.97,0.691 6.327,0.981 5.69,1.271 4.703,1.499 3.59,1.47 2.479,1.438 1.491,1.157 0.854,0.833 0.213,0.509 -0.088,0.171 0,0"
             style="fill:#1a2e35;fill-opacity:1;fill-rule:nonzero;stroke:none"
             id="path606" /></g><g
           id="g608"
           transform="translate(420.6979,175.4841)"><path
             d="M 0,0 C 0.194,0.099 7.914,2.866 8.139,-5.165 8.364,-13.197 0.254,-11.767 0.233,-11.537 0.213,-11.307 0,0 0,0"
             style="fill:#ffc19d;fill-opacity:1;fill-rule:nonzero;stroke:none"
             id="path610" /></g><g
           id="g612"
           transform="translate(423.2994,167.0593)"><path
             d="m 0,0 c 0.035,0.026 0.143,-0.095 0.383,-0.196 0.233,-0.099 0.632,-0.16 1.046,0.008 0.84,0.335 1.516,1.703 1.515,3.151 C 2.943,3.694 2.771,4.387 2.496,4.955 2.234,5.536 1.843,5.936 1.413,6 0.985,6.086 0.69,5.822 0.599,5.593 0.497,5.365 0.553,5.207 0.51,5.191 0.488,5.171 0.334,5.321 0.39,5.655 0.418,5.815 0.507,6.008 0.691,6.167 0.88,6.329 1.161,6.417 1.459,6.394 2.08,6.367 2.653,5.813 2.956,5.188 3.293,4.562 3.504,3.785 3.504,2.964 3.498,1.344 2.712,-0.194 1.56,-0.562 0.999,-0.726 0.523,-0.568 0.274,-0.386 0.021,-0.194 -0.027,-0.016 0,0"
             style="fill:#ff9c6a;fill-opacity:1;fill-rule:nonzero;stroke:none"
             id="path614" /></g><g
           id="g616"
           transform="translate(397.9996,159.9196)"><path
             d="M 0,0 C -0.085,0.203 1.494,0.654 2.618,2.115 3.181,2.835 3.51,3.622 3.757,4.198 3.998,4.777 4.181,5.141 4.267,5.113 4.348,5.087 4.323,4.692 4.186,4.06 4.043,3.435 3.759,2.542 3.122,1.725 2.495,0.899 1.662,0.412 1.052,0.182 0.436,-0.059 0.021,-0.069 0,0"
             style="fill:#1a2e35;fill-opacity:1;fill-rule:nonzero;stroke:none"
             id="path618" /></g><g
           id="g620"
           transform="translate(431.5397,188.3425)"><path
             d="m 0,0 c -1.637,2.854 -1.982,6.236 -2.855,9.407 -0.874,3.171 -2.591,6.467 -5.675,7.612 l -0.071,-0.031 c -2.766,1.155 -6.195,1.215 -8.504,-0.686 -0.512,4.179 -4.126,7.531 -8.186,8.652 -4.059,1.121 -10.599,0.568 -14.524,-0.954 -3.036,-1.176 -5.988,-3.628 -9.582,-7.241 -1.515,-1.522 -2.915,-3.162 -4.161,-4.911 l -3.682,-10.89 2.96,-5.773 c 0.176,-0.393 0.358,-0.785 0.581,-1.174 l 0.003,0.026 2.579,-12.12 c 0.215,3.293 0.123,14.76 0.339,18.054 5.089,0.153 9.715,2.146 13.175,5.881 1.827,1.969 3.274,4.45 5.697,5.61 3.124,1.495 6.809,0.33 10.065,-0.849 l -0.137,0.127 c 1.693,-0.809 3.227,-1.947 4.492,-3.331 -0.82,-6.478 -0.23,-13.132 1.728,-19.362 0.296,-0.939 1.109,-2.874 2.021,-3.241 1.794,-0.72 2.302,1.109 3.401,2.071 0.808,0.707 1.993,0.784 3.289,0.765 0.786,1.992 1.614,5.355 2.311,8.301 1.084,-0.344 2.243,-0.449 3.367,-0.268 -0.335,0.832 -0.67,1.663 -1.005,2.495 0.446,-0.29 0.908,-0.587 1.434,-0.671 0.525,-0.084 1.132,0.105 1.376,0.577 C 0.749,-1.312 0.342,-0.597 0,0"
             style="fill:#1a2e35;fill-opacity:1;fill-rule:nonzero;stroke:none"
             id="path622" /></g><g
           id="g624"
           transform="translate(410.733,203.3483)"><path
             d="M 0,0 C -0.024,-0.03 0.486,-0.316 1.16,-1.09 1.828,-1.859 2.571,-3.193 2.907,-5 3.08,-5.898 3.183,-6.902 3.168,-7.979 c -0.009,-1.08 -0.11,-2.232 -0.209,-3.449 -0.095,-1.216 -0.198,-2.5 -0.138,-3.838 0.032,-0.668 0.103,-1.348 0.239,-2.029 0.138,-0.669 0.304,-1.394 0.8,-1.975 0.395,-0.472 1.063,-0.689 1.646,-0.577 0.586,0.096 1.11,0.401 1.497,0.821 0.765,0.87 0.967,1.982 1.167,2.963 L 7.924,-16.09 c 0.389,-0.889 0.791,-1.766 1.392,-2.472 0.592,-0.709 1.417,-1.183 2.262,-1.269 0.421,-0.043 0.846,0.019 1.21,0.195 0.371,0.175 0.643,0.478 0.831,0.798 0.179,0.326 0.276,0.687 0.262,1.034 -0.016,0.348 -0.147,0.68 -0.364,0.916 l -0.126,-0.109 c 0.889,-1.04 1.836,-1.606 2.491,-1.92 0.331,-0.157 0.596,-0.252 0.775,-0.312 0.181,-0.056 0.277,-0.081 0.279,-0.073 0.002,0.008 -0.088,0.046 -0.263,0.115 -0.173,0.075 -0.431,0.182 -0.751,0.35 -0.636,0.336 -1.551,0.915 -2.403,1.946 L 13.394,-17 c 0.387,-0.422 0.401,-1.155 0.054,-1.74 -0.175,-0.288 -0.424,-0.558 -0.751,-0.706 -0.324,-0.154 -0.712,-0.207 -1.095,-0.163 -0.776,0.087 -1.546,0.531 -2.1,1.205 -0.567,0.674 -0.955,1.528 -1.341,2.418 l -0.163,0.378 -0.083,-0.405 c -0.2,-0.978 -0.414,-2.047 -1.111,-2.831 -0.346,-0.376 -0.826,-0.651 -1.34,-0.733 -0.515,-0.093 -1.054,0.084 -1.399,0.488 -0.433,0.502 -0.604,1.191 -0.739,1.849 -0.133,0.663 -0.205,1.33 -0.236,1.987 -0.064,1.315 0.033,2.592 0.121,3.807 0.091,1.215 0.185,2.374 0.184,3.466 0.004,1.091 -0.111,2.108 -0.298,3.018 C 2.731,-3.131 1.944,-1.78 1.24,-1.02 0.529,-0.255 0,0 0,0"
             style="fill:#375a64;fill-opacity:1;fill-rule:nonzero;stroke:none"
             id="path626" /></g><g
           id="g628"
           transform="translate(374.3649,192.4235)"><path
             d="m 0,0 c -0.003,-0.004 0.028,-0.031 0.093,-0.081 0.079,-0.06 0.174,-0.13 0.29,-0.218 0.127,-0.097 0.288,-0.211 0.492,-0.324 0.2,-0.118 0.429,-0.263 0.707,-0.384 1.081,-0.531 2.818,-1.066 5,-0.967 2.161,0.094 4.763,0.826 7.1,2.519 2.361,1.651 4.446,4.102 6.161,6.918 0.87,1.407 1.583,2.851 2.365,4.184 0.777,1.333 1.633,2.564 2.663,3.531 1.017,0.971 2.193,1.685 3.4,2.004 0.601,0.171 1.206,0.203 1.782,0.181 0.577,-0.038 1.122,-0.161 1.625,-0.334 1.005,-0.351 1.811,-0.919 2.422,-1.501 0.612,-0.587 1.02,-1.203 1.298,-1.73 0.519,-1.083 0.54,-1.775 0.582,-1.764 0.005,10e-4 0.002,0.042 -0.007,0.123 -0.014,0.098 -0.031,0.215 -0.051,0.36 -0.054,0.314 -0.183,0.77 -0.428,1.327 -0.268,0.545 -0.672,1.183 -1.287,1.795 -0.614,0.604 -1.434,1.199 -2.465,1.573 -0.514,0.184 -1.077,0.317 -1.676,0.362 -0.595,0.029 -1.23,-0.001 -1.853,-0.173 -1.253,-0.321 -2.47,-1.05 -3.516,-2.04 C 23.639,14.376 22.764,13.124 21.978,11.782 21.186,10.44 20.472,9 19.609,7.606 17.907,4.812 15.853,2.388 13.536,0.751 11.242,-0.928 8.701,-1.661 6.572,-1.78 4.427,-1.903 2.71,-1.405 1.628,-0.91 0.537,-0.408 0.021,0.033 0,0"
             style="fill:#375a64;fill-opacity:1;fill-rule:nonzero;stroke:none"
             id="path630" /></g><g
           id="g632"
           transform="translate(382.7115,179.8161)"><path
             d="M 0,0 C 0.229,-0.24 1.595,0.831 3.557,0.858 5.516,0.915 6.97,-0.096 7.18,0.154 7.282,0.266 7.046,0.701 6.412,1.158 5.788,1.613 4.729,2.049 3.507,2.022 2.285,1.995 1.265,1.518 0.681,1.035 0.084,0.552 -0.113,0.106 0,0"
             style="fill:#1a2e35;fill-opacity:1;fill-rule:nonzero;stroke:none"
             id="path634" /></g><g
           id="g636"
           transform="translate(385.7086,174.7272)"><path
             d="M 0,0 C 0.021,-0.838 0.748,-1.512 1.624,-1.506 2.497,-1.501 3.191,-0.818 3.17,0.02 3.149,0.857 2.423,1.532 1.549,1.527 0.673,1.522 -0.021,0.838 0,0"
             style="fill:#1a2e35;fill-opacity:1;fill-rule:nonzero;stroke:none"
             id="path638" /></g><g
           id="g640"
           transform="translate(378.9801,201.5261)"><path
             d="m 0,0 c -0.997,-1.315 -2.53,-2.514 -4.172,-2.337 -0.484,0.052 -1.746,0.513 -1.746,0.513 -0.573,-0.347 -0.439,-2.311 -0.045,-2.852 0.396,-0.541 1.231,-1.273 1.231,-1.273 -1.926,-1.034 -3.679,-0.524 -5.731,0.227 0.36,-3.493 2.738,-6.707 5.975,-8.072 1.034,-0.436 2.29,-0.674 3.232,-0.063 0.83,0.536 1.171,1.564 1.422,2.519 0.923,3.511 1.408,7.136 1.443,10.766 z"
             style="fill:#1a2e35;fill-opacity:1;fill-rule:nonzero;stroke:none"
             id="path642" /></g><g
           id="g644"
           transform="translate(366.6364,124.5368)"><path
             d="m 0,0 0.213,0.271 c 9.383,9.928 26.652,13.252 26.652,13.252 0,0 1.056,-6.5 10.737,-7.226 9.68,-0.726 16.793,9.136 16.793,9.136 L 67.31,13.624 c 0,0 6.501,-0.767 10.548,-3.147 9.117,-5.363 13.955,-23.859 13.955,-23.859 l -99.6,-0.4 z"
             style="fill:#375a64;fill-opacity:1;fill-rule:nonzero;stroke:none"
             id="path646" /></g><g
           id="g648"
           transform="translate(357.528,221.9909)"><path
             d="m 0,0 c 0,0 -0.235,-0.025 -0.695,-0.055 -0.234,-0.014 -0.521,-0.032 -0.861,-0.053 -0.34,-0.032 -0.732,-0.112 -1.18,-0.178 -1.756,-0.328 -4.458,-1.035 -7.22,-3.205 -1.369,-1.072 -2.743,-2.491 -3.866,-4.312 -1.121,-1.813 -1.985,-4.032 -2.298,-6.529 -0.153,-1.245 -0.143,-2.555 -0.134,-3.914 0.003,-1.358 0.005,-2.761 0.008,-4.208 0.005,-2.897 0.011,-5.97 0.017,-9.214 0.014,-12.98 0.033,-28.683 0.054,-46.592 0.003,-4.477 0.007,-9.093 0.011,-13.838 0.007,-1.184 -0.023,-2.387 0.063,-3.566 0.076,-1.186 0.322,-2.359 0.647,-3.517 0.699,-2.301 1.959,-4.457 3.632,-6.263 1.664,-1.82 3.787,-3.257 6.156,-4.125 l 0.892,-0.323 0.92,-0.236 c 0.608,-0.186 1.245,-0.243 1.874,-0.348 1.262,-0.148 2.556,-0.139 3.87,-0.131 5.232,0.003 10.578,0.005 16.029,0.008 h 0.237 v -0.237 c 0.003,-8.04 0.007,-16.635 0.011,-25.446 l -0.417,0.179 c 4.211,3.973 8.502,8.08 12.836,12.302 4.318,4.237 8.739,8.544 12.95,13.137 l 0.078,0.085 h 0.114 c 13.534,10e-4 27.664,0.003 42.078,0.004 h 12.929 c 1.072,-10e-4 2.14,-10e-4 3.207,-10e-4 1.07,-0.008 2.134,-0.004 3.172,0.068 2.086,0.175 4.128,0.759 5.976,1.706 3.709,1.885 6.596,5.24 7.906,9.119 0.682,1.942 0.9,3.977 0.882,6.03 0.001,2.062 0.001,4.116 0.002,6.16 0.005,16.355 0.01,32.133 0.015,47.161 0.003,7.515 0.007,14.843 0.01,21.962 0.007,1.788 0.018,3.533 -0.322,5.234 -0.363,1.693 -0.982,3.311 -1.821,4.791 -0.826,1.492 -1.93,2.804 -3.167,3.929 -1.241,1.121 -2.63,2.076 -4.143,2.736 -1.504,0.661 -3.082,1.161 -4.696,1.331 -1.603,0.184 -3.236,0.131 -4.85,0.14 -3.223,0.003 -6.387,0.005 -9.49,0.008 -6.203,0.006 -12.157,0.012 -17.84,0.016 C 50.852,-0.149 32.461,-0.121 19.74,-0.102 13.391,-0.08 8.459,-0.064 5.104,-0.053 3.438,-0.041 2.164,-0.033 1.297,-0.027 0.439,-0.019 0,0 0,0 0,0 0.439,0.018 1.297,0.026 2.164,0.032 3.438,0.041 5.104,0.052 8.459,0.063 13.391,0.08 19.74,0.101 32.461,0.12 50.852,0.148 73.576,0.184 c 5.683,0.005 11.637,0.01 17.84,0.016 3.103,0.003 6.267,0.006 9.49,0.008 1.61,-0.006 3.24,0.052 4.902,-0.135 1.657,-0.173 3.278,-0.682 4.824,-1.36 1.554,-0.676 2.981,-1.653 4.258,-2.804 1.271,-1.154 2.406,-2.5 3.257,-4.031 0.866,-1.521 1.503,-3.184 1.878,-4.923 0.353,-1.749 0.343,-3.558 0.338,-5.325 0.004,-7.119 0.008,-14.447 0.011,-21.962 0.005,-15.028 0.011,-30.806 0.016,-47.161 0,-2.044 0.001,-4.098 0.001,-6.16 0.02,-2.067 -0.205,-4.203 -0.908,-6.197 -1.351,-4.004 -4.329,-7.466 -8.157,-9.413 -1.908,-0.978 -4.015,-1.582 -6.168,-1.762 -1.085,-0.076 -2.151,-0.079 -3.216,-0.071 H 98.735 85.806 c -14.414,0.001 -28.544,0.002 -42.078,0.003 l 0.189,0.085 c -4.232,-4.614 -8.654,-8.916 -12.979,-13.155 -4.338,-4.223 -8.632,-8.327 -12.849,-12.3 l -0.417,-0.392 v 0.573 c 0.004,8.811 0.007,17.406 0.011,25.446 l 0.236,-0.236 c -5.451,0.003 -10.797,0.005 -16.029,0.008 -1.302,-0.007 -2.618,-0.016 -3.925,0.139 -0.647,0.108 -1.301,0.168 -1.927,0.36 l -0.945,0.244 -0.916,0.332 c -2.435,0.896 -4.614,2.377 -6.321,4.246 -1.715,1.858 -3.005,4.073 -3.72,6.437 -0.333,1.189 -0.582,2.395 -0.658,3.611 -0.087,1.222 -0.054,2.41 -0.059,3.597 0.004,4.745 0.008,9.361 0.011,13.838 0.021,17.909 0.04,33.612 0.055,46.592 0.005,3.244 0.011,6.317 0.016,9.214 0.003,1.447 0.005,2.85 0.008,4.208 -0.004,1.353 -0.01,2.677 0.151,3.942 0.33,2.529 1.215,4.772 2.36,6.6 1.145,1.835 2.542,3.26 3.931,4.333 2.803,2.17 5.531,2.856 7.3,3.161 0.451,0.061 0.845,0.135 1.188,0.16 0.341,0.014 0.629,0.025 0.864,0.034 C -0.235,0.001 0,0 0,0"
             style="fill:#1a2e35;fill-opacity:1;fill-rule:nonzero;stroke:none"
             id="path650" /></g></g></g></g></svg>
